<svg width="285" height="252" viewBox="0 0 285 252" fill="none" xmlns="http://www.w3.org/2000/svg">
<g filter="url(#filter0_d_0_1)">
<rect width="285.859" height="95.7353" rx="11" transform="matrix(0.782276 -0.622932 0.63442 0.772988 0.216675 174.055)" fill="#FCAA1D" fill-opacity="0.59" shape-rendering="crispEdges"/>
</g>
<g filter="url(#filter1_d_0_1)">
<mask id="path-2-outside-1_0_1" maskUnits="userSpaceOnUse" x="37.0855" y="24.8459" width="215.659" height="188.349" fill="black">
<rect fill="white" x="37.0855" y="24.8459" width="215.659" height="188.349"/>
<path d="M69.1441 210.853L41.6164 178.42L42.0805 178.04L68.0766 182.525L68.1606 156.665L68.6711 156.247L96.1988 188.68L90.4445 193.396L78.8355 179.718L74.4628 174.149L74.912 177.97L74.8054 190.545L62.1968 188.391L58.4528 187.271L63.2895 192.459L74.8985 206.137L69.1441 210.853ZM111.964 176.534C108.561 179.323 105.039 180.427 101.396 179.844C97.7542 179.261 94.3542 177.109 91.1963 173.388C88.0126 169.637 86.4932 165.931 86.6383 162.27C86.7833 158.609 88.5574 155.384 91.9605 152.595C95.3791 149.794 98.8967 148.746 102.513 149.454C106.133 150.133 109.476 152.28 112.543 155.893C115.61 159.507 117.135 163.157 117.116 166.844C117.1 170.503 115.383 173.733 111.964 176.534ZM108.175 171.884C111.114 169.475 110.513 165.831 106.371 160.952C102.204 156.042 98.6505 154.791 95.7115 157.2C94.2574 158.392 93.6136 159.889 93.7798 161.692C93.9332 163.479 95.1293 165.692 97.3683 168.33C99.5943 170.953 101.588 172.499 103.35 172.968C105.113 173.437 106.721 173.076 108.175 171.884ZM135.742 157.357C133.871 158.891 131.826 159.727 129.608 159.864C127.39 160.001 125.138 159.481 122.853 158.303C120.583 157.112 118.426 155.312 116.381 152.903C113.198 149.152 111.48 145.583 111.228 142.195C110.991 138.795 112.412 135.834 115.49 133.311C117.068 132.018 118.728 131.317 120.471 131.207C122.216 131.069 123.866 131.591 125.421 132.774L122.169 129.777L111.492 117.197L116.967 112.709L146.475 147.475L141.417 151.62L137.457 146.955C138.372 148.867 138.725 150.75 138.514 152.604C138.29 154.442 137.366 156.026 135.742 157.357ZM133.244 151.726C134.358 150.813 134.87 149.423 134.781 147.557C134.68 145.676 133.522 143.431 131.309 140.824C129.29 138.445 127.39 136.887 125.609 136.148C123.829 135.41 122.227 135.624 120.804 136.79C120.077 137.386 119.537 138.203 119.186 139.241C118.849 140.267 118.901 141.517 119.34 142.993C119.767 144.453 120.776 146.121 122.368 147.997C124.503 150.512 126.536 152.027 128.466 152.539C130.383 153.036 131.976 152.765 133.244 151.726ZM129.391 116.567L124.227 110.483L130.724 105.158L135.888 111.242L129.391 116.567ZM152.103 142.863L132.768 120.082L138.8 115.138L158.136 137.918L152.103 142.863ZM165.297 132.049L150.039 114.072L146.929 116.62L142.853 111.817L145.962 109.268L142.972 105.746C141.432 103.932 140.413 102.22 139.914 100.613C139.43 98.9924 139.315 97.4968 139.568 96.1261C139.821 94.7553 140.31 93.5397 141.036 92.4792C141.765 91.3908 142.578 90.479 143.475 89.7437C144.759 88.6914 145.799 88.0325 146.597 87.7668C147.41 87.4884 148.092 87.3038 148.645 87.213L153.052 92.405C152.336 92.2417 151.569 92.3272 150.751 92.6614C149.92 92.9804 149.257 93.3427 148.762 93.7484C147.68 94.6358 147.059 95.7129 146.902 96.9797C146.731 98.2312 147.254 99.5736 148.471 101.007L151.577 104.666L157.192 100.065L161.269 104.868L155.654 109.47L170.912 127.447L165.297 132.049ZM180.565 119.536L161.229 96.7557L167.262 91.8114L186.598 114.592L180.565 119.536ZM157.852 93.2405L152.689 87.1566L159.185 81.832L164.349 87.916L157.852 93.2405ZM202.269 102.679C199.809 104.695 197.347 105.795 194.881 105.981C192.402 106.151 190.028 105.64 187.758 104.449C185.504 103.246 183.478 101.584 181.679 99.465C179.893 97.3607 178.633 95.0578 177.9 92.5561C177.167 90.0544 177.125 87.5802 177.776 85.1333C178.428 82.6865 179.944 80.4869 182.326 78.5346C183.657 77.4443 184.98 76.5927 186.295 75.9797C187.611 75.3668 189.129 75.0536 190.849 75.0403L193.062 81.4485C192.015 81.1427 190.888 81.1744 189.68 81.5438C188.475 81.8852 187.478 82.3792 186.689 83.0257C183.317 85.7895 183.676 89.5805 187.765 94.3989C189.914 96.9301 191.891 98.4252 193.697 98.8842C195.518 99.3305 197.272 98.8628 198.958 97.4809C200.072 96.5681 200.879 95.5573 201.381 94.4483C201.869 93.3241 202.129 92.3481 202.161 91.5205L207.38 94.1465C207.335 94.9589 206.944 96.1975 206.206 97.8622C205.468 99.5269 204.156 101.133 202.269 102.679ZM218.692 89.374C217.269 90.5404 215.821 91.1976 214.346 91.3458C212.888 91.4813 211.486 91.2207 210.142 90.5642C208.814 89.895 207.619 88.9352 206.557 87.6849C205.962 86.9834 205.486 86.0676 205.13 84.9374C204.79 83.7945 204.76 82.4615 205.041 80.9385C205.322 79.4154 206.098 77.719 207.37 75.8492C208.642 73.9794 210.601 71.9606 213.246 69.7927L212.353 68.7406C211.395 67.6122 210.321 66.9027 209.13 66.6119C207.954 66.3085 206.539 66.835 204.884 68.1915C203.677 69.1803 202.669 70.356 201.858 71.7185C201.05 73.0531 200.627 74.2396 200.591 75.278L195.007 72.4079C195.405 71.022 196.157 69.436 197.264 67.6498C198.373 65.8357 199.879 64.149 201.782 62.5897C204.071 60.7134 206.141 59.5985 207.992 59.2451C209.843 58.8917 211.56 59.1387 213.145 59.9859C214.717 60.8179 216.221 62.0801 217.658 63.7727L230.354 78.731L225.388 82.8005L222.214 79.895C222.805 83.8056 221.632 86.9653 218.692 89.374ZM217.425 82.9669C218.121 82.3964 218.63 81.5134 218.953 80.3179C219.279 79.0945 219.305 77.858 219.031 76.6086L216.274 73.3607C216.094 73.457 215.911 73.5812 215.725 73.7334C215.555 73.8728 215.354 74.0376 215.122 74.2278C214.271 74.925 213.458 75.7595 212.683 76.731C211.91 77.6746 211.399 78.649 211.151 79.6542C210.902 80.6593 211.134 81.5812 211.846 82.4199C212.778 83.5177 213.685 84.0925 214.568 84.1443C215.452 84.1961 216.404 83.8036 217.425 82.9669ZM235.528 74.4907L216.192 51.71L221.436 47.4123L225.131 51.2096C224.874 50.4121 224.716 49.4687 224.657 48.3795C224.613 47.2775 224.854 46.1238 225.378 44.9184C225.905 43.6851 226.896 42.4725 228.35 41.2808C228.798 40.9132 229.218 40.6204 229.611 40.4025C230.003 40.1846 230.397 40.0162 230.795 39.8973L234.582 46.9547C233.673 46.8724 232.708 47.2497 231.687 48.0864C230.496 49.0626 229.728 50.1052 229.384 51.2144C229.027 52.3083 228.916 53.3047 229.049 54.2036C229.198 55.0899 229.409 55.6931 229.68 56.0133L241.328 69.7366L235.528 74.4907Z"/>
</mask>
<path d="M69.1441 210.853L41.6164 178.42L42.0805 178.04L68.0766 182.525L68.1606 156.665L68.6711 156.247L96.1988 188.68L90.4445 193.396L78.8355 179.718L74.4628 174.149L74.912 177.97L74.8054 190.545L62.1968 188.391L58.4528 187.271L63.2895 192.459L74.8985 206.137L69.1441 210.853ZM111.964 176.534C108.561 179.323 105.039 180.427 101.396 179.844C97.7542 179.261 94.3542 177.109 91.1963 173.388C88.0126 169.637 86.4932 165.931 86.6383 162.27C86.7833 158.609 88.5574 155.384 91.9605 152.595C95.3791 149.794 98.8967 148.746 102.513 149.454C106.133 150.133 109.476 152.28 112.543 155.893C115.61 159.507 117.135 163.157 117.116 166.844C117.1 170.503 115.383 173.733 111.964 176.534ZM108.175 171.884C111.114 169.475 110.513 165.831 106.371 160.952C102.204 156.042 98.6505 154.791 95.7115 157.2C94.2574 158.392 93.6136 159.889 93.7798 161.692C93.9332 163.479 95.1293 165.692 97.3683 168.33C99.5943 170.953 101.588 172.499 103.35 172.968C105.113 173.437 106.721 173.076 108.175 171.884ZM135.742 157.357C133.871 158.891 131.826 159.727 129.608 159.864C127.39 160.001 125.138 159.481 122.853 158.303C120.583 157.112 118.426 155.312 116.381 152.903C113.198 149.152 111.48 145.583 111.228 142.195C110.991 138.795 112.412 135.834 115.49 133.311C117.068 132.018 118.728 131.317 120.471 131.207C122.216 131.069 123.866 131.591 125.421 132.774L122.169 129.777L111.492 117.197L116.967 112.709L146.475 147.475L141.417 151.62L137.457 146.955C138.372 148.867 138.725 150.75 138.514 152.604C138.29 154.442 137.366 156.026 135.742 157.357ZM133.244 151.726C134.358 150.813 134.87 149.423 134.781 147.557C134.68 145.676 133.522 143.431 131.309 140.824C129.29 138.445 127.39 136.887 125.609 136.148C123.829 135.41 122.227 135.624 120.804 136.79C120.077 137.386 119.537 138.203 119.186 139.241C118.849 140.267 118.901 141.517 119.34 142.993C119.767 144.453 120.776 146.121 122.368 147.997C124.503 150.512 126.536 152.027 128.466 152.539C130.383 153.036 131.976 152.765 133.244 151.726ZM129.391 116.567L124.227 110.483L130.724 105.158L135.888 111.242L129.391 116.567ZM152.103 142.863L132.768 120.082L138.8 115.138L158.136 137.918L152.103 142.863ZM165.297 132.049L150.039 114.072L146.929 116.62L142.853 111.817L145.962 109.268L142.972 105.746C141.432 103.932 140.413 102.22 139.914 100.613C139.43 98.9924 139.315 97.4968 139.568 96.1261C139.821 94.7553 140.31 93.5397 141.036 92.4792C141.765 91.3908 142.578 90.479 143.475 89.7437C144.759 88.6914 145.799 88.0325 146.597 87.7668C147.41 87.4884 148.092 87.3038 148.645 87.213L153.052 92.405C152.336 92.2417 151.569 92.3272 150.751 92.6614C149.92 92.9804 149.257 93.3427 148.762 93.7484C147.68 94.6358 147.059 95.7129 146.902 96.9797C146.731 98.2312 147.254 99.5736 148.471 101.007L151.577 104.666L157.192 100.065L161.269 104.868L155.654 109.47L170.912 127.447L165.297 132.049ZM180.565 119.536L161.229 96.7557L167.262 91.8114L186.598 114.592L180.565 119.536ZM157.852 93.2405L152.689 87.1566L159.185 81.832L164.349 87.916L157.852 93.2405ZM202.269 102.679C199.809 104.695 197.347 105.795 194.881 105.981C192.402 106.151 190.028 105.64 187.758 104.449C185.504 103.246 183.478 101.584 181.679 99.465C179.893 97.3607 178.633 95.0578 177.9 92.5561C177.167 90.0544 177.125 87.5802 177.776 85.1333C178.428 82.6865 179.944 80.4869 182.326 78.5346C183.657 77.4443 184.98 76.5927 186.295 75.9797C187.611 75.3668 189.129 75.0536 190.849 75.0403L193.062 81.4485C192.015 81.1427 190.888 81.1744 189.68 81.5438C188.475 81.8852 187.478 82.3792 186.689 83.0257C183.317 85.7895 183.676 89.5805 187.765 94.3989C189.914 96.9301 191.891 98.4252 193.697 98.8842C195.518 99.3305 197.272 98.8628 198.958 97.4809C200.072 96.5681 200.879 95.5573 201.381 94.4483C201.869 93.3241 202.129 92.3481 202.161 91.5205L207.38 94.1465C207.335 94.9589 206.944 96.1975 206.206 97.8622C205.468 99.5269 204.156 101.133 202.269 102.679ZM218.692 89.374C217.269 90.5404 215.821 91.1976 214.346 91.3458C212.888 91.4813 211.486 91.2207 210.142 90.5642C208.814 89.895 207.619 88.9352 206.557 87.6849C205.962 86.9834 205.486 86.0676 205.13 84.9374C204.79 83.7945 204.76 82.4615 205.041 80.9385C205.322 79.4154 206.098 77.719 207.37 75.8492C208.642 73.9794 210.601 71.9606 213.246 69.7927L212.353 68.7406C211.395 67.6122 210.321 66.9027 209.13 66.6119C207.954 66.3085 206.539 66.835 204.884 68.1915C203.677 69.1803 202.669 70.356 201.858 71.7185C201.05 73.0531 200.627 74.2396 200.591 75.278L195.007 72.4079C195.405 71.022 196.157 69.436 197.264 67.6498C198.373 65.8357 199.879 64.149 201.782 62.5897C204.071 60.7134 206.141 59.5985 207.992 59.2451C209.843 58.8917 211.56 59.1387 213.145 59.9859C214.717 60.8179 216.221 62.0801 217.658 63.7727L230.354 78.731L225.388 82.8005L222.214 79.895C222.805 83.8056 221.632 86.9653 218.692 89.374ZM217.425 82.9669C218.121 82.3964 218.63 81.5134 218.953 80.3179C219.279 79.0945 219.305 77.858 219.031 76.6086L216.274 73.3607C216.094 73.457 215.911 73.5812 215.725 73.7334C215.555 73.8728 215.354 74.0376 215.122 74.2278C214.271 74.925 213.458 75.7595 212.683 76.731C211.91 77.6746 211.399 78.649 211.151 79.6542C210.902 80.6593 211.134 81.5812 211.846 82.4199C212.778 83.5177 213.685 84.0925 214.568 84.1443C215.452 84.1961 216.404 83.8036 217.425 82.9669ZM235.528 74.4907L216.192 51.71L221.436 47.4123L225.131 51.2096C224.874 50.4121 224.716 49.4687 224.657 48.3795C224.613 47.2775 224.854 46.1238 225.378 44.9184C225.905 43.6851 226.896 42.4725 228.35 41.2808C228.798 40.9132 229.218 40.6204 229.611 40.4025C230.003 40.1846 230.397 40.0162 230.795 39.8973L234.582 46.9547C233.673 46.8724 232.708 47.2497 231.687 48.0864C230.496 49.0626 229.728 50.1052 229.384 51.2144C229.027 52.3083 228.916 53.3047 229.049 54.2036C229.198 55.0899 229.409 55.6931 229.68 56.0133L241.328 69.7366L235.528 74.4907Z" fill="#FCAA1D" fill-opacity="0.79" shape-rendering="crispEdges"/>
<path d="M69.1441 210.853L68.3707 211.487L69.0178 212.249L69.7913 211.615L69.1441 210.853ZM41.6164 178.42L40.9693 177.658L40.1959 178.292L40.843 179.054L41.6164 178.42ZM42.0805 178.04L42.2518 177.063L41.7916 176.984L41.4334 177.277L42.0805 178.04ZM68.0766 182.525L67.9053 183.501L69.0813 183.704L69.0851 182.531L68.0766 182.525ZM68.1606 156.665L67.5135 155.903L67.1537 156.198L67.1522 156.659L68.1606 156.665ZM68.6711 156.247L69.4445 155.613L68.7974 154.851L68.024 155.485L68.6711 156.247ZM96.1988 188.68L96.8459 189.442L97.6193 188.808L96.9722 188.046L96.1988 188.68ZM90.4445 193.396L89.671 194.03L90.3181 194.792L91.0916 194.158L90.4445 193.396ZM78.8355 179.718L78.0379 180.323L78.0497 180.338L78.062 180.352L78.8355 179.718ZM74.4628 174.149L75.2603 173.545L73.0452 170.724L73.461 174.26L74.4628 174.149ZM74.912 177.97L75.9204 177.981L75.9209 177.92L75.9138 177.859L74.912 177.97ZM74.8054 190.545L74.6357 191.522L75.8039 191.721L75.8138 190.556L74.8054 190.545ZM62.1968 188.391L61.906 189.339L61.9657 189.357L62.0271 189.368L62.1968 188.391ZM58.4528 187.271L58.7436 186.322L55.2203 185.268L57.7103 187.939L58.4528 187.271ZM63.2895 192.459L64.0629 191.825L64.0478 191.808L64.0319 191.791L63.2895 192.459ZM74.8985 206.137L75.5456 206.899L76.319 206.265L75.6719 205.503L74.8985 206.137ZM69.9176 210.219L42.3899 177.786L40.843 179.054L68.3707 211.487L69.9176 210.219ZM42.2635 179.183L42.7276 178.802L41.4334 177.277L40.9693 177.658L42.2635 179.183ZM41.9092 179.016L67.9053 183.501L68.2479 181.548L42.2518 177.063L41.9092 179.016ZM69.0851 182.531L69.169 156.672L67.1522 156.659L67.0682 182.518L69.0851 182.531ZM68.8077 157.428L69.3182 157.01L68.024 155.485L67.5135 155.903L68.8077 157.428ZM67.8977 156.881L95.4254 189.314L96.9722 188.046L69.4445 155.613L67.8977 156.881ZM95.5517 187.917L89.7974 192.633L91.0916 194.158L96.8459 189.442L95.5517 187.917ZM91.2179 192.762L79.6089 179.084L78.062 180.352L89.671 194.03L91.2179 192.762ZM79.633 179.114L75.2603 173.545L73.6653 174.754L78.0379 180.323L79.633 179.114ZM73.461 174.26L73.9102 178.081L75.9138 177.859L75.4646 174.038L73.461 174.26ZM73.9036 177.958L73.797 190.534L75.8138 190.556L75.9204 177.981L73.9036 177.958ZM74.9751 189.568L62.3665 187.414L62.0271 189.368L74.6357 191.522L74.9751 189.568ZM62.4876 187.442L58.7436 186.322L58.1619 188.219L61.906 189.339L62.4876 187.442ZM57.7103 187.939L62.547 193.128L64.0319 191.791L59.1952 186.602L57.7103 187.939ZM62.516 193.093L74.1251 206.771L75.6719 205.503L64.0629 191.825L62.516 193.093ZM74.2514 205.374L68.497 210.09L69.7913 211.615L75.5456 206.899L74.2514 205.374ZM101.396 179.844L101.555 178.865L101.555 178.865L101.396 179.844ZM86.6383 162.27L87.646 162.312L87.646 162.312L86.6383 162.27ZM102.513 149.454L102.32 150.426L102.327 150.428L102.513 149.454ZM117.116 166.844L116.108 166.836L116.108 166.837L117.116 166.844ZM93.7798 161.692L94.7847 161.612L94.7841 161.605L93.7798 161.692ZM103.35 172.968L103.09 173.925L103.09 173.925L103.35 172.968ZM111.317 175.772C108.088 178.418 104.851 179.392 101.555 178.865L101.237 180.822C105.226 181.461 109.034 180.229 112.612 177.297L111.317 175.772ZM101.555 178.865C98.2238 178.332 95.0243 176.353 91.9697 172.755L90.4229 174.022C93.684 177.865 97.2847 180.19 101.237 180.822L101.555 178.865ZM91.9697 172.755C88.8923 169.129 87.5135 165.655 87.646 162.312L85.6306 162.229C85.473 166.207 87.1328 170.146 90.4229 174.022L91.9697 172.755ZM87.646 162.312C87.7778 158.984 89.3776 156.005 92.6076 153.358L91.3134 151.833C87.7372 154.764 85.7889 158.235 85.6306 162.229L87.646 162.312ZM92.6076 153.358C95.8469 150.703 99.0644 149.789 102.32 150.426L102.707 148.481C98.729 147.703 94.9113 148.884 91.3134 151.833L92.6076 153.358ZM102.327 150.428C105.656 151.052 108.807 153.037 111.77 156.527L113.316 155.26C110.145 151.522 106.609 149.214 102.7 148.48L102.327 150.428ZM111.77 156.527C114.727 160.012 116.125 163.442 116.108 166.836L118.125 166.852C118.145 162.873 116.494 159.003 113.316 155.26L111.77 156.527ZM116.108 166.837C116.093 170.145 114.558 173.116 111.317 175.772L112.612 177.297C116.208 174.349 118.107 170.86 118.125 166.851L116.108 166.837ZM108.822 172.646C110.557 171.224 111.283 169.365 110.923 167.189C110.58 165.105 109.258 162.808 107.144 160.318L105.598 161.586C107.625 163.975 108.675 165.939 108.933 167.5C109.175 168.968 108.731 170.135 107.528 171.122L108.822 172.646ZM107.144 160.318C105.018 157.813 102.947 156.112 100.918 155.398C98.7983 154.652 96.8021 155.013 95.0644 156.438L96.3586 157.962C97.5599 156.978 98.8099 156.76 100.243 157.265C101.768 157.801 103.556 159.181 105.598 161.586L107.144 160.318ZM95.0644 156.438C93.3658 157.83 92.5783 159.64 92.7755 161.778L94.7841 161.605C94.6488 160.138 95.1491 158.954 96.3586 157.962L95.0644 156.438ZM92.775 161.772C92.9556 163.878 94.3259 166.291 96.5949 168.964L98.1417 167.696C95.9327 165.094 94.9107 163.081 94.7847 161.612L92.775 161.772ZM96.5949 168.964C98.8519 171.623 101.015 173.372 103.09 173.925L103.611 172.011C102.162 171.625 100.337 170.282 98.1417 167.696L96.5949 168.964ZM103.09 173.925C105.184 174.482 107.128 174.035 108.822 172.646L107.528 171.122C106.314 172.116 105.042 172.392 103.611 172.011L103.09 173.925ZM129.608 159.864L129.674 160.854L129.674 160.854L129.608 159.864ZM122.853 158.303L122.381 159.177L122.387 159.18L122.853 158.303ZM111.228 142.195L110.222 142.26L110.222 142.265L111.228 142.195ZM120.471 131.207L120.539 132.196L120.547 132.196L120.555 132.195L120.471 131.207ZM125.421 132.774L124.805 133.557L126.109 132.051L125.421 132.774ZM122.169 129.777L121.395 130.411L121.435 130.458L121.48 130.499L122.169 129.777ZM111.492 117.197L110.844 116.435L110.071 117.069L110.718 117.831L111.492 117.197ZM116.967 112.709L117.741 112.075L117.094 111.313L116.32 111.947L116.967 112.709ZM146.475 147.475L147.122 148.237L147.896 147.603L147.249 146.841L146.475 147.475ZM141.417 151.62L140.644 152.254L141.291 153.017L142.064 152.383L141.417 151.62ZM137.457 146.955L138.23 146.321L136.545 147.374L137.457 146.955ZM138.514 152.604L139.515 152.724L139.516 152.717L138.514 152.604ZM134.781 147.557L135.789 147.514L135.788 147.507L134.781 147.557ZM125.609 136.148L125.999 135.235L125.999 135.235L125.609 136.148ZM119.186 139.241L118.229 138.925L118.226 138.934L119.186 139.241ZM119.34 142.993L120.31 142.722L120.308 142.717L119.34 142.993ZM128.466 152.539L128.206 153.496L128.212 153.498L128.466 152.539ZM135.095 156.595C133.37 158.008 131.525 158.752 129.541 158.874L129.674 160.854C132.126 160.702 134.371 159.774 136.389 158.12L135.095 156.595ZM129.541 158.874C127.536 158.999 125.467 158.532 123.319 157.425L122.387 159.18C124.809 160.429 127.244 161.004 129.674 160.854L129.541 158.874ZM123.326 157.428C121.195 156.31 119.136 154.602 117.155 152.269L115.608 153.537C117.717 156.021 119.972 157.913 122.381 159.177L123.326 157.428ZM117.155 152.269C114.05 148.611 112.465 145.233 112.233 142.126L110.222 142.265C110.495 145.932 112.346 149.693 115.608 153.537L117.155 152.269ZM112.234 142.131C112.023 139.101 113.262 136.43 116.137 134.074L114.843 132.549C111.562 135.238 109.959 138.49 110.222 142.26L112.234 142.131ZM116.137 134.074C117.581 132.89 119.045 132.29 120.539 132.196L120.404 130.217C118.412 130.343 116.555 131.146 114.843 132.549L116.137 134.074ZM120.555 132.195C122.019 132.08 123.424 132.507 124.805 133.557L126.036 131.99C124.308 130.676 122.414 130.059 120.387 130.219L120.555 132.195ZM126.109 132.051L122.857 129.054L121.48 130.499L124.732 133.496L126.109 132.051ZM122.942 129.143L112.265 116.563L110.718 117.831L121.395 130.411L122.942 129.143ZM112.139 117.96L117.615 113.472L116.32 111.947L110.844 116.435L112.139 117.96ZM116.194 113.343L145.702 148.109L147.249 146.841L117.741 112.075L116.194 113.343ZM145.828 146.712L140.77 150.858L142.064 152.383L147.122 148.237L145.828 146.712ZM142.19 150.987L138.23 146.321L136.683 147.588L140.644 152.254L142.19 150.987ZM136.545 147.374C137.391 149.143 137.699 150.843 137.512 152.49L139.516 152.717C139.75 150.658 139.353 148.591 138.369 146.535L136.545 147.374ZM137.513 152.483C137.323 154.038 136.549 155.403 135.095 156.595L136.389 158.12C138.184 156.649 139.257 154.845 139.515 152.724L137.513 152.483ZM133.891 152.488C135.318 151.319 135.887 149.586 135.789 147.514L133.774 147.6C133.853 149.261 133.398 150.307 132.597 150.963L133.891 152.488ZM135.788 147.507C135.669 145.299 134.337 142.846 132.082 140.19L130.536 141.458C132.707 144.016 133.69 146.053 133.774 147.607L135.788 147.507ZM132.082 140.19C130.018 137.757 127.994 136.062 125.999 135.235L125.22 137.062C126.787 137.711 128.562 139.133 130.536 141.458L132.082 140.19ZM125.999 135.235C124.974 134.81 123.946 134.637 122.934 134.773C121.919 134.908 120.991 135.344 120.157 136.028L121.451 137.553C122.039 137.071 122.624 136.816 123.211 136.738C123.801 136.659 124.464 136.748 125.22 137.062L125.999 135.235ZM120.157 136.028C119.263 136.761 118.629 137.744 118.229 138.925L120.142 139.557C120.446 138.663 120.891 138.012 121.451 137.553L120.157 136.028ZM118.226 138.934C117.806 140.213 117.9 141.68 118.373 143.269L120.308 142.717C119.902 141.354 119.892 140.32 120.146 139.548L118.226 138.934ZM118.371 143.264C118.853 144.913 119.961 146.706 121.594 148.63L123.141 147.363C121.591 145.536 120.681 143.993 120.31 142.722L118.371 143.264ZM121.594 148.63C123.783 151.209 125.981 152.906 128.206 153.496L128.726 151.582C127.091 151.148 125.224 149.816 123.141 147.363L121.594 148.63ZM128.212 153.498C130.373 154.058 132.321 153.775 133.891 152.488L132.597 150.963C131.63 151.756 130.393 152.014 128.72 151.58L128.212 153.498ZM129.391 116.567L128.617 117.201L129.264 117.963L130.038 117.329L129.391 116.567ZM124.227 110.483L123.58 109.72L122.806 110.354L123.453 111.117L124.227 110.483ZM130.724 105.158L131.497 104.524L130.85 103.762L130.077 104.396L130.724 105.158ZM135.888 111.242L136.535 112.005L137.308 111.371L136.661 110.608L135.888 111.242ZM152.103 142.863L151.33 143.496L151.977 144.259L152.75 143.625L152.103 142.863ZM132.768 120.082L132.121 119.32L131.347 119.953L131.994 120.716L132.768 120.082ZM138.8 115.138L139.574 114.504L138.927 113.741L138.153 114.375L138.8 115.138ZM158.136 137.918L158.783 138.681L159.556 138.047L158.909 137.284L158.136 137.918ZM130.164 115.933L125 109.849L123.453 111.117L128.617 117.201L130.164 115.933ZM124.874 111.245L131.371 105.921L130.077 104.396L123.58 109.72L124.874 111.245ZM129.95 105.792L135.114 111.876L136.661 110.608L131.497 104.524L129.95 105.792ZM135.24 110.48L128.744 115.804L130.038 117.329L136.535 112.005L135.24 110.48ZM152.877 142.229L133.541 119.448L131.994 120.716L151.33 143.496L152.877 142.229ZM133.415 120.844L139.448 115.9L138.153 114.375L132.121 119.32L133.415 120.844ZM138.027 115.772L157.362 138.552L158.909 137.284L139.574 114.504L138.027 115.772ZM157.489 137.156L151.456 142.1L152.75 143.625L158.783 138.681L157.489 137.156ZM165.297 132.049L164.524 132.683L165.171 133.445L165.944 132.811L165.297 132.049ZM150.039 114.072L150.812 113.438L150.165 112.675L149.391 113.309L150.039 114.072ZM146.929 116.62L146.156 117.254L146.803 118.016L147.576 117.382L146.929 116.62ZM142.853 111.817L142.206 111.054L141.432 111.688L142.079 112.45L142.853 111.817ZM145.962 109.268L146.609 110.031L147.382 109.397L146.735 108.635L145.962 109.268ZM139.914 100.613L138.946 100.889L138.949 100.899L139.914 100.613ZM139.568 96.1261L140.56 96.306L140.56 96.306L139.568 96.1261ZM141.036 92.4792L141.873 93.0347L141.879 93.0261L141.036 92.4792ZM146.597 87.7668L146.923 88.7059L146.931 88.7032L146.597 87.7668ZM148.645 87.213L149.418 86.5791L149.047 86.1412L148.476 86.2351L148.645 87.213ZM153.052 92.405L152.826 93.3708L155.749 94.0375L153.825 91.7711L153.052 92.405ZM150.751 92.6614L151.121 93.5851L151.131 93.5812L151.141 93.5771L150.751 92.6614ZM146.902 96.9797L147.901 97.1143L147.903 97.103L146.902 96.9797ZM151.577 104.666L150.804 105.3L151.451 106.063L152.224 105.429L151.577 104.666ZM157.192 100.065L157.966 99.4306L157.318 98.6682L156.545 99.3021L157.192 100.065ZM161.269 104.868L161.916 105.63L162.689 104.996L162.042 104.234L161.269 104.868ZM155.654 109.47L155.007 108.707L154.233 109.341L154.88 110.103L155.654 109.47ZM170.912 127.447L171.559 128.209L172.333 127.576L171.686 126.813L170.912 127.447ZM180.565 119.536L179.791 120.17L180.438 120.933L181.212 120.299L180.565 119.536ZM161.229 96.7557L160.582 95.9933L159.809 96.6271L160.456 97.3895L161.229 96.7557ZM167.262 91.8114L168.036 91.1775L167.388 90.4151L166.615 91.049L167.262 91.8114ZM186.598 114.592L187.245 115.354L188.018 114.721L187.371 113.958L186.598 114.592ZM157.852 93.2405L157.079 93.8744L157.726 94.6368L158.5 94.0029L157.852 93.2405ZM152.689 87.1566L152.041 86.3942L151.268 87.028L151.915 87.7904L152.689 87.1566ZM159.185 81.832L159.959 81.1981L159.312 80.4357L158.538 81.0696L159.185 81.832ZM164.349 87.916L164.996 88.6784L165.77 88.0445L165.123 87.2821L164.349 87.916ZM166.071 131.415L150.812 113.438L149.265 114.705L164.524 132.683L166.071 131.415ZM149.391 113.309L146.282 115.857L147.576 117.382L150.686 114.834L149.391 113.309ZM147.703 115.986L143.626 111.183L142.079 112.45L146.156 117.254L147.703 115.986ZM143.5 112.579L146.609 110.031L145.315 108.506L142.206 111.054L143.5 112.579ZM146.735 108.635L143.746 105.112L142.199 106.38L145.188 109.902L146.735 108.635ZM143.746 105.112C142.26 103.361 141.325 101.766 140.878 100.326L138.949 100.899C139.5 102.675 140.605 104.502 142.199 106.38L143.746 105.112ZM140.881 100.336C140.433 98.8334 140.34 97.4962 140.56 96.306L138.575 95.9462C138.289 97.4974 138.427 99.1514 138.946 100.889L140.881 100.336ZM140.56 96.306C140.79 95.0576 141.231 93.9722 141.873 93.0347L140.199 91.9238C139.389 93.1072 138.851 94.453 138.575 95.9462L140.56 96.306ZM141.879 93.0261C142.561 92.0079 143.31 91.1717 144.122 90.5061L142.828 88.9813C141.846 89.7863 140.969 90.7737 140.193 91.9323L141.879 93.0261ZM144.122 90.5061C145.386 89.4703 146.309 88.9105 146.923 88.7059L146.27 86.8276C145.29 87.1544 144.132 87.9125 142.828 88.9813L144.122 90.5061ZM146.931 88.7032C147.716 88.4345 148.339 88.269 148.814 88.191L148.476 86.2351C147.846 86.3386 147.104 86.5422 146.262 86.8303L146.931 88.7032ZM147.871 87.8469L152.278 93.0389L153.825 91.7711L149.418 86.5791L147.871 87.8469ZM153.277 91.4392C152.316 91.22 151.333 91.3489 150.362 91.7457L151.141 93.5771C151.806 93.3055 152.356 93.2634 152.826 93.3708L153.277 91.4392ZM150.382 91.7377C149.486 92.0816 148.718 92.4916 148.115 92.986L149.409 94.5108C149.796 94.1938 150.355 93.8791 151.121 93.5851L150.382 91.7377ZM148.115 92.986C146.855 94.019 146.092 95.3171 145.901 96.8563L147.903 97.103C148.026 96.1088 148.504 95.2527 149.409 94.5108L148.115 92.986ZM145.902 96.8451C145.679 98.4814 146.386 100.096 147.697 101.641L149.244 100.373C148.122 99.0511 147.783 97.981 147.901 97.1143L145.902 96.8451ZM147.697 101.641L150.804 105.3L152.35 104.033L149.244 100.373L147.697 101.641ZM152.224 105.429L157.839 100.827L156.545 99.3021L150.93 103.904L152.224 105.429ZM156.419 100.698L160.495 105.502L162.042 104.234L157.966 99.4306L156.419 100.698ZM160.622 104.105L155.007 108.707L156.301 110.232L161.916 105.63L160.622 104.105ZM154.88 110.103L170.139 128.081L171.686 126.813L156.427 108.836L154.88 110.103ZM170.265 126.685L164.65 131.287L165.944 132.811L171.559 128.209L170.265 126.685ZM181.338 118.902L162.003 96.1218L160.456 97.3895L179.791 120.17L181.338 118.902ZM161.876 97.5181L167.909 92.5738L166.615 91.049L160.582 95.9933L161.876 97.5181ZM166.489 92.4453L185.824 115.226L187.371 113.958L168.036 91.1775L166.489 92.4453ZM185.95 113.83L179.918 118.774L181.212 120.299L187.245 115.354L185.95 113.83ZM158.626 92.6067L153.462 86.5227L151.915 87.7904L157.079 93.8744L158.626 92.6067ZM153.336 87.919L159.833 82.5944L158.538 81.0696L152.041 86.3942L153.336 87.919ZM158.412 82.4659L163.576 88.5498L165.123 87.2821L159.959 81.1981L158.412 82.4659ZM163.702 87.1536L157.205 92.4781L158.5 94.0029L164.996 88.6784L163.702 87.1536ZM194.881 105.981L194.954 106.97L194.961 106.969L194.881 105.981ZM187.758 104.449L187.279 105.32L187.286 105.324L187.758 104.449ZM177.9 92.5561L178.869 92.2843L178.869 92.2843L177.9 92.5561ZM177.776 85.1333L178.752 85.387L178.752 85.387L177.776 85.1333ZM186.295 75.9797L185.861 75.0835L185.861 75.0835L186.295 75.9797ZM190.849 75.0403L191.804 74.7241L191.568 74.0432L190.838 74.0488L190.849 75.0403ZM193.062 81.4485L192.777 82.3988L194.642 82.9439L194.016 81.1324L193.062 81.4485ZM189.68 81.5438L189.962 82.4966L189.972 82.4937L189.982 82.4906L189.68 81.5438ZM193.697 98.8842L193.447 99.8441L193.456 99.8462L193.697 98.8842ZM201.381 94.4483L202.302 94.8533L202.305 94.8468L202.308 94.8401L201.381 94.4483ZM202.161 91.5205L202.618 90.6381L201.213 89.9311L201.153 91.4799L202.161 91.5205ZM207.38 94.1465L208.387 94.2033L208.423 93.5587L207.837 93.2641L207.38 94.1465ZM206.206 97.8622L205.281 97.4638L205.281 97.4638L206.206 97.8622ZM201.622 101.917C199.275 103.84 197.004 104.827 194.801 104.992L194.961 106.969C197.689 106.764 200.343 105.55 202.916 103.442L201.622 101.917ZM194.808 104.992C192.525 105.148 190.339 104.681 188.231 103.575L187.286 105.324C189.717 106.599 192.28 107.153 194.954 106.97L194.808 104.992ZM188.237 103.578C186.106 102.44 184.177 100.863 182.452 98.8311L180.905 100.099C182.778 102.306 184.902 104.051 187.279 105.32L188.237 103.578ZM182.452 98.8311C180.751 96.8273 179.561 94.6464 178.869 92.2843L176.931 92.8279C177.705 95.4691 179.034 97.8942 180.905 100.099L182.452 98.8311ZM178.869 92.2843C178.184 89.9491 178.148 87.6565 178.752 85.387L176.801 84.8796C176.103 87.5038 176.149 90.1597 176.931 92.8279L178.869 92.2843ZM178.752 85.387C179.34 83.1776 180.718 81.1454 182.973 79.297L181.679 77.7722C179.17 79.8285 177.515 82.1954 176.801 84.8796L178.752 85.387ZM182.973 79.297C184.251 78.2502 185.503 77.4473 186.729 76.876L185.861 75.0835C184.456 75.738 183.063 76.6384 181.679 77.7722L182.973 79.297ZM186.729 76.876C187.891 76.3347 189.26 76.0441 190.86 76.0318L190.838 74.0488C188.997 74.0631 187.331 74.3988 185.861 75.0835L186.729 76.876ZM189.894 75.3565L192.107 81.7647L194.016 81.1324L191.804 74.7241L189.894 75.3565ZM193.346 80.4982C192.079 80.1277 190.745 80.1789 189.378 80.5969L189.982 82.4906C191.031 82.17 191.952 82.1576 192.777 82.3988L193.346 80.4982ZM189.398 80.591C188.088 80.9622 186.959 81.5121 186.042 82.2633L187.336 83.7882C187.997 83.2463 188.862 82.8082 189.962 82.4966L189.398 80.591ZM186.042 82.2633C184.142 83.8207 183.21 85.7625 183.425 88.0307C183.632 90.2183 184.893 92.5595 186.992 95.0328L188.539 93.765C186.548 91.4199 185.585 89.4564 185.433 87.853C185.289 86.3301 185.864 84.9945 187.336 83.7882L186.042 82.2633ZM186.992 95.0328C189.181 97.6123 191.329 99.3057 193.447 99.8441L193.946 97.9243C192.453 97.5447 190.646 96.2479 188.539 93.765L186.992 95.0328ZM193.456 99.8462C195.646 100.383 197.721 99.7876 199.605 98.2433L198.311 96.7185C196.823 97.9379 195.391 98.2783 193.938 97.9222L193.456 99.8462ZM199.605 98.2433C200.817 97.2506 201.729 96.1228 202.302 94.8533L200.459 94.0432C200.03 94.9917 199.327 95.8857 198.311 96.7185L199.605 98.2433ZM202.308 94.8401C202.824 93.6529 203.131 92.5529 203.169 91.5611L201.153 91.4799C201.128 92.1434 200.914 92.9953 200.453 94.0564L202.308 94.8401ZM201.704 92.4028L206.923 95.0288L207.837 93.2641L202.618 90.6381L201.704 92.4028ZM206.373 94.0897C206.339 94.7098 206.016 95.8068 205.281 97.4638L207.131 98.2606C207.872 96.5882 208.332 95.2079 208.387 94.2033L206.373 94.0897ZM205.281 97.4638C204.623 98.9488 203.427 100.437 201.622 101.917L202.916 103.442C204.885 101.828 206.313 100.105 207.131 98.2606L205.281 97.4638ZM214.346 91.3458L214.444 92.3329L214.452 92.3321L214.346 91.3458ZM210.142 90.5642L209.685 91.4464L209.696 91.4519L210.142 90.5642ZM205.13 84.9374L204.163 85.2135L204.165 85.2208L204.167 85.2281L205.13 84.9374ZM205.041 80.9385L206.033 81.1184L206.033 81.1184L205.041 80.9385ZM207.37 75.8492L208.209 76.4022L208.209 76.4022L207.37 75.8492ZM213.246 69.7927L213.893 70.5551L214.667 69.9212L214.019 69.1588L213.246 69.7927ZM209.13 66.6119L208.877 67.5709L208.89 67.5741L209.13 66.6119ZM201.858 71.7185L202.725 72.2277L202.729 72.2212L201.858 71.7185ZM200.591 75.278L200.126 76.1564L201.543 76.885L201.598 75.3155L200.591 75.278ZM195.007 72.4079L194.036 72.136L193.814 72.9119L194.542 73.2862L195.007 72.4079ZM197.264 67.6498L198.125 68.1676L198.128 68.1627L197.264 67.6498ZM207.992 59.2451L208.187 60.2185L208.187 60.2185L207.992 59.2451ZM213.145 59.9859L212.665 60.8566L212.669 60.8586L213.145 59.9859ZM230.354 78.731L231.001 79.4934L231.774 78.8595L231.127 78.0971L230.354 78.731ZM225.388 82.8005L224.702 83.5252L225.354 84.1215L226.035 83.5629L225.388 82.8005ZM222.214 79.895L222.9 79.1702L220.794 77.2425L221.216 80.0378L222.214 79.895ZM218.953 80.3179L219.928 80.5752L219.929 80.5716L218.953 80.3179ZM219.031 76.6086L220.017 76.4027L219.964 76.1631L219.805 75.9747L219.031 76.6086ZM216.274 73.3607L217.048 72.7269L216.517 72.1018L215.792 72.4888L216.274 73.3607ZM212.683 76.731L213.469 77.3543L213.477 77.3445L212.683 76.731ZM211.151 79.6542L210.171 79.4172L210.171 79.4172L211.151 79.6542ZM218.045 88.6116C216.737 89.6838 215.471 90.2358 214.241 90.3594L214.452 92.3321C216.171 92.1594 217.802 91.397 219.34 90.1364L218.045 88.6116ZM214.249 90.3587C212.981 90.4764 211.768 90.2527 210.589 89.6765L209.696 91.4519C211.204 92.1888 212.794 92.4862 214.444 92.3329L214.249 90.3587ZM210.6 89.6821C209.405 89.0802 208.314 88.2098 207.331 87.051L205.784 88.3187C206.923 89.6606 208.222 90.7098 209.685 91.4464L210.6 89.6821ZM207.331 87.051C206.842 86.4756 206.421 85.6869 206.093 84.6467L204.167 85.2281C204.551 86.4484 205.082 87.4913 205.784 88.3187L207.331 87.051ZM206.098 84.6613C205.813 83.7044 205.772 82.5338 206.033 81.1184L204.049 80.7586C203.748 82.3892 203.767 83.8846 204.163 85.2135L206.098 84.6613ZM206.033 81.1184C206.281 79.775 206.982 78.2063 208.209 76.4022L206.532 75.2962C205.215 77.2316 204.363 79.0558 204.049 80.7586L206.033 81.1184ZM208.209 76.4022C209.408 74.6397 211.288 72.6898 213.893 70.5551L212.599 69.0303C209.913 71.2313 207.877 73.3191 206.532 75.2962L208.209 76.4022ZM214.019 69.1588L213.126 68.1067L211.58 69.3745L212.473 70.4266L214.019 69.1588ZM213.126 68.1067C212.061 66.8519 210.812 66.0016 209.37 65.6497L208.89 67.5741C209.83 67.8037 210.729 68.3725 211.58 69.3745L213.126 68.1067ZM209.383 65.6529C207.713 65.2218 205.953 66.0222 204.237 67.4291L205.531 68.9539C207.125 67.6478 208.196 67.3951 208.877 67.5708L209.383 65.6529ZM204.237 67.4291C202.939 68.4927 201.855 69.7569 200.987 71.2159L202.729 72.2212C203.482 70.9551 204.416 69.8679 205.531 68.9539L204.237 67.4291ZM200.991 71.2094C200.136 72.6214 199.628 73.9731 199.583 75.2405L201.598 75.3155C201.627 74.5061 201.964 73.4849 202.725 72.2277L200.991 71.2094ZM201.056 74.3997L195.472 71.5295L194.542 73.2862L200.126 76.1564L201.056 74.3997ZM195.978 72.6797C196.342 71.4098 197.046 69.9085 198.125 68.1676L196.402 67.1321C195.267 68.9636 194.467 70.6343 194.036 72.136L195.978 72.6797ZM198.128 68.1627C199.172 66.4562 200.6 64.8512 202.429 63.3521L201.135 61.8272C199.158 63.4468 197.574 65.2153 196.399 67.137L198.128 68.1627ZM202.429 63.3521C204.656 61.5264 206.572 60.5268 208.187 60.2185L207.797 58.2718C205.71 58.6703 203.486 59.9004 201.135 61.8272L202.429 63.3521ZM208.187 60.2185C209.82 59.9067 211.297 60.1251 212.665 60.8566L213.625 59.1152C211.824 58.1522 209.866 57.8767 207.797 58.2718L208.187 60.2185ZM212.669 60.8586C214.102 61.6171 215.51 62.7875 216.884 64.4065L218.431 63.1388C216.932 61.3727 215.331 60.0186 213.621 59.1132L212.669 60.8586ZM216.884 64.4065L229.58 79.3649L231.127 78.0971L218.431 63.1388L216.884 64.4065ZM229.707 77.9686L224.741 82.0381L226.035 83.5629L231.001 79.4934L229.707 77.9686ZM226.074 82.0758L222.9 79.1702L221.528 80.6197L224.702 83.5252L226.074 82.0758ZM221.216 80.0378C221.759 83.6271 220.699 86.4364 218.045 88.6116L219.34 90.1364C222.564 87.4942 223.851 83.9841 223.211 79.7521L221.216 80.0378ZM218.072 83.7293C218.979 82.986 219.572 81.894 219.928 80.5752L217.979 80.0606C217.689 81.1328 217.263 81.8068 216.778 82.2045L218.072 83.7293ZM219.929 80.5716C220.295 79.1966 220.324 77.8027 220.017 76.4027L218.045 76.8144C218.286 77.9134 218.263 78.9924 217.978 80.0642L219.929 80.5716ZM219.805 75.9747L217.048 72.7269L215.501 73.9946L218.258 77.2425L219.805 75.9747ZM215.792 72.4888C215.544 72.6211 215.306 72.7842 215.078 72.9709L216.372 74.4958C216.516 74.3783 216.644 74.293 216.757 74.2326L215.792 72.4888ZM215.078 72.9709C215.078 72.9712 215.077 72.9715 215.077 72.9718C215.077 72.972 215.076 72.9723 215.076 72.9726C215.076 72.9729 215.075 72.9731 215.075 72.9734C215.075 72.9737 215.074 72.9739 215.074 72.9742C215.074 72.9745 215.073 72.9748 215.073 72.975C215.073 72.9753 215.072 72.9756 215.072 72.9759C215.072 72.9761 215.071 72.9764 215.071 72.9767C215.071 72.977 215.07 72.9772 215.07 72.9775C215.07 72.9778 215.069 72.9781 215.069 72.9783C215.069 72.9786 215.068 72.9789 215.068 72.9791C215.068 72.9794 215.067 72.9797 215.067 72.98C215.067 72.9802 215.066 72.9805 215.066 72.9808C215.066 72.9811 215.065 72.9813 215.065 72.9816C215.065 72.9819 215.064 72.9822 215.064 72.9824C215.064 72.9827 215.063 72.983 215.063 72.9833C215.063 72.9835 215.062 72.9838 215.062 72.9841C215.062 72.9844 215.061 72.9846 215.061 72.9849C215.061 72.9852 215.06 72.9855 215.06 72.9858C215.06 72.986 215.059 72.9863 215.059 72.9866C215.059 72.9869 215.058 72.9871 215.058 72.9874C215.058 72.9877 215.057 72.988 215.057 72.9882C215.057 72.9885 215.056 72.9888 215.056 72.9891C215.056 72.9893 215.055 72.9896 215.055 72.9899C215.055 72.9902 215.054 72.9904 215.054 72.9907C215.054 72.991 215.053 72.9913 215.053 72.9916C215.053 72.9918 215.052 72.9921 215.052 72.9924C215.052 72.9927 215.051 72.9929 215.051 72.9932C215.051 72.9935 215.05 72.9938 215.05 72.9941C215.05 72.9943 215.049 72.9946 215.049 72.9949C215.048 72.9952 215.048 72.9954 215.048 72.9957C215.047 72.996 215.047 72.9963 215.047 72.9966C215.046 72.9968 215.046 72.9971 215.046 72.9974C215.045 72.9977 215.045 72.998 215.045 72.9982C215.044 72.9985 215.044 72.9988 215.044 72.9991C215.043 72.9993 215.043 72.9996 215.043 72.9999C215.042 73.0002 215.042 73.0005 215.042 73.0007C215.041 73.001 215.041 73.0013 215.041 73.0016C215.04 73.0019 215.04 73.0021 215.04 73.0024C215.039 73.0027 215.039 73.003 215.039 73.0033C215.038 73.0035 215.038 73.0038 215.038 73.0041C215.037 73.0044 215.037 73.0047 215.037 73.0049C215.036 73.0052 215.036 73.0055 215.036 73.0058C215.035 73.0061 215.035 73.0063 215.035 73.0066C215.034 73.0069 215.034 73.0072 215.033 73.0075C215.033 73.0077 215.033 73.008 215.032 73.0083C215.032 73.0086 215.032 73.0089 215.031 73.0091C215.031 73.0094 215.031 73.0097 215.03 73.01C215.03 73.0103 215.03 73.0106 215.029 73.0108C215.029 73.0111 215.029 73.0114 215.028 73.0117C215.028 73.012 215.028 73.0122 215.027 73.0125C215.027 73.0128 215.027 73.0131 215.026 73.0134C215.026 73.0137 215.026 73.0139 215.025 73.0142C215.025 73.0145 215.025 73.0148 215.024 73.0151C215.024 73.0154 215.024 73.0156 215.023 73.0159C215.023 73.0162 215.022 73.0165 215.022 73.0168C215.022 73.0171 215.021 73.0173 215.021 73.0176C215.021 73.0179 215.02 73.0182 215.02 73.0185C215.02 73.0187 215.019 73.019 215.019 73.0193C215.019 73.0196 215.018 73.0199 215.018 73.0202C215.018 73.0205 215.017 73.0207 215.017 73.021C215.017 73.0213 215.016 73.0216 215.016 73.0219C215.016 73.0222 215.015 73.0224 215.015 73.0227C215.015 73.023 215.014 73.0233 215.014 73.0236C215.013 73.0239 215.013 73.0241 215.013 73.0244C215.012 73.0247 215.012 73.025 215.012 73.0253C215.011 73.0256 215.011 73.0259 215.011 73.0261C215.01 73.0264 215.01 73.0267 215.01 73.027C215.009 73.0273 215.009 73.0276 215.009 73.0279C215.008 73.0281 215.008 73.0284 215.008 73.0287C215.007 73.029 215.007 73.0293 215.007 73.0296C215.006 73.0299 215.006 73.0301 215.005 73.0304C215.005 73.0307 215.005 73.031 215.004 73.0313C215.004 73.0316 215.004 73.0319 215.003 73.0321C215.003 73.0324 215.003 73.0327 215.002 73.033C215.002 73.0333 215.002 73.0336 215.001 73.0339C215.001 73.0342 215.001 73.0344 215 73.0347C215 73.035 215 73.0353 214.999 73.0356C214.999 73.0359 214.998 73.0362 214.998 73.0364C214.998 73.0367 214.997 73.037 214.997 73.0373C214.997 73.0376 214.996 73.0379 214.996 73.0382C214.996 73.0385 214.995 73.0388 214.995 73.039C214.995 73.0393 214.994 73.0396 214.994 73.0399C214.994 73.0402 214.993 73.0405 214.993 73.0408C214.993 73.0411 214.992 73.0413 214.992 73.0416C214.991 73.0419 214.991 73.0422 214.991 73.0425C214.99 73.0428 214.99 73.0431 214.99 73.0434C214.989 73.0437 214.989 73.0439 214.989 73.0442C214.988 73.0445 214.988 73.0448 214.988 73.0451C214.987 73.0454 214.987 73.0457 214.987 73.046C214.986 73.0463 214.986 73.0465 214.985 73.0468C214.985 73.0471 214.985 73.0474 214.984 73.0477C214.984 73.048 214.984 73.0483 214.983 73.0486C214.983 73.0489 214.983 73.0492 214.982 73.0494C214.982 73.0497 214.982 73.05 214.981 73.0503C214.981 73.0506 214.98 73.0509 214.98 73.0512C214.98 73.0515 214.979 73.0518 214.979 73.0521C214.979 73.0524 214.978 73.0526 214.978 73.0529C214.978 73.0532 214.977 73.0535 214.977 73.0538C214.977 73.0541 214.976 73.0544 214.976 73.0547C214.976 73.055 214.975 73.0553 214.975 73.0556C214.974 73.0559 214.974 73.0561 214.974 73.0564C214.973 73.0567 214.973 73.057 214.973 73.0573C214.972 73.0576 214.972 73.0579 214.972 73.0582C214.971 73.0585 214.971 73.0588 214.971 73.0591C214.97 73.0594 214.97 73.0597 214.969 73.0599C214.969 73.0602 214.969 73.0605 214.968 73.0608C214.968 73.0611 214.968 73.0614 214.967 73.0617C214.967 73.062 214.967 73.0623 214.966 73.0626C214.966 73.0629 214.966 73.0632 214.965 73.0635C214.965 73.0638 214.964 73.064 214.964 73.0643C214.964 73.0646 214.963 73.0649 214.963 73.0652C214.963 73.0655 214.962 73.0658 214.962 73.0661C214.962 73.0664 214.961 73.0667 214.961 73.067C214.961 73.0673 214.96 73.0676 214.96 73.0679C214.959 73.0682 214.959 73.0685 214.959 73.0688C214.958 73.069 214.958 73.0693 214.958 73.0696C214.957 73.0699 214.957 73.0702 214.957 73.0705C214.956 73.0708 214.956 73.0711 214.955 73.0714C214.955 73.0717 214.955 73.072 214.954 73.0723C214.954 73.0726 214.954 73.0729 214.953 73.0732C214.953 73.0735 214.953 73.0738 214.952 73.0741C214.952 73.0744 214.952 73.0747 214.951 73.075C214.951 73.0753 214.95 73.0755 214.95 73.0758C214.95 73.0761 214.949 73.0764 214.949 73.0767C214.949 73.077 214.948 73.0773 214.948 73.0776C214.948 73.0779 214.947 73.0782 214.947 73.0785C214.946 73.0788 214.946 73.0791 214.946 73.0794C214.945 73.0797 214.945 73.08 214.945 73.0803C214.944 73.0806 214.944 73.0809 214.944 73.0812C214.943 73.0815 214.943 73.0818 214.942 73.0821C214.942 73.0824 214.942 73.0827 214.941 73.083C214.941 73.0833 214.941 73.0836 214.94 73.0839C214.94 73.0842 214.94 73.0845 214.939 73.0848C214.939 73.0851 214.938 73.0854 214.938 73.0857C214.938 73.0859 214.937 73.0862 214.937 73.0865C214.937 73.0868 214.936 73.0871 214.936 73.0874C214.936 73.0877 214.935 73.088 214.935 73.0883C214.934 73.0886 214.934 73.0889 214.934 73.0892C214.933 73.0895 214.933 73.0898 214.933 73.0901C214.932 73.0904 214.932 73.0907 214.932 73.091C214.931 73.0913 214.931 73.0916 214.93 73.0919C214.93 73.0922 214.93 73.0925 214.929 73.0928C214.929 73.0931 214.929 73.0934 214.928 73.0937C214.928 73.094 214.928 73.0943 214.927 73.0946C214.927 73.0949 214.926 73.0952 214.926 73.0955C214.926 73.0958 214.925 73.0961 214.925 73.0964C214.925 73.0967 214.924 73.097 214.924 73.0973C214.923 73.0976 214.923 73.0979 214.923 73.0982C214.922 73.0985 214.922 73.0988 214.922 73.0991C214.921 73.0994 214.921 73.0997 214.921 73.1C214.92 73.1003 214.92 73.1006 214.919 73.1009C214.919 73.1012 214.919 73.1016 214.918 73.1019C214.918 73.1022 214.918 73.1025 214.917 73.1028C214.917 73.1031 214.916 73.1034 214.916 73.1037C214.916 73.104 214.915 73.1043 214.915 73.1046C214.915 73.1049 214.914 73.1052 214.914 73.1055C214.914 73.1058 214.913 73.1061 214.913 73.1064C214.912 73.1067 214.912 73.107 214.912 73.1073C214.911 73.1076 214.911 73.1079 214.911 73.1082C214.91 73.1085 214.91 73.1088 214.909 73.1091C214.909 73.1094 214.909 73.1097 214.908 73.11C214.908 73.1103 214.908 73.1106 214.907 73.1109C214.907 73.1112 214.907 73.1115 214.906 73.1118C214.906 73.1122 214.905 73.1125 214.905 73.1128C214.905 73.1131 214.904 73.1134 214.904 73.1137C214.904 73.114 214.903 73.1143 214.903 73.1146C214.902 73.1149 214.902 73.1152 214.902 73.1155C214.901 73.1158 214.901 73.1161 214.901 73.1164C214.9 73.1167 214.9 73.117 214.899 73.1173C214.899 73.1176 214.899 73.1179 214.898 73.1182C214.898 73.1185 214.898 73.1189 214.897 73.1192C214.897 73.1195 214.896 73.1198 214.896 73.1201C214.896 73.1204 214.895 73.1207 214.895 73.121C214.895 73.1213 214.894 73.1216 214.894 73.1219C214.893 73.1222 214.893 73.1225 214.893 73.1228C214.892 73.1231 214.892 73.1234 214.892 73.1237C214.891 73.1241 214.891 73.1244 214.89 73.1247C214.89 73.125 214.89 73.1253 214.889 73.1256C214.889 73.1259 214.889 73.1262 214.888 73.1265C214.888 73.1268 214.887 73.1271 214.887 73.1274C214.887 73.1277 214.886 73.128 214.886 73.1284C214.886 73.1287 214.885 73.129 214.885 73.1293C214.884 73.1296 214.884 73.1299 214.884 73.1302C214.883 73.1305 214.883 73.1308 214.883 73.1311C214.882 73.1314 214.882 73.1317 214.881 73.132C214.881 73.1324 214.881 73.1327 214.88 73.133C214.88 73.1333 214.88 73.1336 214.879 73.1339C214.879 73.1342 214.878 73.1345 214.878 73.1348C214.878 73.1351 214.877 73.1354 214.877 73.1357C214.877 73.1361 214.876 73.1364 214.876 73.1367C214.875 73.137 214.875 73.1373 214.875 73.1376C214.874 73.1379 214.874 73.1382 214.874 73.1385C214.873 73.1388 214.873 73.1391 214.872 73.1395C214.872 73.1398 214.872 73.1401 214.871 73.1404C214.871 73.1407 214.871 73.141 214.87 73.1413C214.87 73.1416 214.869 73.1419 214.869 73.1422C214.869 73.1426 214.868 73.1429 214.868 73.1432C214.868 73.1435 214.867 73.1438 214.867 73.1441C214.866 73.1444 214.866 73.1447 214.866 73.145C214.865 73.1454 214.865 73.1457 214.864 73.146C214.864 73.1463 214.864 73.1466 214.863 73.1469C214.863 73.1472 214.863 73.1475 214.862 73.1478C214.862 73.1482 214.861 73.1485 214.861 73.1488C214.861 73.1491 214.86 73.1494 214.86 73.1497C214.86 73.15 214.859 73.1503 214.859 73.1506C214.858 73.151 214.858 73.1513 214.858 73.1516C214.857 73.1519 214.857 73.1522 214.856 73.1525C214.856 73.1528 214.856 73.1531 214.855 73.1535C214.855 73.1538 214.855 73.1541 214.854 73.1544C214.854 73.1547 214.853 73.155 214.853 73.1553C214.853 73.1557 214.852 73.156 214.852 73.1563C214.852 73.1566 214.851 73.1569 214.851 73.1572C214.85 73.1575 214.85 73.1578 214.85 73.1582C214.849 73.1585 214.849 73.1588 214.848 73.1591C214.848 73.1594 214.848 73.1597 214.847 73.16C214.847 73.1604 214.847 73.1607 214.846 73.161C214.846 73.1613 214.845 73.1616 214.845 73.1619C214.845 73.1622 214.844 73.1626 214.844 73.1629C214.843 73.1632 214.843 73.1635 214.843 73.1638C214.842 73.1641 214.842 73.1644 214.842 73.1648C214.841 73.1651 214.841 73.1654 214.84 73.1657C214.84 73.166 214.84 73.1663 214.839 73.1666C214.839 73.167 214.838 73.1673 214.838 73.1676C214.838 73.1679 214.837 73.1682 214.837 73.1685C214.837 73.1689 214.836 73.1692 214.836 73.1695C214.835 73.1698 214.835 73.1701 214.835 73.1704C214.834 73.1708 214.834 73.1711 214.833 73.1714C214.833 73.1717 214.833 73.172 214.832 73.1723C214.832 73.1726 214.832 73.173 214.831 73.1733C214.831 73.1736 214.83 73.1739 214.83 73.1742C214.83 73.1746 214.829 73.1749 214.829 73.1752C214.828 73.1755 214.828 73.1758 214.828 73.1761C214.827 73.1765 214.827 73.1768 214.827 73.1771C214.826 73.1774 214.826 73.1777 214.825 73.178C214.825 73.1784 214.825 73.1787 214.824 73.179C214.824 73.1793 214.823 73.1796 214.823 73.1799C214.823 73.1803 214.822 73.1806 214.822 73.1809C214.821 73.1812 214.821 73.1815 214.821 73.1819C214.82 73.1822 214.82 73.1825 214.82 73.1828C214.819 73.1831 214.819 73.1834 214.818 73.1838C214.818 73.1841 214.818 73.1844 214.817 73.1847C214.817 73.185 214.816 73.1854 214.816 73.1857C214.816 73.186 214.815 73.1863 214.815 73.1866C214.814 73.187 214.814 73.1873 214.814 73.1876C214.813 73.1879 214.813 73.1882 214.813 73.1886C214.812 73.1889 214.812 73.1892 214.811 73.1895C214.811 73.1898 214.811 73.1902 214.81 73.1905C214.81 73.1908 214.809 73.1911 214.809 73.1914C214.809 73.1918 214.808 73.1921 214.808 73.1924C214.807 73.1927 214.807 73.193 214.807 73.1934C214.806 73.1937 214.806 73.194 214.805 73.1943C214.805 73.1946 214.805 73.195 214.804 73.1953C214.804 73.1956 214.804 73.1959 214.803 73.1963C214.803 73.1966 214.802 73.1969 214.802 73.1972C214.802 73.1975 214.801 73.1979 214.801 73.1982C214.8 73.1985 214.8 73.1988 214.8 73.1991C214.799 73.1995 214.799 73.1998 214.798 73.2001C214.798 73.2004 214.798 73.2008 214.797 73.2011C214.797 73.2014 214.796 73.2017 214.796 73.202C214.796 73.2024 214.795 73.2027 214.795 73.203C214.794 73.2033 214.794 73.2037 214.794 73.204C214.793 73.2043 214.793 73.2046 214.793 73.2049C214.792 73.2053 214.792 73.2056 214.791 73.2059C214.791 73.2062 214.791 73.2066 214.79 73.2069C214.79 73.2072 214.789 73.2075 214.789 73.2079C214.789 73.2082 214.788 73.2085 214.788 73.2088C214.787 73.2092 214.787 73.2095 214.787 73.2098C214.786 73.2101 214.786 73.2105 214.785 73.2108C214.785 73.2111 214.785 73.2114 214.784 73.2117C214.784 73.2121 214.783 73.2124 214.783 73.2127C214.783 73.213 214.782 73.2134 214.782 73.2137C214.781 73.214 214.781 73.2143 214.781 73.2147C214.78 73.215 214.78 73.2153 214.779 73.2156C214.779 73.216 214.779 73.2163 214.778 73.2166C214.778 73.2169 214.777 73.2173 214.777 73.2176C214.777 73.2179 214.776 73.2182 214.776 73.2186C214.776 73.2189 214.775 73.2192 214.775 73.2196C214.774 73.2199 214.774 73.2202 214.774 73.2205C214.773 73.2209 214.773 73.2212 214.772 73.2215C214.772 73.2218 214.772 73.2222 214.771 73.2225C214.771 73.2228 214.77 73.2231 214.77 73.2235C214.77 73.2238 214.769 73.2241 214.769 73.2244C214.768 73.2248 214.768 73.2251 214.768 73.2254C214.767 73.2258 214.767 73.2261 214.766 73.2264C214.766 73.2267 214.766 73.2271 214.765 73.2274C214.765 73.2277 214.764 73.228 214.764 73.2284C214.764 73.2287 214.763 73.229 214.763 73.2294C214.762 73.2297 214.762 73.23 214.762 73.2303C214.761 73.2307 214.761 73.231 214.76 73.2313C214.76 73.2317 214.76 73.232 214.759 73.2323C214.759 73.2326 214.758 73.233 214.758 73.2333C214.758 73.2336 214.757 73.234 214.757 73.2343C214.756 73.2346 214.756 73.2349 214.756 73.2353C214.755 73.2356 214.755 73.2359 214.754 73.2363C214.754 73.2366 214.754 73.2369 214.753 73.2372C214.753 73.2376 214.752 73.2379 214.752 73.2382C214.752 73.2386 214.751 73.2389 214.751 73.2392C214.75 73.2396 214.75 73.2399 214.75 73.2402C214.749 73.2405 214.749 73.2409 214.748 73.2412C214.748 73.2415 214.747 73.2419 214.747 73.2422C214.747 73.2425 214.746 73.2429 214.746 73.2432C214.745 73.2435 214.745 73.2438 214.745 73.2442C214.744 73.2445 214.744 73.2448 214.743 73.2452C214.743 73.2455 214.743 73.2458 214.742 73.2462C214.742 73.2465 214.741 73.2468 214.741 73.2472C214.741 73.2475 214.74 73.2478 214.74 73.2482C214.739 73.2485 214.739 73.2488 214.739 73.2491C214.738 73.2495 214.738 73.2498 214.737 73.2501C214.737 73.2505 214.737 73.2508 214.736 73.2511C214.736 73.2515 214.735 73.2518 214.735 73.2521C214.735 73.2525 214.734 73.2528 214.734 73.2531C214.733 73.2535 214.733 73.2538 214.733 73.2541C214.732 73.2545 214.732 73.2548 214.731 73.2551C214.731 73.2555 214.73 73.2558 214.73 73.2561C214.73 73.2565 214.729 73.2568 214.729 73.2571C214.728 73.2575 214.728 73.2578 214.728 73.2581C214.727 73.2585 214.727 73.2588 214.726 73.2591C214.726 73.2595 214.726 73.2598 214.725 73.2601C214.725 73.2605 214.724 73.2608 214.724 73.2611C214.724 73.2615 214.723 73.2618 214.723 73.2621C214.722 73.2625 214.722 73.2628 214.722 73.2631C214.721 73.2635 214.721 73.2638 214.72 73.2641C214.72 73.2645 214.719 73.2648 214.719 73.2651C214.719 73.2655 214.718 73.2658 214.718 73.2662C214.717 73.2665 214.717 73.2668 214.717 73.2672C214.716 73.2675 214.716 73.2678 214.715 73.2682C214.715 73.2685 214.715 73.2688 214.714 73.2692C214.714 73.2695 214.713 73.2698 214.713 73.2702C214.713 73.2705 214.712 73.2708 214.712 73.2712C214.711 73.2715 214.711 73.2719 214.71 73.2722C214.71 73.2725 214.71 73.2729 214.709 73.2732C214.709 73.2735 214.708 73.2739 214.708 73.2742C214.708 73.2745 214.707 73.2749 214.707 73.2752C214.706 73.2756 214.706 73.2759 214.706 73.2762C214.705 73.2766 214.705 73.2769 214.704 73.2772C214.704 73.2776 214.703 73.2779 214.703 73.2783C214.703 73.2786 214.702 73.2789 214.702 73.2793C214.701 73.2796 214.701 73.2799 214.701 73.2803C214.7 73.2806 214.7 73.281 214.699 73.2813C214.699 73.2816 214.699 73.282 214.698 73.2823C214.698 73.2826 214.697 73.283 214.697 73.2833C214.696 73.2837 214.696 73.284 214.696 73.2843C214.695 73.2847 214.695 73.285 214.694 73.2854C214.694 73.2857 214.694 73.286 214.693 73.2864C214.693 73.2867 214.692 73.287 214.692 73.2874C214.692 73.2877 214.691 73.2881 214.691 73.2884C214.69 73.2887 214.69 73.2891 214.689 73.2894C214.689 73.2898 214.689 73.2901 214.688 73.2904C214.688 73.2908 214.687 73.2911 214.687 73.2915C214.687 73.2918 214.686 73.2921 214.686 73.2925C214.685 73.2928 214.685 73.2932 214.684 73.2935C214.684 73.2938 214.684 73.2942 214.683 73.2945C214.683 73.2949 214.682 73.2952 214.682 73.2955C214.682 73.2959 214.681 73.2962 214.681 73.2966C214.68 73.2969 214.68 73.2972 214.679 73.2976C214.679 73.2979 214.679 73.2983 214.678 73.2986C214.678 73.299 214.677 73.2993 214.677 73.2996C214.677 73.3 214.676 73.3003 214.676 73.3007C214.675 73.301 214.675 73.3013 214.674 73.3017C214.674 73.302 214.674 73.3024 214.673 73.3027C214.673 73.3031 214.672 73.3034 214.672 73.3037C214.672 73.3041 214.671 73.3044 214.671 73.3048C214.67 73.3051 214.67 73.3055 214.669 73.3058C214.669 73.3061 214.669 73.3065 214.668 73.3068C214.668 73.3072 214.667 73.3075 214.667 73.3079C214.667 73.3082 214.666 73.3085 214.666 73.3089C214.665 73.3092 214.665 73.3096 214.664 73.3099C214.664 73.3103 214.664 73.3106 214.663 73.3109C214.663 73.3113 214.662 73.3116 214.662 73.312C214.662 73.3123 214.661 73.3127 214.661 73.313C214.66 73.3133 214.66 73.3137 214.659 73.314C214.659 73.3144 214.659 73.3147 214.658 73.3151C214.658 73.3154 214.657 73.3158 214.657 73.3161C214.656 73.3164 214.656 73.3168 214.656 73.3171C214.655 73.3175 214.655 73.3178 214.654 73.3182C214.654 73.3185 214.654 73.3189 214.653 73.3192C214.653 73.3195 214.652 73.3199 214.652 73.3202C214.651 73.3206 214.651 73.3209 214.651 73.3213C214.65 73.3216 214.65 73.322 214.649 73.3223C214.649 73.3227 214.648 73.323 214.648 73.3233C214.648 73.3237 214.647 73.324 214.647 73.3244C214.646 73.3247 214.646 73.3251 214.646 73.3254C214.645 73.3258 214.645 73.3261 214.644 73.3265C214.644 73.3268 214.643 73.3272 214.643 73.3275C214.643 73.3279 214.642 73.3282 214.642 73.3285C214.641 73.3289 214.641 73.3292 214.64 73.3296C214.64 73.3299 214.64 73.3303 214.639 73.3306C214.639 73.331 214.638 73.3313 214.638 73.3317C214.637 73.332 214.637 73.3324 214.637 73.3327C214.636 73.3331 214.636 73.3334 214.635 73.3338C214.635 73.3341 214.635 73.3345 214.634 73.3348C214.634 73.3351 214.633 73.3355 214.633 73.3358C214.632 73.3362 214.632 73.3365 214.632 73.3369C214.631 73.3372 214.631 73.3376 214.63 73.3379C214.63 73.3383 214.629 73.3386 214.629 73.339C214.629 73.3393 214.628 73.3397 214.628 73.34C214.627 73.3404 214.627 73.3407 214.626 73.3411C214.626 73.3414 214.626 73.3418 214.625 73.3421C214.625 73.3425 214.624 73.3428 214.624 73.3432C214.623 73.3435 214.623 73.3439 214.623 73.3442C214.622 73.3446 214.622 73.3449 214.621 73.3453C214.621 73.3456 214.62 73.346 214.62 73.3463C214.62 73.3467 214.619 73.347 214.619 73.3474C214.618 73.3477 214.618 73.3481 214.617 73.3484C214.617 73.3488 214.617 73.3491 214.616 73.3495C214.616 73.3498 214.615 73.3502 214.615 73.3505C214.614 73.3509 214.614 73.3512 214.614 73.3516C214.613 73.3519 214.613 73.3523 214.612 73.3526C214.612 73.353 214.611 73.3533 214.611 73.3537C214.611 73.354 214.61 73.3544 214.61 73.3547C214.609 73.3551 214.609 73.3554 214.608 73.3558C214.608 73.3561 214.608 73.3565 214.607 73.3569C214.607 73.3572 214.606 73.3576 214.606 73.3579C214.605 73.3583 214.605 73.3586 214.605 73.359C214.604 73.3593 214.604 73.3597 214.603 73.36C214.603 73.3604 214.602 73.3607 214.602 73.3611C214.602 73.3614 214.601 73.3618 214.601 73.3621C214.6 73.3625 214.6 73.3628 214.599 73.3632C214.599 73.3636 214.599 73.3639 214.598 73.3643C214.598 73.3646 214.597 73.365 214.597 73.3653C214.596 73.3657 214.596 73.366 214.596 73.3664C214.595 73.3667 214.595 73.3671 214.594 73.3674C214.594 73.3678 214.593 73.3682 214.593 73.3685C214.593 73.3689 214.592 73.3692 214.592 73.3696C214.591 73.3699 214.591 73.3703 214.59 73.3706C214.59 73.371 214.59 73.3713 214.589 73.3717C214.589 73.372 214.588 73.3724 214.588 73.3728C214.587 73.3731 214.587 73.3735 214.586 73.3738C214.586 73.3742 214.586 73.3745 214.585 73.3749C214.585 73.3752 214.584 73.3756 214.584 73.376C214.583 73.3763 214.583 73.3767 214.583 73.377C214.582 73.3774 214.582 73.3777 214.581 73.3781C214.581 73.3784 214.58 73.3788 214.58 73.3792C214.58 73.3795 214.579 73.3799 214.579 73.3802C214.578 73.3806 214.578 73.3809 214.577 73.3813C214.577 73.3817 214.576 73.382 214.576 73.3824C214.576 73.3827 214.575 73.3831 214.575 73.3834C214.574 73.3838 214.574 73.3842 214.573 73.3845C214.573 73.3849 214.573 73.3852 214.572 73.3856C214.572 73.3859 214.571 73.3863 214.571 73.3867C214.57 73.387 214.57 73.3874 214.57 73.3877C214.569 73.3881 214.569 73.3884 214.568 73.3888C214.568 73.3892 214.567 73.3895 214.567 73.3899C214.566 73.3902 214.566 73.3906 214.566 73.3909C214.565 73.3913 214.565 73.3917 214.564 73.392C214.564 73.3924 214.563 73.3927 214.563 73.3931C214.563 73.3935 214.562 73.3938 214.562 73.3942C214.561 73.3945 214.561 73.3949 214.56 73.3953C214.56 73.3956 214.559 73.396 214.559 73.3963C214.559 73.3967 214.558 73.397 214.558 73.3974C214.557 73.3978 214.557 73.3981 214.556 73.3985C214.556 73.3988 214.556 73.3992 214.555 73.3996C214.555 73.3999 214.554 73.4003 214.554 73.4006C214.553 73.401 214.553 73.4014 214.552 73.4017C214.552 73.4021 214.552 73.4024 214.551 73.4028C214.551 73.4032 214.55 73.4035 214.55 73.4039C214.549 73.4042 214.549 73.4046 214.548 73.405C214.548 73.4053 214.548 73.4057 214.547 73.4061C214.547 73.4064 214.546 73.4068 214.546 73.4071C214.545 73.4075 214.545 73.4079 214.545 73.4082C214.544 73.4086 214.544 73.4089 214.543 73.4093C214.543 73.4097 214.542 73.41 214.542 73.4104C214.541 73.4107 214.541 73.4111 214.541 73.4115C214.54 73.4118 214.54 73.4122 214.539 73.4126C214.539 73.4129 214.538 73.4133 214.538 73.4136C214.537 73.414 214.537 73.4144 214.537 73.4147C214.536 73.4151 214.536 73.4155 214.535 73.4158C214.535 73.4162 214.534 73.4165 214.534 73.4169C214.533 73.4173 214.533 73.4176 214.533 73.418C214.532 73.4184 214.532 73.4187 214.531 73.4191C214.531 73.4195 214.53 73.4198 214.53 73.4202C214.529 73.4205 214.529 73.4209 214.529 73.4213C214.528 73.4216 214.528 73.422 214.527 73.4224C214.527 73.4227 214.526 73.4231 214.526 73.4235C214.525 73.4238 214.525 73.4242 214.525 73.4245C214.524 73.4249 214.524 73.4253 214.523 73.4256C214.523 73.426 214.522 73.4264 214.522 73.4267C214.521 73.4271 214.521 73.4275 214.521 73.4278C214.52 73.4282 214.52 73.4286 214.519 73.4289C214.519 73.4293 214.518 73.4296 214.518 73.43C214.517 73.4304 214.517 73.4307 214.517 73.4311C214.516 73.4315 214.516 73.4318 214.515 73.4322C214.515 73.4326 214.514 73.4329 214.514 73.4333C214.513 73.4337 214.513 73.434 214.513 73.4344C214.512 73.4348 214.512 73.4351 214.511 73.4355C214.511 73.4359 214.51 73.4362 214.51 73.4366C214.509 73.437 214.509 73.4373 214.509 73.4377C214.508 73.4381 214.508 73.4384 214.507 73.4388C214.507 73.4392 214.506 73.4395 214.506 73.4399C214.505 73.4403 214.505 73.4406 214.505 73.441C214.504 73.4414 214.504 73.4417 214.503 73.4421C214.503 73.4425 214.502 73.4428 214.502 73.4432C214.501 73.4436 214.501 73.4439 214.5 73.4443C214.5 73.4447 214.5 73.445 214.499 73.4454C214.499 73.4458 214.498 73.4461 214.498 73.4465C214.497 73.4469 214.497 73.4473 214.496 73.4476C214.496 73.448 214.496 73.4484 214.495 73.4487C214.495 73.4491 214.494 73.4495 214.494 73.4498C214.493 73.4502 214.493 73.4506 214.492 73.4509C214.492 73.4513 214.491 73.4517 214.491 73.452C214.491 73.4524 214.49 73.4528 214.49 73.4532C214.489 73.4535 214.489 73.4539 214.488 73.4543C214.488 73.4546 214.487 73.455 214.487 73.4554C214.487 73.4557 214.486 73.4561 214.486 73.4565C214.485 73.4568 214.485 73.4572 214.484 73.4576C214.484 73.458 214.483 73.4583 214.483 73.4587C214.482 73.4591 214.482 73.4594 214.482 73.4598C214.481 73.4602 214.481 73.4606 214.48 73.4609C214.48 73.4613 214.479 73.4617 214.479 73.462C214.478 73.4624 214.478 73.4628 214.477 73.4631C214.477 73.4635 214.477 73.4639 214.476 73.4643C214.476 73.4646 214.475 73.465 214.475 73.4654L215.769 74.9902C215.769 74.9898 215.77 74.9894 215.77 74.9891C215.771 74.9887 215.771 74.9883 215.772 74.988C215.772 74.9876 215.773 74.9872 215.773 74.9868C215.774 74.9865 215.774 74.9861 215.774 74.9857C215.775 74.9854 215.775 74.985 215.776 74.9846C215.776 74.9842 215.777 74.9839 215.777 74.9835C215.778 74.9831 215.778 74.9828 215.778 74.9824C215.779 74.982 215.779 74.9817 215.78 74.9813C215.78 74.9809 215.781 74.9805 215.781 74.9802C215.782 74.9798 215.782 74.9794 215.783 74.9791C215.783 74.9787 215.783 74.9783 215.784 74.978C215.784 74.9776 215.785 74.9772 215.785 74.9769C215.786 74.9765 215.786 74.9761 215.787 74.9757C215.787 74.9754 215.787 74.975 215.788 74.9746C215.788 74.9743 215.789 74.9739 215.789 74.9735C215.79 74.9732 215.79 74.9728 215.791 74.9724C215.791 74.9721 215.792 74.9717 215.792 74.9713C215.792 74.971 215.793 74.9706 215.793 74.9702C215.794 74.9698 215.794 74.9695 215.795 74.9691C215.795 74.9687 215.796 74.9684 215.796 74.968C215.796 74.9676 215.797 74.9673 215.797 74.9669C215.798 74.9665 215.798 74.9662 215.799 74.9658C215.799 74.9654 215.8 74.9651 215.8 74.9647C215.801 74.9643 215.801 74.964 215.801 74.9636C215.802 74.9632 215.802 74.9629 215.803 74.9625C215.803 74.9621 215.804 74.9618 215.804 74.9614C215.805 74.961 215.805 74.9607 215.805 74.9603C215.806 74.9599 215.806 74.9596 215.807 74.9592C215.807 74.9588 215.808 74.9585 215.808 74.9581C215.809 74.9577 215.809 74.9574 215.809 74.957C215.81 74.9566 215.81 74.9563 215.811 74.9559C215.811 74.9556 215.812 74.9552 215.812 74.9548C215.813 74.9545 215.813 74.9541 215.813 74.9537C215.814 74.9534 215.814 74.953 215.815 74.9526C215.815 74.9523 215.816 74.9519 215.816 74.9515C215.817 74.9512 215.817 74.9508 215.817 74.9504C215.818 74.9501 215.818 74.9497 215.819 74.9494C215.819 74.949 215.82 74.9486 215.82 74.9483C215.821 74.9479 215.821 74.9475 215.821 74.9472C215.822 74.9468 215.822 74.9464 215.823 74.9461C215.823 74.9457 215.824 74.9453 215.824 74.945C215.825 74.9446 215.825 74.9443 215.825 74.9439C215.826 74.9435 215.826 74.9432 215.827 74.9428C215.827 74.9424 215.828 74.9421 215.828 74.9417C215.829 74.9414 215.829 74.941 215.829 74.9406C215.83 74.9403 215.83 74.9399 215.831 74.9395C215.831 74.9392 215.832 74.9388 215.832 74.9385C215.833 74.9381 215.833 74.9377 215.833 74.9374C215.834 74.937 215.834 74.9366 215.835 74.9363C215.835 74.9359 215.836 74.9356 215.836 74.9352C215.837 74.9348 215.837 74.9345 215.837 74.9341C215.838 74.9337 215.838 74.9334 215.839 74.933C215.839 74.9327 215.84 74.9323 215.84 74.9319C215.84 74.9316 215.841 74.9312 215.841 74.9309C215.842 74.9305 215.842 74.9301 215.843 74.9298C215.843 74.9294 215.844 74.9291 215.844 74.9287C215.844 74.9283 215.845 74.928 215.845 74.9276C215.846 74.9273 215.846 74.9269 215.847 74.9265C215.847 74.9262 215.848 74.9258 215.848 74.9255C215.848 74.9251 215.849 74.9247 215.849 74.9244C215.85 74.924 215.85 74.9237 215.851 74.9233C215.851 74.9229 215.851 74.9226 215.852 74.9222C215.852 74.9219 215.853 74.9215 215.853 74.9211C215.854 74.9208 215.854 74.9204 215.855 74.9201C215.855 74.9197 215.855 74.9193 215.856 74.919C215.856 74.9186 215.857 74.9183 215.857 74.9179C215.858 74.9175 215.858 74.9172 215.858 74.9168C215.859 74.9165 215.859 74.9161 215.86 74.9158C215.86 74.9154 215.861 74.915 215.861 74.9147C215.862 74.9143 215.862 74.914 215.862 74.9136C215.863 74.9132 215.863 74.9129 215.864 74.9125C215.864 74.9122 215.865 74.9118 215.865 74.9115C215.865 74.9111 215.866 74.9107 215.866 74.9104C215.867 74.91 215.867 74.9097 215.868 74.9093C215.868 74.909 215.869 74.9086 215.869 74.9082C215.869 74.9079 215.87 74.9075 215.87 74.9072C215.871 74.9068 215.871 74.9065 215.872 74.9061C215.872 74.9057 215.872 74.9054 215.873 74.905C215.873 74.9047 215.874 74.9043 215.874 74.904C215.875 74.9036 215.875 74.9033 215.875 74.9029C215.876 74.9025 215.876 74.9022 215.877 74.9018C215.877 74.9015 215.878 74.9011 215.878 74.9008C215.879 74.9004 215.879 74.9001 215.879 74.8997C215.88 74.8993 215.88 74.899 215.881 74.8986C215.881 74.8983 215.882 74.8979 215.882 74.8976C215.882 74.8972 215.883 74.8969 215.883 74.8965C215.884 74.8961 215.884 74.8958 215.885 74.8954C215.885 74.8951 215.885 74.8947 215.886 74.8944C215.886 74.894 215.887 74.8937 215.887 74.8933C215.888 74.893 215.888 74.8926 215.888 74.8922C215.889 74.8919 215.889 74.8915 215.89 74.8912C215.89 74.8908 215.891 74.8905 215.891 74.8901C215.891 74.8898 215.892 74.8894 215.892 74.8891C215.893 74.8887 215.893 74.8884 215.894 74.888C215.894 74.8877 215.895 74.8873 215.895 74.8869C215.895 74.8866 215.896 74.8862 215.896 74.8859C215.897 74.8855 215.897 74.8852 215.898 74.8848C215.898 74.8845 215.898 74.8841 215.899 74.8838C215.899 74.8834 215.9 74.8831 215.9 74.8827C215.901 74.8824 215.901 74.882 215.901 74.8817C215.902 74.8813 215.902 74.881 215.903 74.8806C215.903 74.8803 215.904 74.8799 215.904 74.8795C215.904 74.8792 215.905 74.8788 215.905 74.8785C215.906 74.8781 215.906 74.8778 215.907 74.8774C215.907 74.8771 215.907 74.8767 215.908 74.8764C215.908 74.876 215.909 74.8757 215.909 74.8753C215.91 74.875 215.91 74.8746 215.91 74.8743C215.911 74.8739 215.911 74.8736 215.912 74.8732C215.912 74.8729 215.913 74.8725 215.913 74.8722C215.913 74.8718 215.914 74.8715 215.914 74.8711C215.915 74.8708 215.915 74.8704 215.916 74.8701C215.916 74.8697 215.916 74.8694 215.917 74.869C215.917 74.8687 215.918 74.8683 215.918 74.868C215.919 74.8676 215.919 74.8673 215.919 74.8669C215.92 74.8666 215.92 74.8662 215.921 74.8659C215.921 74.8655 215.921 74.8652 215.922 74.8648C215.922 74.8645 215.923 74.8641 215.923 74.8638C215.924 74.8634 215.924 74.8631 215.924 74.8627C215.925 74.8624 215.925 74.862 215.926 74.8617C215.926 74.8613 215.927 74.861 215.927 74.8606C215.927 74.8603 215.928 74.86 215.928 74.8596C215.929 74.8593 215.929 74.8589 215.93 74.8586C215.93 74.8582 215.93 74.8579 215.931 74.8575C215.931 74.8572 215.932 74.8568 215.932 74.8565C215.933 74.8561 215.933 74.8558 215.933 74.8554C215.934 74.8551 215.934 74.8547 215.935 74.8544C215.935 74.854 215.936 74.8537 215.936 74.8534C215.936 74.853 215.937 74.8527 215.937 74.8523C215.938 74.852 215.938 74.8516 215.938 74.8513C215.939 74.8509 215.939 74.8506 215.94 74.8502C215.94 74.8499 215.941 74.8495 215.941 74.8492C215.941 74.8488 215.942 74.8485 215.942 74.8482C215.943 74.8478 215.943 74.8475 215.944 74.8471C215.944 74.8468 215.944 74.8464 215.945 74.8461C215.945 74.8457 215.946 74.8454 215.946 74.845C215.946 74.8447 215.947 74.8444 215.947 74.844C215.948 74.8437 215.948 74.8433 215.949 74.843C215.949 74.8426 215.949 74.8423 215.95 74.8419C215.95 74.8416 215.951 74.8413 215.951 74.8409C215.952 74.8406 215.952 74.8402 215.952 74.8399C215.953 74.8395 215.953 74.8392 215.954 74.8388C215.954 74.8385 215.954 74.8382 215.955 74.8378C215.955 74.8375 215.956 74.8371 215.956 74.8368C215.957 74.8364 215.957 74.8361 215.957 74.8357C215.958 74.8354 215.958 74.8351 215.959 74.8347C215.959 74.8344 215.96 74.834 215.96 74.8337C215.96 74.8333 215.961 74.833 215.961 74.8327C215.962 74.8323 215.962 74.832 215.962 74.8316C215.963 74.8313 215.963 74.8309 215.964 74.8306C215.964 74.8303 215.965 74.8299 215.965 74.8296C215.965 74.8292 215.966 74.8289 215.966 74.8285C215.967 74.8282 215.967 74.8279 215.967 74.8275C215.968 74.8272 215.968 74.8268 215.969 74.8265C215.969 74.8262 215.97 74.8258 215.97 74.8255C215.97 74.8251 215.971 74.8248 215.971 74.8244C215.972 74.8241 215.972 74.8238 215.972 74.8234C215.973 74.8231 215.973 74.8227 215.974 74.8224C215.974 74.8221 215.975 74.8217 215.975 74.8214C215.975 74.821 215.976 74.8207 215.976 74.8204C215.977 74.82 215.977 74.8197 215.977 74.8193C215.978 74.819 215.978 74.8186 215.979 74.8183C215.979 74.818 215.98 74.8176 215.98 74.8173C215.98 74.8169 215.981 74.8166 215.981 74.8163C215.982 74.8159 215.982 74.8156 215.982 74.8152C215.983 74.8149 215.983 74.8146 215.984 74.8142C215.984 74.8139 215.984 74.8136 215.985 74.8132C215.985 74.8129 215.986 74.8125 215.986 74.8122C215.987 74.8119 215.987 74.8115 215.987 74.8112C215.988 74.8108 215.988 74.8105 215.989 74.8102C215.989 74.8098 215.989 74.8095 215.99 74.8091C215.99 74.8088 215.991 74.8085 215.991 74.8081C215.992 74.8078 215.992 74.8075 215.992 74.8071C215.993 74.8068 215.993 74.8064 215.994 74.8061C215.994 74.8058 215.994 74.8054 215.995 74.8051C215.995 74.8047 215.996 74.8044 215.996 74.8041C215.996 74.8037 215.997 74.8034 215.997 74.8031C215.998 74.8027 215.998 74.8024 215.999 74.8021C215.999 74.8017 215.999 74.8014 216 74.801C216 74.8007 216.001 74.8004 216.001 74.8C216.001 74.7997 216.002 74.7994 216.002 74.799C216.003 74.7987 216.003 74.7983 216.003 74.798C216.004 74.7977 216.004 74.7973 216.005 74.797C216.005 74.7967 216.006 74.7963 216.006 74.796C216.006 74.7957 216.007 74.7953 216.007 74.795C216.008 74.7946 216.008 74.7943 216.008 74.794C216.009 74.7936 216.009 74.7933 216.01 74.793C216.01 74.7926 216.01 74.7923 216.011 74.792C216.011 74.7916 216.012 74.7913 216.012 74.791C216.012 74.7906 216.013 74.7903 216.013 74.79C216.014 74.7896 216.014 74.7893 216.015 74.7889C216.015 74.7886 216.015 74.7883 216.016 74.7879C216.016 74.7876 216.017 74.7873 216.017 74.7869C216.017 74.7866 216.018 74.7863 216.018 74.7859C216.019 74.7856 216.019 74.7853 216.019 74.7849C216.02 74.7846 216.02 74.7843 216.021 74.7839C216.021 74.7836 216.021 74.7833 216.022 74.7829C216.022 74.7826 216.023 74.7823 216.023 74.7819C216.023 74.7816 216.024 74.7813 216.024 74.7809C216.025 74.7806 216.025 74.7803 216.026 74.7799C216.026 74.7796 216.026 74.7793 216.027 74.7789C216.027 74.7786 216.028 74.7783 216.028 74.7779C216.028 74.7776 216.029 74.7773 216.029 74.7769C216.03 74.7766 216.03 74.7763 216.03 74.7759C216.031 74.7756 216.031 74.7753 216.032 74.775C216.032 74.7746 216.032 74.7743 216.033 74.774C216.033 74.7736 216.034 74.7733 216.034 74.773C216.034 74.7726 216.035 74.7723 216.035 74.772C216.036 74.7716 216.036 74.7713 216.036 74.771C216.037 74.7706 216.037 74.7703 216.038 74.77C216.038 74.7696 216.038 74.7693 216.039 74.769C216.039 74.7687 216.04 74.7683 216.04 74.768C216.04 74.7677 216.041 74.7673 216.041 74.767C216.042 74.7667 216.042 74.7663 216.042 74.766C216.043 74.7657 216.043 74.7654 216.044 74.765C216.044 74.7647 216.045 74.7644 216.045 74.764C216.045 74.7637 216.046 74.7634 216.046 74.763C216.047 74.7627 216.047 74.7624 216.047 74.7621C216.048 74.7617 216.048 74.7614 216.049 74.7611C216.049 74.7607 216.049 74.7604 216.05 74.7601C216.05 74.7597 216.051 74.7594 216.051 74.7591C216.051 74.7588 216.052 74.7584 216.052 74.7581C216.053 74.7578 216.053 74.7574 216.053 74.7571C216.054 74.7568 216.054 74.7565 216.055 74.7561C216.055 74.7558 216.055 74.7555 216.056 74.7551C216.056 74.7548 216.057 74.7545 216.057 74.7542C216.057 74.7538 216.058 74.7535 216.058 74.7532C216.059 74.7529 216.059 74.7525 216.059 74.7522C216.06 74.7519 216.06 74.7515 216.061 74.7512C216.061 74.7509 216.061 74.7506 216.062 74.7502C216.062 74.7499 216.063 74.7496 216.063 74.7493C216.063 74.7489 216.064 74.7486 216.064 74.7483C216.065 74.7479 216.065 74.7476 216.065 74.7473C216.066 74.747 216.066 74.7466 216.067 74.7463C216.067 74.746 216.067 74.7457 216.068 74.7453C216.068 74.745 216.069 74.7447 216.069 74.7444C216.069 74.744 216.07 74.7437 216.07 74.7434C216.071 74.7431 216.071 74.7427 216.071 74.7424C216.072 74.7421 216.072 74.7418 216.072 74.7414C216.073 74.7411 216.073 74.7408 216.074 74.7405C216.074 74.7401 216.074 74.7398 216.075 74.7395C216.075 74.7392 216.076 74.7388 216.076 74.7385C216.076 74.7382 216.077 74.7379 216.077 74.7375C216.078 74.7372 216.078 74.7369 216.078 74.7366C216.079 74.7362 216.079 74.7359 216.08 74.7356C216.08 74.7353 216.08 74.7349 216.081 74.7346C216.081 74.7343 216.082 74.734 216.082 74.7336C216.082 74.7333 216.083 74.733 216.083 74.7327C216.084 74.7323 216.084 74.732 216.084 74.7317C216.085 74.7314 216.085 74.731 216.086 74.7307C216.086 74.7304 216.086 74.7301 216.087 74.7298C216.087 74.7294 216.088 74.7291 216.088 74.7288C216.088 74.7285 216.089 74.7281 216.089 74.7278C216.089 74.7275 216.09 74.7272 216.09 74.7269C216.091 74.7265 216.091 74.7262 216.091 74.7259C216.092 74.7256 216.092 74.7252 216.093 74.7249C216.093 74.7246 216.093 74.7243 216.094 74.724C216.094 74.7236 216.095 74.7233 216.095 74.723C216.095 74.7227 216.096 74.7223 216.096 74.722C216.097 74.7217 216.097 74.7214 216.097 74.7211C216.098 74.7207 216.098 74.7204 216.099 74.7201C216.099 74.7198 216.099 74.7195 216.1 74.7191C216.1 74.7188 216.1 74.7185 216.101 74.7182C216.101 74.7178 216.102 74.7175 216.102 74.7172C216.102 74.7169 216.103 74.7166 216.103 74.7162C216.104 74.7159 216.104 74.7156 216.104 74.7153C216.105 74.715 216.105 74.7146 216.106 74.7143C216.106 74.714 216.106 74.7137 216.107 74.7134C216.107 74.713 216.108 74.7127 216.108 74.7124C216.108 74.7121 216.109 74.7118 216.109 74.7114C216.109 74.7111 216.11 74.7108 216.11 74.7105C216.111 74.7102 216.111 74.7099 216.111 74.7095C216.112 74.7092 216.112 74.7089 216.113 74.7086C216.113 74.7083 216.113 74.7079 216.114 74.7076C216.114 74.7073 216.115 74.707 216.115 74.7067C216.115 74.7063 216.116 74.706 216.116 74.7057C216.116 74.7054 216.117 74.7051 216.117 74.7048C216.118 74.7044 216.118 74.7041 216.118 74.7038C216.119 74.7035 216.119 74.7032 216.12 74.7028C216.12 74.7025 216.12 74.7022 216.121 74.7019C216.121 74.7016 216.122 74.7013 216.122 74.7009C216.122 74.7006 216.123 74.7003 216.123 74.7C216.123 74.6997 216.124 74.6994 216.124 74.699C216.125 74.6987 216.125 74.6984 216.125 74.6981C216.126 74.6978 216.126 74.6975 216.127 74.6971C216.127 74.6968 216.127 74.6965 216.128 74.6962C216.128 74.6959 216.128 74.6956 216.129 74.6952C216.129 74.6949 216.13 74.6946 216.13 74.6943C216.13 74.694 216.131 74.6937 216.131 74.6933C216.132 74.693 216.132 74.6927 216.132 74.6924C216.133 74.6921 216.133 74.6918 216.133 74.6915C216.134 74.6911 216.134 74.6908 216.135 74.6905C216.135 74.6902 216.135 74.6899 216.136 74.6896C216.136 74.6892 216.137 74.6889 216.137 74.6886C216.137 74.6883 216.138 74.688 216.138 74.6877C216.138 74.6874 216.139 74.687 216.139 74.6867C216.14 74.6864 216.14 74.6861 216.14 74.6858C216.141 74.6855 216.141 74.6852 216.142 74.6848C216.142 74.6845 216.142 74.6842 216.143 74.6839C216.143 74.6836 216.143 74.6833 216.144 74.683C216.144 74.6827 216.145 74.6823 216.145 74.682C216.145 74.6817 216.146 74.6814 216.146 74.6811C216.147 74.6808 216.147 74.6805 216.147 74.6801C216.148 74.6798 216.148 74.6795 216.148 74.6792C216.149 74.6789 216.149 74.6786 216.15 74.6783C216.15 74.678 216.15 74.6776 216.151 74.6773C216.151 74.677 216.151 74.6767 216.152 74.6764C216.152 74.6761 216.153 74.6758 216.153 74.6755C216.153 74.6751 216.154 74.6748 216.154 74.6745C216.155 74.6742 216.155 74.6739 216.155 74.6736C216.156 74.6733 216.156 74.673 216.156 74.6727C216.157 74.6723 216.157 74.672 216.158 74.6717C216.158 74.6714 216.158 74.6711 216.159 74.6708C216.159 74.6705 216.159 74.6702 216.16 74.6699C216.16 74.6695 216.161 74.6692 216.161 74.6689C216.161 74.6686 216.162 74.6683 216.162 74.668C216.162 74.6677 216.163 74.6674 216.163 74.6671C216.164 74.6667 216.164 74.6664 216.164 74.6661C216.165 74.6658 216.165 74.6655 216.166 74.6652C216.166 74.6649 216.166 74.6646 216.167 74.6643C216.167 74.664 216.167 74.6636 216.168 74.6633C216.168 74.663 216.169 74.6627 216.169 74.6624C216.169 74.6621 216.17 74.6618 216.17 74.6615C216.17 74.6612 216.171 74.6609 216.171 74.6606C216.172 74.6602 216.172 74.6599 216.172 74.6596C216.173 74.6593 216.173 74.659 216.173 74.6587C216.174 74.6584 216.174 74.6581 216.175 74.6578C216.175 74.6575 216.175 74.6572 216.176 74.6569C216.176 74.6565 216.176 74.6562 216.177 74.6559C216.177 74.6556 216.178 74.6553 216.178 74.655C216.178 74.6547 216.179 74.6544 216.179 74.6541C216.179 74.6538 216.18 74.6535 216.18 74.6532C216.181 74.6529 216.181 74.6525 216.181 74.6522C216.182 74.6519 216.182 74.6516 216.182 74.6513C216.183 74.651 216.183 74.6507 216.184 74.6504C216.184 74.6501 216.184 74.6498 216.185 74.6495C216.185 74.6492 216.185 74.6489 216.186 74.6486C216.186 74.6482 216.187 74.6479 216.187 74.6476C216.187 74.6473 216.188 74.647 216.188 74.6467C216.188 74.6464 216.189 74.6461 216.189 74.6458C216.19 74.6455 216.19 74.6452 216.19 74.6449C216.191 74.6446 216.191 74.6443 216.191 74.644C216.192 74.6437 216.192 74.6434 216.193 74.643C216.193 74.6427 216.193 74.6424 216.194 74.6421C216.194 74.6418 216.194 74.6415 216.195 74.6412C216.195 74.6409 216.196 74.6406 216.196 74.6403C216.196 74.64 216.197 74.6397 216.197 74.6394C216.197 74.6391 216.198 74.6388 216.198 74.6385C216.198 74.6382 216.199 74.6379 216.199 74.6376C216.2 74.6373 216.2 74.637 216.2 74.6367C216.201 74.6363 216.201 74.636 216.201 74.6357C216.202 74.6354 216.202 74.6351 216.203 74.6348C216.203 74.6345 216.203 74.6342 216.204 74.6339C216.204 74.6336 216.204 74.6333 216.205 74.633C216.205 74.6327 216.206 74.6324 216.206 74.6321C216.206 74.6318 216.207 74.6315 216.207 74.6312C216.207 74.6309 216.208 74.6306 216.208 74.6303C216.208 74.63 216.209 74.6297 216.209 74.6294C216.21 74.6291 216.21 74.6288 216.21 74.6285C216.211 74.6282 216.211 74.6279 216.211 74.6276C216.212 74.6273 216.212 74.627 216.213 74.6267C216.213 74.6264 216.213 74.6261 216.214 74.6258C216.214 74.6255 216.214 74.6252 216.215 74.6249C216.215 74.6245 216.215 74.6242 216.216 74.6239C216.216 74.6236 216.217 74.6233 216.217 74.623C216.217 74.6227 216.218 74.6224 216.218 74.6221C216.218 74.6218 216.219 74.6215 216.219 74.6212C216.22 74.6209 216.22 74.6206 216.22 74.6203C216.221 74.62 216.221 74.6197 216.221 74.6194C216.222 74.6191 216.222 74.6188 216.222 74.6185C216.223 74.6182 216.223 74.6179 216.224 74.6176C216.224 74.6173 216.224 74.617 216.225 74.6167C216.225 74.6164 216.225 74.6161 216.226 74.6158C216.226 74.6155 216.226 74.6152 216.227 74.6149C216.227 74.6146 216.228 74.6143 216.228 74.614C216.228 74.6137 216.229 74.6134 216.229 74.6131C216.229 74.6128 216.23 74.6125 216.23 74.6122C216.23 74.612 216.231 74.6117 216.231 74.6114C216.232 74.6111 216.232 74.6108 216.232 74.6105C216.233 74.6102 216.233 74.6099 216.233 74.6096C216.234 74.6093 216.234 74.609 216.234 74.6087C216.235 74.6084 216.235 74.6081 216.236 74.6078C216.236 74.6075 216.236 74.6072 216.237 74.6069C216.237 74.6066 216.237 74.6063 216.238 74.606C216.238 74.6057 216.238 74.6054 216.239 74.6051C216.239 74.6048 216.24 74.6045 216.24 74.6042C216.24 74.6039 216.241 74.6036 216.241 74.6033C216.241 74.603 216.242 74.6027 216.242 74.6024C216.242 74.6021 216.243 74.6018 216.243 74.6015C216.244 74.6012 216.244 74.6009 216.244 74.6006C216.245 74.6004 216.245 74.6001 216.245 74.5998C216.246 74.5995 216.246 74.5992 216.246 74.5989C216.247 74.5986 216.247 74.5983 216.248 74.598C216.248 74.5977 216.248 74.5974 216.249 74.5971C216.249 74.5968 216.249 74.5965 216.25 74.5962C216.25 74.5959 216.25 74.5956 216.251 74.5953C216.251 74.595 216.251 74.5947 216.252 74.5944C216.252 74.5941 216.253 74.5939 216.253 74.5936C216.253 74.5933 216.254 74.593 216.254 74.5927C216.254 74.5924 216.255 74.5921 216.255 74.5918C216.255 74.5915 216.256 74.5912 216.256 74.5909C216.257 74.5906 216.257 74.5903 216.257 74.59C216.258 74.5897 216.258 74.5894 216.258 74.5891C216.259 74.5889 216.259 74.5886 216.259 74.5883C216.26 74.588 216.26 74.5877 216.26 74.5874C216.261 74.5871 216.261 74.5868 216.262 74.5865C216.262 74.5862 216.262 74.5859 216.263 74.5856C216.263 74.5853 216.263 74.585 216.264 74.5848C216.264 74.5845 216.264 74.5842 216.265 74.5839C216.265 74.5836 216.265 74.5833 216.266 74.583C216.266 74.5827 216.267 74.5824 216.267 74.5821C216.267 74.5818 216.268 74.5815 216.268 74.5812C216.268 74.581 216.269 74.5807 216.269 74.5804C216.269 74.5801 216.27 74.5798 216.27 74.5795C216.27 74.5792 216.271 74.5789 216.271 74.5786C216.272 74.5783 216.272 74.578 216.272 74.5777C216.273 74.5775 216.273 74.5772 216.273 74.5769C216.274 74.5766 216.274 74.5763 216.274 74.576C216.275 74.5757 216.275 74.5754 216.275 74.5751C216.276 74.5748 216.276 74.5745 216.276 74.5743C216.277 74.574 216.277 74.5737 216.278 74.5734C216.278 74.5731 216.278 74.5728 216.279 74.5725C216.279 74.5722 216.279 74.5719 216.28 74.5716C216.28 74.5714 216.28 74.5711 216.281 74.5708C216.281 74.5705 216.281 74.5702 216.282 74.5699C216.282 74.5696 216.282 74.5693 216.283 74.569C216.283 74.5688 216.284 74.5685 216.284 74.5682C216.284 74.5679 216.285 74.5676 216.285 74.5673C216.285 74.567 216.286 74.5667 216.286 74.5664C216.286 74.5662 216.287 74.5659 216.287 74.5656C216.287 74.5653 216.288 74.565 216.288 74.5647C216.288 74.5644 216.289 74.5641 216.289 74.5638C216.29 74.5636 216.29 74.5633 216.29 74.563C216.291 74.5627 216.291 74.5624 216.291 74.5621C216.292 74.5618 216.292 74.5615 216.292 74.5613C216.293 74.561 216.293 74.5607 216.293 74.5604C216.294 74.5601 216.294 74.5598 216.294 74.5595C216.295 74.5592 216.295 74.559 216.295 74.5587C216.296 74.5584 216.296 74.5581 216.297 74.5578C216.297 74.5575 216.297 74.5572 216.298 74.557C216.298 74.5567 216.298 74.5564 216.299 74.5561C216.299 74.5558 216.299 74.5555 216.3 74.5552C216.3 74.5549 216.3 74.5547 216.301 74.5544C216.301 74.5541 216.301 74.5538 216.302 74.5535C216.302 74.5532 216.302 74.5529 216.303 74.5527C216.303 74.5524 216.304 74.5521 216.304 74.5518C216.304 74.5515 216.305 74.5512 216.305 74.5509C216.305 74.5507 216.306 74.5504 216.306 74.5501C216.306 74.5498 216.307 74.5495 216.307 74.5492C216.307 74.549 216.308 74.5487 216.308 74.5484C216.308 74.5481 216.309 74.5478 216.309 74.5475C216.309 74.5472 216.31 74.547 216.31 74.5467C216.31 74.5464 216.311 74.5461 216.311 74.5458C216.312 74.5455 216.312 74.5453 216.312 74.545C216.313 74.5447 216.313 74.5444 216.313 74.5441C216.314 74.5438 216.314 74.5436 216.314 74.5433C216.315 74.543 216.315 74.5427 216.315 74.5424C216.316 74.5421 216.316 74.5419 216.316 74.5416C216.317 74.5413 216.317 74.541 216.317 74.5407C216.318 74.5404 216.318 74.5402 216.318 74.5399C216.319 74.5396 216.319 74.5393 216.319 74.539C216.32 74.5387 216.32 74.5385 216.32 74.5382C216.321 74.5379 216.321 74.5376 216.322 74.5373C216.322 74.5371 216.322 74.5368 216.323 74.5365C216.323 74.5362 216.323 74.5359 216.324 74.5356C216.324 74.5354 216.324 74.5351 216.325 74.5348C216.325 74.5345 216.325 74.5342 216.326 74.534C216.326 74.5337 216.326 74.5334 216.327 74.5331C216.327 74.5328 216.327 74.5326 216.328 74.5323C216.328 74.532 216.328 74.5317 216.329 74.5314C216.329 74.5311 216.329 74.5309 216.33 74.5306C216.33 74.5303 216.33 74.53 216.331 74.5297C216.331 74.5295 216.331 74.5292 216.332 74.5289C216.332 74.5286 216.332 74.5283 216.333 74.5281C216.333 74.5278 216.334 74.5275 216.334 74.5272C216.334 74.5269 216.335 74.5267 216.335 74.5264C216.335 74.5261 216.336 74.5258 216.336 74.5255C216.336 74.5253 216.337 74.525 216.337 74.5247C216.337 74.5244 216.338 74.5242 216.338 74.5239C216.338 74.5236 216.339 74.5233 216.339 74.523C216.339 74.5228 216.34 74.5225 216.34 74.5222C216.34 74.5219 216.341 74.5216 216.341 74.5214C216.341 74.5211 216.342 74.5208 216.342 74.5205C216.342 74.5203 216.343 74.52 216.343 74.5197C216.343 74.5194 216.344 74.5191 216.344 74.5189C216.344 74.5186 216.345 74.5183 216.345 74.518C216.345 74.5178 216.346 74.5175 216.346 74.5172C216.346 74.5169 216.347 74.5166 216.347 74.5164C216.347 74.5161 216.348 74.5158 216.348 74.5155C216.348 74.5153 216.349 74.515 216.349 74.5147C216.349 74.5144 216.35 74.5141 216.35 74.5139C216.35 74.5136 216.351 74.5133 216.351 74.513C216.351 74.5128 216.352 74.5125 216.352 74.5122C216.353 74.5119 216.353 74.5117 216.353 74.5114C216.354 74.5111 216.354 74.5108 216.354 74.5106C216.355 74.5103 216.355 74.51 216.355 74.5097C216.356 74.5095 216.356 74.5092 216.356 74.5089C216.357 74.5086 216.357 74.5084 216.357 74.5081C216.358 74.5078 216.358 74.5075 216.358 74.5073C216.359 74.507 216.359 74.5067 216.359 74.5064C216.36 74.5062 216.36 74.5059 216.36 74.5056C216.361 74.5053 216.361 74.5051 216.361 74.5048C216.362 74.5045 216.362 74.5042 216.362 74.504C216.363 74.5037 216.363 74.5034 216.363 74.5031C216.364 74.5029 216.364 74.5026 216.364 74.5023C216.365 74.502 216.365 74.5018 216.365 74.5015C216.366 74.5012 216.366 74.5009 216.366 74.5007C216.367 74.5004 216.367 74.5001 216.367 74.4998C216.368 74.4996 216.368 74.4993 216.368 74.499C216.369 74.4988 216.369 74.4985 216.369 74.4982C216.37 74.4979 216.37 74.4977 216.37 74.4974C216.371 74.4971 216.371 74.4968 216.371 74.4966C216.372 74.4963 216.372 74.496 216.372 74.4958L215.078 72.9709ZM214.475 73.4654C213.563 74.2125 212.702 75.0985 211.889 76.1175L213.477 77.3445C214.214 76.4204 214.979 75.6376 215.769 74.9902L214.475 73.4654ZM211.896 76.1077C211.047 77.1452 210.46 78.2485 210.171 79.4172L212.131 79.8912C212.339 79.0496 212.773 78.2041 213.469 77.3543L211.896 76.1077ZM210.171 79.4172C209.842 80.7467 210.168 81.9883 211.072 83.0538L212.619 81.786C212.1 81.1742 211.962 80.572 212.131 79.8912L210.171 79.4172ZM211.072 83.0538C212.073 84.2324 213.215 85.0581 214.511 85.134L214.625 83.1546C214.155 83.127 213.482 82.8031 212.619 81.786L211.072 83.0538ZM214.511 85.134C215.754 85.2068 216.951 84.6476 218.072 83.7293L216.778 82.2045C215.856 82.9596 215.15 83.1853 214.625 83.1546L214.511 85.134ZM235.528 74.4907L234.754 75.1245L235.401 75.8869L236.175 75.2531L235.528 74.4907ZM216.192 51.71L215.545 50.9476L214.772 51.5815L215.419 52.3439L216.192 51.71ZM221.436 47.4123L222.164 46.7281L221.511 46.0578L220.789 46.6499L221.436 47.4123ZM225.131 51.2096L224.404 51.8939L226.092 50.9126L225.131 51.2096ZM224.657 48.3795L223.649 48.4149L223.649 48.422L223.65 48.4291L224.657 48.3795ZM225.378 44.9184L226.306 45.3107L226.308 45.3048L225.378 44.9184ZM229.611 40.4025L229.112 39.539L229.112 39.539L229.611 40.4025ZM230.795 39.8973L231.686 39.4368L231.296 38.71L230.499 38.9486L230.795 39.8973ZM234.582 46.9547L234.492 47.942L236.34 48.1092L235.473 46.4942L234.582 46.9547ZM229.384 51.2144L230.345 51.5198L230.347 51.5129L230.349 51.5061L229.384 51.2144ZM229.049 54.2036L228.051 54.3439L228.053 54.3531L228.054 54.3623L229.049 54.2036ZM241.328 69.7366L241.975 70.499L242.749 69.8651L242.102 69.1027L241.328 69.7366ZM236.301 73.8568L216.966 51.0762L215.419 52.3439L234.754 75.1245L236.301 73.8568ZM216.839 52.4724L222.083 48.1747L220.789 46.6499L215.545 50.9476L216.839 52.4724ZM220.708 48.0966L224.404 51.8939L225.859 50.5254L222.164 46.7281L220.708 48.0966ZM226.092 50.9126C225.867 50.2154 225.72 49.359 225.664 48.3298L223.65 48.4291C223.712 49.5784 223.88 50.6089 224.17 51.5067L226.092 50.9126ZM225.664 48.344C225.628 47.4142 225.829 46.4066 226.305 45.3107L224.451 44.5261C223.879 45.841 223.599 47.1408 223.649 48.4149L225.664 48.344ZM226.308 45.3048C226.753 44.263 227.62 43.1711 228.997 42.0432L227.702 40.5184C226.171 41.7739 225.057 43.1071 224.448 44.532L226.308 45.3048ZM228.997 42.0432C229.412 41.7031 229.782 41.4476 230.109 41.266L229.112 39.539C228.655 39.7933 228.185 40.1233 227.702 40.5184L228.997 42.0432ZM230.109 41.266C230.442 41.0807 230.77 40.9421 231.091 40.8459L230.499 38.9486C230.025 39.0903 229.563 39.2885 229.112 39.539L230.109 41.266ZM229.903 40.3578L233.69 47.4152L235.473 46.4942L231.686 39.4368L229.903 40.3578ZM234.671 45.9674C233.394 45.8519 232.172 46.3962 231.039 47.324L232.334 48.8488C233.243 48.1032 233.951 47.893 234.492 47.942L234.671 45.9674ZM231.039 47.324C229.745 48.3851 228.836 49.5797 228.42 50.9226L230.349 51.5061C230.62 50.6308 231.246 49.7401 232.334 48.8488L231.039 47.324ZM228.424 50.909C228.032 52.1094 227.891 53.261 228.051 54.3439L230.047 54.0633C229.941 53.3483 230.023 52.5071 230.345 51.5198L228.424 50.909ZM228.054 54.3623C228.206 55.2643 228.447 56.1051 228.907 56.6472L230.454 55.3794C230.37 55.2811 230.191 54.9154 230.044 54.0449L228.054 54.3623ZM228.907 56.6472L240.555 70.3704L242.102 69.1027L230.454 55.3794L228.907 56.6472ZM240.681 68.9742L234.88 73.7283L236.175 75.2531L241.975 70.499L240.681 68.9742Z" fill="white" mask="url(#path-2-outside-1_0_1)"/>
</g>
<defs>
<filter id="filter0_d_0_1" x="0.720947" y="0.418915" width="283.348" height="251.204" filterUnits="userSpaceOnUse" color-interpolation-filters="sRGB">
<feFlood flood-opacity="0" result="BackgroundImageFix"/>
<feColorMatrix in="SourceAlpha" type="matrix" values="0 0 0 0 0 0 0 0 0 0 0 0 0 0 0 0 0 0 127 0" result="hardAlpha"/>
<feOffset dy="4"/>
<feGaussianBlur stdDeviation="2"/>
<feComposite in2="hardAlpha" operator="out"/>
<feColorMatrix type="matrix" values="0 0 0 0 0.988235 0 0 0 0 0.666667 0 0 0 0 0.113725 0 0 0 0.47 0"/>
<feBlend mode="normal" in2="BackgroundImageFix" result="effect1_dropShadow_0_1"/>
<feBlend mode="normal" in="SourceGraphic" in2="effect1_dropShadow_0_1" result="shape"/>
</filter>
<filter id="filter1_d_0_1" x="36.1959" y="38.71" width="210.553" height="183.539" filterUnits="userSpaceOnUse" color-interpolation-filters="sRGB">
<feFlood flood-opacity="0" result="BackgroundImageFix"/>
<feColorMatrix in="SourceAlpha" type="matrix" values="0 0 0 0 0 0 0 0 0 0 0 0 0 0 0 0 0 0 127 0" result="hardAlpha"/>
<feOffset dy="6"/>
<feGaussianBlur stdDeviation="2"/>
<feComposite in2="hardAlpha" operator="out"/>
<feColorMatrix type="matrix" values="0 0 0 0 0.988235 0 0 0 0 0.666667 0 0 0 0 0.113725 0 0 0 0.46 0"/>
<feBlend mode="normal" in2="BackgroundImageFix" result="effect1_dropShadow_0_1"/>
<feBlend mode="normal" in="SourceGraphic" in2="effect1_dropShadow_0_1" result="shape"/>
</filter>
</defs>
</svg>
