<svg width="285" height="252" viewBox="0 0 285 252" fill="none" xmlns="http://www.w3.org/2000/svg">
<g filter="url(#filter0_d_0_1)">
<rect width="285.859" height="95.7353" rx="11" transform="matrix(0.782276 -0.622932 0.63442 0.772988 0.216675 174.055)" fill="#EFB71D" fill-opacity="0.48" shape-rendering="crispEdges"/>
</g>
<g filter="url(#filter1_d_0_1)">
<mask id="path-2-outside-1_0_1" maskUnits="userSpaceOnUse" x="34.092" y="30.7893" width="216.21" height="192.05" fill="black">
<rect fill="white" x="34.092" y="30.7893" width="216.21" height="192.05"/>
<path d="M66.0372 208.624L52.1993 164.971L52.6633 164.591L93.9272 185.766L87.616 190.939L81.8847 187.802L70.3296 197.272L72.5341 203.299L66.0372 208.624ZM64.1056 180.112L68.2341 191.465L76.4016 184.772L65.637 178.857L62.6738 176.942L64.1056 180.112ZM73.7871 157.362L68.6232 151.278L75.1201 145.954L80.2839 152.038L73.7871 157.362ZM104.999 196.083L100.053 194.242C101.002 193.413 101.351 192.248 101.1 190.747C100.877 189.248 100.125 187.745 98.8442 186.235L77.2569 160.801L83.0112 156.085L104.793 181.748C107.229 184.741 108.384 187.401 108.26 189.726C108.135 192.052 107.049 194.171 104.999 196.083ZM114.976 169.446C112.641 171.36 110.295 172.042 107.938 171.491C105.585 170.912 103.314 169.334 101.127 166.757L88.3533 151.707L94.1541 146.953L106.501 161.5C107.562 162.75 108.661 163.581 109.798 163.994C110.935 164.406 112.061 164.156 113.174 163.244C114.273 162.343 114.849 161.199 114.903 159.81C114.972 158.409 114.476 157.083 113.415 155.833L101.069 141.286L106.869 136.532L126.205 159.313L120.961 163.61L118.341 160.755C118.532 162.124 118.437 163.572 118.055 165.1C117.689 166.615 116.662 168.064 114.976 169.446ZM139.098 149.444C137.411 150.826 135.898 151.808 134.556 152.391C133.217 152.945 132.077 153.271 131.138 153.369C130.2 153.439 129.499 153.432 129.034 153.348L127.063 147.595C128.209 147.586 129.535 147.418 131.04 147.089C132.56 146.748 134.024 146.001 135.432 144.847C136.53 143.947 137.108 143.098 137.166 142.301C137.239 141.491 137.056 140.827 136.616 140.309C136.007 139.592 134.955 139.356 133.457 139.601C131.96 139.845 130.307 140.231 128.498 140.757C127.424 141.068 126.227 141.325 124.905 141.53C123.583 141.734 122.243 141.669 120.884 141.335C119.54 140.988 118.299 140.144 117.16 138.802C115.413 136.743 114.78 134.483 115.26 132.021C115.743 129.531 117.385 127.138 120.185 124.844C121.979 123.373 123.721 122.397 125.412 121.917C127.105 121.408 128.335 121.189 129.102 121.258L131.018 126.668C130.027 126.705 128.892 126.898 127.615 127.247C126.337 127.596 125.165 128.208 124.097 129.083C122.922 130.046 122.231 130.871 122.026 131.556C121.821 132.241 122.003 132.919 122.573 133.59C123.207 134.337 124.141 134.619 125.375 134.435C126.611 134.223 128.004 133.871 129.552 133.377C132.12 132.54 134.458 132.188 136.565 132.322C138.675 132.429 140.442 133.321 141.865 134.998C142.927 136.248 143.629 137.663 143.973 139.243C144.304 140.807 144.111 142.465 143.394 144.216C142.664 145.952 141.232 147.695 139.098 149.444ZM160.796 132.126C158.182 134.268 155.842 135.049 153.775 134.468C151.723 133.874 149.545 132.22 147.242 129.506L138.273 118.939L135.257 121.411L131.18 116.608L134.428 113.946L130.676 108.876L133.91 102.581L139.811 109.534L145.519 104.856L149.596 109.659L143.888 114.337L152.74 124.767C153.866 126.093 154.835 126.864 155.646 127.078C156.46 127.264 157.2 127.084 157.865 126.539C158.545 125.982 159.116 125.217 159.576 124.245C160.036 123.273 160.328 122.426 160.45 121.706L165.485 125.413C165.291 126.141 164.917 126.952 164.363 127.845C163.812 128.71 163.201 129.535 162.528 130.319C161.884 131.105 161.307 131.707 160.796 132.126ZM175.824 119.732C174.401 120.898 172.953 121.555 171.478 121.704C170.02 121.839 168.618 121.579 167.274 120.922C165.945 120.253 164.75 119.293 163.689 118.043C163.094 117.341 162.618 116.425 162.262 115.295C161.922 114.152 161.892 112.819 162.173 111.296C162.454 109.773 163.23 108.077 164.502 106.207C165.774 104.337 167.733 102.318 170.378 100.151L169.485 99.0984C168.527 97.97 167.453 97.2605 166.262 96.9697C165.086 96.6663 163.671 97.1928 162.016 98.5493C160.809 99.5382 159.801 100.714 158.99 102.076C158.182 103.411 157.759 104.597 157.723 105.636L152.139 102.766C152.536 101.38 153.289 99.7939 154.395 98.0077C155.505 96.1935 157.011 94.5068 158.913 92.9475C161.203 91.0712 163.273 89.9563 165.124 89.603C166.975 89.2496 168.692 89.4965 170.277 90.3437C171.849 91.1757 173.353 92.4379 174.789 94.1305L187.486 109.089L182.52 113.158L179.346 110.253C179.937 114.163 178.763 117.323 175.824 119.732ZM174.557 113.325C175.253 112.754 175.762 111.871 176.085 110.676C176.411 109.452 176.437 108.216 176.163 106.966L173.406 103.719C173.226 103.815 173.043 103.939 172.857 104.091C172.687 104.231 172.486 104.395 172.254 104.586C171.403 105.283 170.59 106.117 169.815 107.089C169.042 108.032 168.531 109.007 168.283 110.012C168.034 111.017 168.266 111.939 168.978 112.778C169.909 113.876 170.817 114.45 171.7 114.502C172.584 114.554 173.536 114.161 174.557 113.325ZM201.683 98.5387C199.812 100.073 197.767 100.908 195.549 101.045C193.331 101.183 191.079 100.662 188.794 99.4841C186.525 98.2934 184.367 96.4934 182.323 94.0842C179.139 90.3332 177.421 86.7641 177.169 83.3768C176.932 79.9769 178.353 77.0155 181.431 74.4927C183.009 73.1996 184.669 72.4981 186.412 72.3883C188.158 72.2506 189.807 72.773 191.362 73.9553L188.11 70.9583L177.433 58.3786L182.909 53.8907L212.416 88.6563L207.358 92.8019L203.398 88.136C204.313 90.0488 204.666 91.9319 204.455 93.7851C204.231 95.623 203.308 97.2076 201.683 98.5387ZM199.185 92.9071C200.299 91.9943 200.811 90.6048 200.723 88.7386C200.621 86.8571 199.463 84.6126 197.25 82.0052C195.231 79.6265 193.331 78.068 191.551 77.3298C189.77 76.5915 188.168 76.8055 186.745 77.9719C186.018 78.5677 185.478 79.3847 185.127 80.4227C184.791 81.4481 184.842 82.6985 185.281 84.1742C185.708 85.6345 186.717 87.3025 188.309 89.178C190.444 91.6939 192.477 93.2081 194.407 93.7206C196.324 94.2178 197.917 93.9466 199.185 92.9071ZM228.118 76.5633C224.715 79.3523 221.192 80.4554 217.55 79.8725C213.908 79.2896 210.508 77.1378 207.35 73.4173C204.166 69.6663 202.647 65.9603 202.792 62.2993C202.937 58.6383 204.711 55.4132 208.114 52.6242C211.533 49.8224 215.05 48.7752 218.667 49.4825C222.286 50.1619 225.63 52.3085 228.697 55.9223C231.764 59.536 233.289 63.1862 233.27 66.8727C233.254 70.5314 231.537 73.7615 228.118 76.5633ZM224.328 71.9128C227.268 69.504 226.666 65.86 222.525 60.9806C218.358 56.0707 214.804 54.8202 211.865 57.2289C210.411 58.4206 209.767 59.9179 209.934 61.7207C210.087 63.5083 211.283 65.721 213.522 68.359C215.748 70.9816 217.742 72.5275 219.504 72.9966C221.266 73.4658 222.874 73.1045 224.328 71.9128Z"/>
</mask>
<path d="M66.0372 208.624L52.1993 164.971L52.6633 164.591L93.9272 185.766L87.616 190.939L81.8847 187.802L70.3296 197.272L72.5341 203.299L66.0372 208.624ZM64.1056 180.112L68.2341 191.465L76.4016 184.772L65.637 178.857L62.6738 176.942L64.1056 180.112ZM73.7871 157.362L68.6232 151.278L75.1201 145.954L80.2839 152.038L73.7871 157.362ZM104.999 196.083L100.053 194.242C101.002 193.413 101.351 192.248 101.1 190.747C100.877 189.248 100.125 187.745 98.8442 186.235L77.2569 160.801L83.0112 156.085L104.793 181.748C107.229 184.741 108.384 187.401 108.26 189.726C108.135 192.052 107.049 194.171 104.999 196.083ZM114.976 169.446C112.641 171.36 110.295 172.042 107.938 171.491C105.585 170.912 103.314 169.334 101.127 166.757L88.3533 151.707L94.1541 146.953L106.501 161.5C107.562 162.75 108.661 163.581 109.798 163.994C110.935 164.406 112.061 164.156 113.174 163.244C114.273 162.343 114.849 161.199 114.903 159.81C114.972 158.409 114.476 157.083 113.415 155.833L101.069 141.286L106.869 136.532L126.205 159.313L120.961 163.61L118.341 160.755C118.532 162.124 118.437 163.572 118.055 165.1C117.689 166.615 116.662 168.064 114.976 169.446ZM139.098 149.444C137.411 150.826 135.898 151.808 134.556 152.391C133.217 152.945 132.077 153.271 131.138 153.369C130.2 153.439 129.499 153.432 129.034 153.348L127.063 147.595C128.209 147.586 129.535 147.418 131.04 147.089C132.56 146.748 134.024 146.001 135.432 144.847C136.53 143.947 137.108 143.098 137.166 142.301C137.239 141.491 137.056 140.827 136.616 140.309C136.007 139.592 134.955 139.356 133.457 139.601C131.96 139.845 130.307 140.231 128.498 140.757C127.424 141.068 126.227 141.325 124.905 141.53C123.583 141.734 122.243 141.669 120.884 141.335C119.54 140.988 118.299 140.144 117.16 138.802C115.413 136.743 114.78 134.483 115.26 132.021C115.743 129.531 117.385 127.138 120.185 124.844C121.979 123.373 123.721 122.397 125.412 121.917C127.105 121.408 128.335 121.189 129.102 121.258L131.018 126.668C130.027 126.705 128.892 126.898 127.615 127.247C126.337 127.596 125.165 128.208 124.097 129.083C122.922 130.046 122.231 130.871 122.026 131.556C121.821 132.241 122.003 132.919 122.573 133.59C123.207 134.337 124.141 134.619 125.375 134.435C126.611 134.223 128.004 133.871 129.552 133.377C132.12 132.54 134.458 132.188 136.565 132.322C138.675 132.429 140.442 133.321 141.865 134.998C142.927 136.248 143.629 137.663 143.973 139.243C144.304 140.807 144.111 142.465 143.394 144.216C142.664 145.952 141.232 147.695 139.098 149.444ZM160.796 132.126C158.182 134.268 155.842 135.049 153.775 134.468C151.723 133.874 149.545 132.22 147.242 129.506L138.273 118.939L135.257 121.411L131.18 116.608L134.428 113.946L130.676 108.876L133.91 102.581L139.811 109.534L145.519 104.856L149.596 109.659L143.888 114.337L152.74 124.767C153.866 126.093 154.835 126.864 155.646 127.078C156.46 127.264 157.2 127.084 157.865 126.539C158.545 125.982 159.116 125.217 159.576 124.245C160.036 123.273 160.328 122.426 160.45 121.706L165.485 125.413C165.291 126.141 164.917 126.952 164.363 127.845C163.812 128.71 163.201 129.535 162.528 130.319C161.884 131.105 161.307 131.707 160.796 132.126ZM175.824 119.732C174.401 120.898 172.953 121.555 171.478 121.704C170.02 121.839 168.618 121.579 167.274 120.922C165.945 120.253 164.75 119.293 163.689 118.043C163.094 117.341 162.618 116.425 162.262 115.295C161.922 114.152 161.892 112.819 162.173 111.296C162.454 109.773 163.23 108.077 164.502 106.207C165.774 104.337 167.733 102.318 170.378 100.151L169.485 99.0984C168.527 97.97 167.453 97.2605 166.262 96.9697C165.086 96.6663 163.671 97.1928 162.016 98.5493C160.809 99.5382 159.801 100.714 158.99 102.076C158.182 103.411 157.759 104.597 157.723 105.636L152.139 102.766C152.536 101.38 153.289 99.7939 154.395 98.0077C155.505 96.1935 157.011 94.5068 158.913 92.9475C161.203 91.0712 163.273 89.9563 165.124 89.603C166.975 89.2496 168.692 89.4965 170.277 90.3437C171.849 91.1757 173.353 92.4379 174.789 94.1305L187.486 109.089L182.52 113.158L179.346 110.253C179.937 114.163 178.763 117.323 175.824 119.732ZM174.557 113.325C175.253 112.754 175.762 111.871 176.085 110.676C176.411 109.452 176.437 108.216 176.163 106.966L173.406 103.719C173.226 103.815 173.043 103.939 172.857 104.091C172.687 104.231 172.486 104.395 172.254 104.586C171.403 105.283 170.59 106.117 169.815 107.089C169.042 108.032 168.531 109.007 168.283 110.012C168.034 111.017 168.266 111.939 168.978 112.778C169.909 113.876 170.817 114.45 171.7 114.502C172.584 114.554 173.536 114.161 174.557 113.325ZM201.683 98.5387C199.812 100.073 197.767 100.908 195.549 101.045C193.331 101.183 191.079 100.662 188.794 99.4841C186.525 98.2934 184.367 96.4934 182.323 94.0842C179.139 90.3332 177.421 86.7641 177.169 83.3768C176.932 79.9769 178.353 77.0155 181.431 74.4927C183.009 73.1996 184.669 72.4981 186.412 72.3883C188.158 72.2506 189.807 72.773 191.362 73.9553L188.11 70.9583L177.433 58.3786L182.909 53.8907L212.416 88.6563L207.358 92.8019L203.398 88.136C204.313 90.0488 204.666 91.9319 204.455 93.7851C204.231 95.623 203.308 97.2076 201.683 98.5387ZM199.185 92.9071C200.299 91.9943 200.811 90.6048 200.723 88.7386C200.621 86.8571 199.463 84.6126 197.25 82.0052C195.231 79.6265 193.331 78.068 191.551 77.3298C189.77 76.5915 188.168 76.8055 186.745 77.9719C186.018 78.5677 185.478 79.3847 185.127 80.4227C184.791 81.4481 184.842 82.6985 185.281 84.1742C185.708 85.6345 186.717 87.3025 188.309 89.178C190.444 91.6939 192.477 93.2081 194.407 93.7206C196.324 94.2178 197.917 93.9466 199.185 92.9071ZM228.118 76.5633C224.715 79.3523 221.192 80.4554 217.55 79.8725C213.908 79.2896 210.508 77.1378 207.35 73.4173C204.166 69.6663 202.647 65.9603 202.792 62.2993C202.937 58.6383 204.711 55.4132 208.114 52.6242C211.533 49.8224 215.05 48.7752 218.667 49.4825C222.286 50.1619 225.63 52.3085 228.697 55.9223C231.764 59.536 233.289 63.1862 233.27 66.8727C233.254 70.5314 231.537 73.7615 228.118 76.5633ZM224.328 71.9128C227.268 69.504 226.666 65.86 222.525 60.9806C218.358 56.0707 214.804 54.8202 211.865 57.2289C210.411 58.4206 209.767 59.9179 209.934 61.7207C210.087 63.5083 211.283 65.721 213.522 68.359C215.748 70.9816 217.742 72.5275 219.504 72.9966C221.266 73.4658 222.874 73.1045 224.328 71.9128Z" fill="#E39C17" fill-opacity="0.82" shape-rendering="crispEdges"/>
<path d="M66.0372 208.624L65.0745 208.916L65.5248 210.336L66.6843 209.386L66.0372 208.624ZM52.1993 164.971L51.5521 164.209L51.0362 164.632L51.2366 165.264L52.1993 164.971ZM52.6633 164.591L53.1277 163.712L52.5314 163.406L52.0162 163.829L52.6633 164.591ZM93.9272 185.766L94.5743 186.528L95.7353 185.577L94.3916 184.887L93.9272 185.766ZM87.616 190.939L87.1276 191.804L87.7326 192.136L88.2631 191.701L87.616 190.939ZM81.8847 187.802L82.3731 186.936L81.768 186.605L81.2376 187.039L81.8847 187.802ZM70.3296 197.272L69.6825 196.509L69.1422 196.952L69.3808 197.605L70.3296 197.272ZM72.5341 203.299L73.1812 204.062L73.7215 203.619L73.4829 202.966L72.5341 203.299ZM64.1056 180.112L65.055 179.781L65.0423 179.746L65.027 179.712L64.1056 180.112ZM68.2341 191.465L67.2847 191.797L67.772 193.137L68.8812 192.228L68.2341 191.465ZM76.4016 184.772L77.0487 185.534L78.1744 184.611L76.8915 183.907L76.4016 184.772ZM65.637 178.857L65.0849 179.685L65.1153 179.704L65.1471 179.722L65.637 178.857ZM62.6738 176.942L63.2259 176.114L60.3617 174.262L61.7524 177.342L62.6738 176.942ZM66.9999 208.331L53.1619 164.679L51.2366 165.264L65.0745 208.916L66.9999 208.331ZM52.8464 165.734L53.3104 165.354L52.0162 163.829L51.5521 164.209L52.8464 165.734ZM52.1989 165.47L93.4628 186.645L94.3916 184.887L53.1277 163.712L52.1989 165.47ZM93.2801 185.004L86.9689 190.176L88.2631 191.701L94.5743 186.528L93.2801 185.004ZM88.1044 190.073L82.3731 186.936L81.3963 188.668L87.1276 191.804L88.1044 190.073ZM81.2376 187.039L69.6825 196.509L70.9767 198.034L82.5318 188.564L81.2376 187.039ZM69.3808 197.605L71.5852 203.632L73.4829 202.966L71.2785 196.939L69.3808 197.605ZM71.887 202.537L65.3901 207.861L66.6843 209.386L73.1812 204.062L71.887 202.537ZM63.1561 180.443L67.2847 191.797L69.1836 191.134L65.055 179.781L63.1561 180.443ZM68.8812 192.228L77.0487 185.534L75.7545 184.009L67.587 190.703L68.8812 192.228ZM76.8915 183.907L66.1269 177.992L65.1471 179.722L75.9117 185.637L76.8915 183.907ZM66.1891 178.029L63.2259 176.114L62.1217 177.77L65.0849 179.685L66.1891 178.029ZM61.7524 177.342L63.1841 180.512L65.027 179.712L63.5952 176.542L61.7524 177.342ZM73.7871 157.362L73.0137 157.996L73.6608 158.758L74.4342 158.125L73.7871 157.362ZM68.6232 151.278L67.9761 150.516L67.2027 151.15L67.8498 151.912L68.6232 151.278ZM75.1201 145.954L75.8935 145.32L75.2464 144.557L74.473 145.191L75.1201 145.954ZM80.2839 152.038L80.931 152.8L81.7045 152.166L81.0574 151.404L80.2839 152.038ZM104.999 196.083L104.645 197.01L105.237 197.23L105.695 196.803L104.999 196.083ZM100.053 194.242L99.3819 193.5L98.1373 194.588L99.6987 195.169L100.053 194.242ZM101.1 190.747L100.102 190.887L100.103 190.896L100.105 190.905L101.1 190.747ZM77.2569 160.801L76.6098 160.039L75.8363 160.673L76.4834 161.435L77.2569 160.801ZM83.0112 156.085L83.7846 155.451L83.1375 154.689L82.3641 155.323L83.0112 156.085ZM104.793 181.748L105.579 181.13L105.573 181.122L105.566 181.114L104.793 181.748ZM108.26 189.726L109.267 189.782L109.267 189.782L108.26 189.726ZM74.5605 156.728L69.3967 150.644L67.8498 151.912L73.0137 157.996L74.5605 156.728ZM69.2703 152.041L75.7672 146.716L74.473 145.191L67.9761 150.516L69.2703 152.041ZM74.3466 146.588L79.5105 152.672L81.0574 151.404L75.8935 145.32L74.3466 146.588ZM79.6368 151.275L73.14 156.6L74.4342 158.125L80.931 152.8L79.6368 151.275ZM105.354 195.156L100.408 193.315L99.6987 195.169L104.645 197.01L105.354 195.156ZM100.725 194.984C101.989 193.878 102.388 192.341 102.095 190.589L100.105 190.905C100.314 192.154 100.015 192.947 99.3819 193.5L100.725 194.984ZM102.098 190.606C101.841 188.88 100.984 187.211 99.6176 185.601L98.0708 186.869C99.2672 188.279 99.9134 189.617 100.102 190.887L102.098 190.606ZM99.6176 185.601L78.0303 160.167L76.4834 161.435L98.0708 186.869L99.6176 185.601ZM77.904 161.564L83.6583 156.848L82.3641 155.323L76.6098 160.039L77.904 161.564ZM82.2378 156.719L104.019 182.382L105.566 181.114L83.7846 155.451L82.2378 156.719ZM104.006 182.366C106.38 185.284 107.358 187.704 107.253 189.671L109.267 189.782C109.411 187.098 108.077 184.199 105.579 181.13L104.006 182.366ZM107.253 189.671C107.144 191.696 106.205 193.589 104.304 195.363L105.695 196.803C107.892 194.753 109.126 192.408 109.267 189.782L107.253 189.671ZM107.938 171.491L107.696 172.453L107.708 172.455L107.938 171.491ZM88.3533 151.707L87.7062 150.945L86.9328 151.578L87.5799 152.341L88.3533 151.707ZM94.1541 146.953L94.9275 146.319L94.2804 145.557L93.507 146.19L94.1541 146.953ZM109.798 163.994L109.452 164.924L109.452 164.924L109.798 163.994ZM114.903 159.81L113.896 159.759L113.895 159.769L114.903 159.81ZM101.069 141.286L100.421 140.524L99.648 141.157L100.295 141.92L101.069 141.286ZM106.869 136.532L107.643 135.898L106.996 135.136L106.222 135.77L106.869 136.532ZM126.205 159.313L126.852 160.075L127.625 159.441L126.978 158.679L126.205 159.313ZM120.961 163.61L120.213 164.273L120.864 164.982L121.608 164.373L120.961 163.61ZM118.341 160.755L119.088 160.092L116.897 157.704L117.341 160.887L118.341 160.755ZM118.055 165.1L117.075 164.861L117.074 164.868L118.055 165.1ZM114.329 168.683C112.167 170.455 110.137 170.986 108.169 170.526L107.708 172.455C110.452 173.097 113.114 172.265 115.623 170.208L114.329 168.683ZM108.18 170.529C106.104 170.018 104.005 168.602 101.901 166.123L100.354 167.391C102.624 170.066 105.066 171.805 107.696 172.452L108.18 170.529ZM101.901 166.123L89.1267 151.073L87.5799 152.341L100.354 167.391L101.901 166.123ZM89.0004 152.469L94.8012 147.715L93.507 146.19L87.7062 150.945L89.0004 152.469ZM93.3806 147.587L105.727 162.133L107.274 160.866L94.9275 146.319L93.3806 147.587ZM105.727 162.133C106.862 163.471 108.099 164.433 109.452 164.924L110.145 163.064C109.224 162.73 108.262 162.029 107.274 160.866L105.727 162.133ZM109.452 164.924C111 165.486 112.496 165.092 113.821 164.006L112.527 162.481C111.625 163.221 110.871 163.327 110.145 163.064L109.452 164.924ZM113.821 164.006C115.135 162.929 115.845 161.524 115.911 159.851L113.895 159.769C113.852 160.874 113.41 161.758 112.527 162.481L113.821 164.006ZM115.91 159.862C115.994 158.172 115.385 156.608 114.189 155.199L112.642 156.467C113.568 157.558 113.951 158.646 113.896 159.759L115.91 159.862ZM114.189 155.199L101.842 140.652L100.295 141.92L112.642 156.467L114.189 155.199ZM101.716 142.048L107.516 137.294L106.222 135.77L100.421 140.524L101.716 142.048ZM106.096 137.166L125.431 159.946L126.978 158.679L107.643 135.898L106.096 137.166ZM125.558 158.55L120.314 162.848L121.608 164.373L126.852 160.075L125.558 158.55ZM121.709 162.947L119.088 160.092L117.593 161.418L120.213 164.273L121.709 162.947ZM117.341 160.887C117.513 162.115 117.431 163.437 117.075 164.861L119.034 165.339C119.442 163.707 119.55 162.132 119.34 160.623L117.341 160.887ZM117.074 164.868C116.774 166.109 115.912 167.386 114.329 168.683L115.623 170.208C117.413 168.741 118.603 167.122 119.036 165.332L117.074 164.868ZM134.556 152.391L134.95 153.305L134.958 153.301L134.966 153.298L134.556 152.391ZM131.138 153.369L131.217 154.358L131.232 154.357L131.247 154.355L131.138 153.369ZM129.034 153.348L128.079 153.662L128.269 154.217L128.854 154.323L129.034 153.348ZM127.063 147.595L127.052 146.604L125.664 146.614L126.107 147.909L127.063 147.595ZM131.04 147.089L131.261 148.057L131.267 148.056L131.04 147.089ZM137.166 142.301L136.161 142.21L136.161 142.219L136.16 142.228L137.166 142.301ZM133.457 139.601L133.289 138.623L133.289 138.623L133.457 139.601ZM128.498 140.757L128.786 141.708L128.787 141.708L128.498 140.757ZM124.905 141.53L124.745 140.55L124.905 141.53ZM120.884 141.335L120.63 142.294L120.642 142.297L120.884 141.335ZM115.26 132.021L116.251 132.211L116.251 132.209L115.26 132.021ZM125.412 121.917L125.695 122.869L125.702 122.867L125.709 122.865L125.412 121.917ZM129.102 121.258L130.054 120.935L129.84 120.33L129.191 120.271L129.102 121.258ZM131.018 126.668L131.06 127.659L132.418 127.608L131.971 126.345L131.018 126.668ZM122.026 131.556L122.994 131.839L122.994 131.839L122.026 131.556ZM125.375 134.435L125.529 135.415L125.54 135.414L125.551 135.412L125.375 134.435ZM129.552 133.377L129.866 134.321L129.872 134.318L129.552 133.377ZM136.565 132.322L136.503 133.312L136.516 133.313L136.565 132.322ZM143.973 139.243L144.961 139.044L144.959 139.038L143.973 139.243ZM143.394 144.216L144.327 144.597L144.33 144.589L143.394 144.216ZM138.45 148.682C136.804 150.031 135.371 150.952 134.146 151.483L134.966 153.298C136.424 152.665 138.019 151.621 139.745 150.207L138.45 148.682ZM134.162 151.477C132.87 152.012 131.832 152.3 131.028 152.383L131.247 154.355C132.322 154.243 133.563 153.879 134.95 153.305L134.162 151.477ZM131.058 152.381C130.14 152.449 129.546 152.433 129.214 152.373L128.854 154.323C129.453 154.432 130.261 154.429 131.217 154.358L131.058 152.381ZM129.99 153.034L128.018 147.281L126.107 147.909L128.079 153.662L129.99 153.034ZM127.074 148.587C128.311 148.577 129.709 148.396 131.261 148.057L130.818 146.121C129.361 146.439 128.108 146.595 127.052 146.604L127.074 148.587ZM131.267 148.056C132.967 147.675 134.571 146.845 136.079 145.609L134.785 144.085C133.477 145.156 132.153 145.822 130.813 146.122L131.267 148.056ZM136.079 145.609C137.239 144.659 138.084 143.584 138.172 142.375L136.16 142.228C136.132 142.613 135.821 143.235 134.785 144.085L136.079 145.609ZM138.17 142.392C138.262 141.378 138.035 140.436 137.389 139.675L135.842 140.943C136.076 141.218 136.216 141.605 136.161 142.21L138.17 142.392ZM137.389 139.675C136.435 138.551 134.915 138.357 133.289 138.623L133.626 140.579C134.994 140.355 135.58 140.633 135.842 140.943L137.389 139.675ZM133.289 138.623C131.743 138.875 130.049 139.271 128.209 139.806L128.787 141.708C130.565 141.19 132.178 140.815 133.626 140.579L133.289 138.623ZM128.21 139.806C127.186 140.102 126.032 140.351 124.745 140.55L125.064 142.509C126.421 142.3 127.663 142.033 128.786 141.708L128.21 139.806ZM124.745 140.55C123.563 140.733 122.359 140.676 121.125 140.373L120.642 142.297C122.126 142.662 123.603 142.735 125.064 142.509L124.745 140.55ZM121.137 140.376C120.047 140.095 118.975 139.395 117.934 138.168L116.387 139.436C117.623 140.892 119.033 141.881 120.63 142.294L121.137 140.376ZM117.934 138.168C116.366 136.321 115.831 134.359 116.251 132.211L114.27 131.831C113.728 134.607 114.46 137.166 116.387 139.436L117.934 138.168ZM116.251 132.209C116.675 130.021 118.138 127.814 120.832 125.606L119.537 124.081C116.632 126.462 114.811 129.04 114.27 131.832L116.251 132.209ZM120.832 125.606C122.553 124.196 124.174 123.302 125.695 122.869L125.129 120.964C123.269 121.493 121.405 122.55 119.537 124.081L120.832 125.606ZM125.709 122.865C127.398 122.358 128.46 122.196 129.013 122.246L129.191 120.271C128.209 120.182 126.812 120.459 125.114 120.969L125.709 122.865ZM128.15 121.582L130.066 126.992L131.971 126.345L130.054 120.935L128.15 121.582ZM130.977 125.678C129.886 125.718 128.672 125.929 127.342 126.292L127.888 128.203C129.113 127.868 130.168 127.692 131.06 127.659L130.977 125.678ZM127.342 126.292C125.921 126.68 124.622 127.36 123.45 128.32L124.745 129.845C125.708 129.056 126.754 128.512 127.888 128.203L127.342 126.292ZM123.45 128.32C122.258 129.297 121.355 130.284 121.059 131.273L122.994 131.839C123.108 131.458 123.585 130.795 124.745 129.845L123.45 128.32ZM121.059 131.273C120.737 132.349 121.068 133.363 121.799 134.224L123.346 132.956C122.938 132.476 122.905 132.134 122.994 131.839L121.059 131.273ZM121.799 134.224C122.721 135.31 124.052 135.636 125.529 135.415L125.221 133.455C124.23 133.603 123.692 133.364 123.346 132.956L121.799 134.224ZM125.551 135.412C126.845 135.19 128.285 134.824 129.866 134.32L129.239 132.434C127.723 132.917 126.377 133.256 125.199 133.458L125.551 135.412ZM129.872 134.318C132.35 133.51 134.556 133.188 136.503 133.312L136.627 131.333C134.359 131.188 131.89 131.569 129.232 132.436L129.872 134.318ZM136.516 133.313C138.329 133.404 139.839 134.155 141.092 135.632L142.639 134.364C141.045 132.486 139.02 131.454 136.614 131.332L136.516 133.313ZM141.092 135.632C142.049 136.759 142.678 138.027 142.987 139.448L144.959 139.038C144.581 137.3 143.804 135.738 142.639 134.364L141.092 135.632ZM142.986 139.442C143.27 140.782 143.115 142.24 142.459 143.843L144.33 144.589C145.107 142.69 145.339 140.833 144.96 139.044L142.986 139.442ZM142.462 143.835C141.816 145.371 140.513 146.991 138.45 148.682L139.745 150.207C141.951 148.398 143.513 146.533 144.326 144.597L142.462 143.835ZM153.775 134.468L153.493 135.419L153.5 135.421L153.775 134.468ZM138.273 118.939L139.046 118.305L138.399 117.543L137.626 118.176L138.273 118.939ZM135.257 121.411L134.483 122.045L135.13 122.807L135.904 122.173L135.257 121.411ZM131.18 116.608L130.533 115.845L129.759 116.479L130.406 117.242L131.18 116.608ZM134.428 113.946L135.075 114.708L135.799 114.115L135.243 113.364L134.428 113.946ZM130.676 108.876L129.776 108.427L129.498 108.967L129.862 109.458L130.676 108.876ZM133.91 102.581L134.683 101.947L133.699 100.788L133.009 102.132L133.91 102.581ZM139.811 109.534L139.038 110.168L139.685 110.93L140.458 110.296L139.811 109.534ZM145.519 104.856L146.293 104.222L145.646 103.459L144.872 104.093L145.519 104.856ZM149.596 109.659L150.243 110.421L151.017 109.787L150.369 109.025L149.596 109.659ZM143.888 114.337L143.241 113.574L142.468 114.208L143.115 114.971L143.888 114.337ZM155.646 127.078L155.388 128.035L155.404 128.04L155.421 128.043L155.646 127.078ZM159.576 124.245L158.662 123.824L158.662 123.824L159.576 124.245ZM160.45 121.706L161.053 120.913L159.728 119.937L159.456 121.539L160.45 121.706ZM165.485 125.413L166.461 125.668L166.634 125.021L166.088 124.62L165.485 125.413ZM164.363 127.845L165.218 128.373L165.225 128.363L164.363 127.845ZM162.528 130.319L161.757 129.678L161.749 129.687L161.742 129.695L162.528 130.319ZM160.149 131.363C157.636 133.423 155.641 133.962 154.049 133.515L153.5 135.421C156.043 136.136 158.728 135.114 161.444 132.888L160.149 131.363ZM154.057 133.517C152.288 133.005 150.269 131.527 148.015 128.872L146.468 130.14C148.822 132.913 151.158 134.743 153.493 135.419L154.057 133.517ZM148.015 128.872L139.046 118.305L137.5 119.573L146.468 130.14L148.015 128.872ZM137.626 118.176L134.609 120.649L135.904 122.173L138.92 119.701L137.626 118.176ZM136.03 120.777L131.953 115.974L130.406 117.242L134.483 122.045L136.03 120.777ZM131.827 117.37L135.075 114.708L133.781 113.183L130.533 115.845L131.827 117.37ZM135.243 113.364L131.491 108.294L129.862 109.458L133.613 114.527L135.243 113.364ZM131.577 109.325L134.81 103.03L133.009 102.132L129.776 108.427L131.577 109.325ZM133.136 103.214L139.038 110.168L140.585 108.9L134.683 101.947L133.136 103.214ZM140.458 110.296L146.166 105.618L144.872 104.093L139.164 108.771L140.458 110.296ZM144.746 105.49L148.823 110.293L150.369 109.025L146.293 104.222L144.746 105.49ZM148.949 108.896L143.241 113.574L144.535 115.099L150.243 110.421L148.949 108.896ZM143.115 114.971L151.967 125.4L153.514 124.133L144.662 113.703L143.115 114.971ZM151.967 125.4C153.108 126.745 154.25 127.735 155.388 128.035L155.905 126.12C155.42 125.992 154.625 125.441 153.514 124.133L151.967 125.4ZM155.421 128.043C156.556 128.303 157.615 128.036 158.512 127.302L157.218 125.777C156.784 126.133 156.364 126.225 155.872 126.112L155.421 128.043ZM158.512 127.302C159.329 126.632 159.982 125.74 160.491 124.666L158.662 123.824C158.25 124.694 157.762 125.331 157.218 125.777L158.512 127.302ZM160.491 124.666C160.973 123.647 161.302 122.711 161.445 121.872L159.456 121.539C159.353 122.141 159.1 122.899 158.662 123.824L160.491 124.666ZM159.847 122.498L164.883 126.206L166.088 124.62L161.053 120.913L159.847 122.498ZM164.51 125.158C164.348 125.766 164.022 126.487 163.502 127.327L165.225 128.363C165.811 127.417 166.234 126.517 166.461 125.668L164.51 125.158ZM163.508 127.317C162.982 128.143 162.399 128.93 161.757 129.678L163.3 130.959C164.003 130.14 164.642 129.278 165.218 128.373L163.508 127.317ZM161.742 129.695C161.12 130.455 160.589 131.003 160.149 131.363L161.444 132.888C162.025 132.412 162.649 131.755 163.314 130.942L161.742 129.695ZM171.478 121.704L171.576 122.691L171.584 122.69L171.478 121.704ZM167.274 120.922L166.816 121.804L166.828 121.81L167.274 120.922ZM162.262 115.295L161.294 115.571L161.297 115.579L161.299 115.586L162.262 115.295ZM162.173 111.296L163.165 111.476L163.165 111.476L162.173 111.296ZM164.502 106.207L165.341 106.76L165.341 106.76L164.502 106.207ZM170.378 100.151L171.025 100.913L171.798 100.279L171.151 99.5166L170.378 100.151ZM166.262 96.9697L166.009 97.9287L166.022 97.9319L166.262 96.9697ZM158.99 102.076L159.857 102.586L159.861 102.579L158.99 102.076ZM157.723 105.636L157.257 106.514L158.675 107.243L158.73 105.673L157.723 105.636ZM152.139 102.766L151.168 102.494L150.946 103.27L151.674 103.644L152.139 102.766ZM154.395 98.0077L155.257 98.5254L155.26 98.5205L154.395 98.0077ZM165.124 89.603L165.319 90.5763L165.319 90.5763L165.124 89.603ZM170.277 90.3437L169.797 91.2144L169.801 91.2164L170.277 90.3437ZM187.486 109.089L188.133 109.851L188.906 109.217L188.259 108.455L187.486 109.089ZM182.52 113.158L181.834 113.883L182.486 114.479L183.167 113.921L182.52 113.158ZM179.346 110.253L180.032 109.528L177.926 107.6L178.348 110.396L179.346 110.253ZM176.085 110.676L177.06 110.933L177.061 110.929L176.085 110.676ZM176.163 106.966L177.149 106.761L177.096 106.521L176.936 106.333L176.163 106.966ZM173.406 103.719L174.18 103.085L173.649 102.46L172.923 102.847L173.406 103.719ZM169.815 107.089L170.601 107.712L170.609 107.702L169.815 107.089ZM168.283 110.012L167.303 109.775L167.303 109.775L168.283 110.012ZM175.177 118.969C173.869 120.042 172.603 120.594 171.373 120.717L171.584 122.69C173.302 122.517 174.933 121.755 176.471 120.494L175.177 118.969ZM171.38 120.717C170.113 120.834 168.9 120.61 167.72 120.034L166.828 121.81C168.336 122.547 169.926 122.844 171.576 122.691L171.38 120.717ZM167.732 120.04C166.537 119.438 165.446 118.568 164.463 117.409L162.916 118.677C164.055 120.018 165.354 121.068 166.816 121.804L167.732 120.04ZM164.463 117.409C163.974 116.833 163.553 116.045 163.225 115.005L161.299 115.586C161.683 116.806 162.213 117.849 162.916 118.677L164.463 117.409ZM163.23 115.019C162.945 114.062 162.904 112.892 163.165 111.476L161.181 111.116C160.88 112.747 160.899 114.242 161.294 115.571L163.23 115.019ZM163.165 111.476C163.413 110.133 164.114 108.564 165.341 106.76L163.664 105.654C162.347 107.589 161.495 109.414 161.181 111.116L163.165 111.476ZM165.341 106.76C166.54 104.998 168.42 103.048 171.025 100.913L169.731 99.3881C167.045 101.589 165.008 103.677 163.664 105.654L165.341 106.76ZM171.151 99.5166L170.258 98.4645L168.711 99.7323L169.604 100.784L171.151 99.5166ZM170.258 98.4645C169.193 97.2098 167.944 96.3594 166.502 96.0075L166.022 97.9319C166.962 98.1615 167.861 98.7303 168.711 99.7323L170.258 98.4645ZM166.515 96.0108C164.845 95.5796 163.085 96.38 161.369 97.7869L162.663 99.3117C164.256 98.0056 165.328 97.7529 166.009 97.9287L166.515 96.0108ZM161.369 97.7869C160.071 98.8506 158.987 100.115 158.119 101.574L159.861 102.579C160.614 101.313 161.548 100.226 162.663 99.3117L161.369 97.7869ZM158.123 101.567C157.268 102.979 156.759 104.331 156.715 105.598L158.73 105.673C158.759 104.864 159.095 103.843 159.857 102.586L158.123 101.567ZM158.188 104.757L152.604 101.887L151.674 103.644L157.257 106.514L158.188 104.757ZM153.11 103.038C153.474 101.768 154.178 100.266 155.257 98.5254L153.534 97.4899C152.399 99.3214 151.599 100.992 151.168 102.494L153.11 103.038ZM155.26 98.5205C156.304 96.814 157.731 95.209 159.561 93.7099L158.266 92.1851C156.29 93.8046 154.706 95.5731 153.531 97.4948L155.26 98.5205ZM159.561 93.7099C161.788 91.8842 163.704 90.8846 165.319 90.5763L164.929 88.6296C162.842 89.0281 160.617 90.2582 158.266 92.1851L159.561 93.7099ZM165.319 90.5763C166.952 90.2646 168.429 90.4829 169.797 91.2144L170.757 89.473C168.955 88.51 166.998 88.2346 164.929 88.6296L165.319 90.5763ZM169.801 91.2164C171.234 91.9749 172.642 93.1453 174.016 94.7644L175.563 93.4966C174.064 91.7305 172.463 90.3764 170.753 89.471L169.801 91.2164ZM174.016 94.7644L186.712 109.723L188.259 108.455L175.563 93.4966L174.016 94.7644ZM186.838 108.326L181.873 112.396L183.167 113.921L188.133 109.851L186.838 108.326ZM183.206 112.434L180.032 109.528L178.66 110.978L181.834 113.883L183.206 112.434ZM178.348 110.396C178.891 113.985 177.831 116.794 175.177 118.969L176.471 120.494C179.695 117.852 180.983 114.342 180.343 110.11L178.348 110.396ZM175.204 114.087C176.111 113.344 176.704 112.252 177.06 110.933L175.11 110.418C174.821 111.491 174.395 112.165 173.909 112.562L175.204 114.087ZM177.061 110.929C177.427 109.554 177.455 108.161 177.149 106.761L175.177 107.172C175.418 108.271 175.395 109.35 175.11 110.422L177.061 110.929ZM176.936 106.333L174.18 103.085L172.633 104.352L175.39 107.6L176.936 106.333ZM172.923 102.847C172.675 102.979 172.438 103.142 172.21 103.329L173.504 104.854C173.648 104.736 173.776 104.651 173.889 104.59L172.923 102.847ZM172.21 103.329C172.21 103.329 172.209 103.329 172.209 103.33C172.209 103.33 172.208 103.33 172.208 103.33C172.208 103.331 172.207 103.331 172.207 103.331C172.207 103.331 172.206 103.332 172.206 103.332C172.206 103.332 172.205 103.333 172.205 103.333C172.205 103.333 172.204 103.333 172.204 103.334C172.204 103.334 172.203 103.334 172.203 103.334C172.203 103.335 172.202 103.335 172.202 103.335C172.202 103.336 172.201 103.336 172.201 103.336C172.201 103.336 172.2 103.337 172.2 103.337C172.2 103.337 172.199 103.338 172.199 103.338C172.199 103.338 172.198 103.338 172.198 103.339C172.198 103.339 172.197 103.339 172.197 103.339C172.197 103.34 172.196 103.34 172.196 103.34C172.196 103.341 172.195 103.341 172.195 103.341C172.195 103.341 172.194 103.342 172.194 103.342C172.194 103.342 172.193 103.342 172.193 103.343C172.193 103.343 172.192 103.343 172.192 103.344C172.192 103.344 172.191 103.344 172.191 103.344C172.191 103.345 172.19 103.345 172.19 103.345C172.19 103.345 172.189 103.346 172.189 103.346C172.189 103.346 172.188 103.347 172.188 103.347C172.187 103.347 172.187 103.347 172.187 103.348C172.186 103.348 172.186 103.348 172.186 103.349C172.185 103.349 172.185 103.349 172.185 103.349C172.184 103.35 172.184 103.35 172.184 103.35C172.183 103.35 172.183 103.351 172.183 103.351C172.182 103.351 172.182 103.352 172.182 103.352C172.181 103.352 172.181 103.352 172.181 103.353C172.18 103.353 172.18 103.353 172.18 103.354C172.179 103.354 172.179 103.354 172.179 103.354C172.178 103.355 172.178 103.355 172.178 103.355C172.177 103.355 172.177 103.356 172.177 103.356C172.176 103.356 172.176 103.357 172.176 103.357C172.175 103.357 172.175 103.357 172.175 103.358C172.174 103.358 172.174 103.358 172.174 103.359C172.173 103.359 172.173 103.359 172.173 103.359C172.172 103.36 172.172 103.36 172.172 103.36C172.171 103.361 172.171 103.361 172.171 103.361C172.17 103.361 172.17 103.362 172.169 103.362C172.169 103.362 172.169 103.362 172.168 103.363C172.168 103.363 172.168 103.363 172.167 103.364C172.167 103.364 172.167 103.364 172.166 103.364C172.166 103.365 172.166 103.365 172.165 103.365C172.165 103.366 172.165 103.366 172.164 103.366C172.164 103.366 172.164 103.367 172.163 103.367C172.163 103.367 172.163 103.368 172.162 103.368C172.162 103.368 172.162 103.368 172.161 103.369C172.161 103.369 172.161 103.369 172.16 103.37C172.16 103.37 172.16 103.37 172.159 103.37C172.159 103.371 172.159 103.371 172.158 103.371C172.158 103.371 172.157 103.372 172.157 103.372C172.157 103.372 172.156 103.373 172.156 103.373C172.156 103.373 172.155 103.373 172.155 103.374C172.155 103.374 172.154 103.374 172.154 103.375C172.154 103.375 172.153 103.375 172.153 103.375C172.153 103.376 172.152 103.376 172.152 103.376C172.152 103.377 172.151 103.377 172.151 103.377C172.151 103.377 172.15 103.378 172.15 103.378C172.15 103.378 172.149 103.379 172.149 103.379C172.148 103.379 172.148 103.379 172.148 103.38C172.147 103.38 172.147 103.38 172.147 103.381C172.146 103.381 172.146 103.381 172.146 103.381C172.145 103.382 172.145 103.382 172.145 103.382C172.144 103.383 172.144 103.383 172.144 103.383C172.143 103.383 172.143 103.384 172.143 103.384C172.142 103.384 172.142 103.385 172.142 103.385C172.141 103.385 172.141 103.385 172.141 103.386C172.14 103.386 172.14 103.386 172.139 103.387C172.139 103.387 172.139 103.387 172.138 103.387C172.138 103.388 172.138 103.388 172.137 103.388C172.137 103.389 172.137 103.389 172.136 103.389C172.136 103.389 172.136 103.39 172.135 103.39C172.135 103.39 172.135 103.391 172.134 103.391C172.134 103.391 172.134 103.391 172.133 103.392C172.133 103.392 172.132 103.392 172.132 103.393C172.132 103.393 172.131 103.393 172.131 103.393C172.131 103.394 172.13 103.394 172.13 103.394C172.13 103.395 172.129 103.395 172.129 103.395C172.129 103.395 172.128 103.396 172.128 103.396C172.128 103.396 172.127 103.397 172.127 103.397C172.127 103.397 172.126 103.397 172.126 103.398C172.125 103.398 172.125 103.398 172.125 103.399C172.124 103.399 172.124 103.399 172.124 103.399C172.123 103.4 172.123 103.4 172.123 103.4C172.122 103.401 172.122 103.401 172.122 103.401C172.121 103.401 172.121 103.402 172.121 103.402C172.12 103.402 172.12 103.403 172.119 103.403C172.119 103.403 172.119 103.403 172.118 103.404C172.118 103.404 172.118 103.404 172.117 103.405C172.117 103.405 172.117 103.405 172.116 103.406C172.116 103.406 172.116 103.406 172.115 103.406C172.115 103.407 172.115 103.407 172.114 103.407C172.114 103.408 172.113 103.408 172.113 103.408C172.113 103.408 172.112 103.409 172.112 103.409C172.112 103.409 172.111 103.41 172.111 103.41C172.111 103.41 172.11 103.41 172.11 103.411C172.11 103.411 172.109 103.411 172.109 103.412C172.108 103.412 172.108 103.412 172.108 103.413C172.107 103.413 172.107 103.413 172.107 103.413C172.106 103.414 172.106 103.414 172.106 103.414C172.105 103.415 172.105 103.415 172.105 103.415C172.104 103.415 172.104 103.416 172.103 103.416C172.103 103.416 172.103 103.417 172.102 103.417C172.102 103.417 172.102 103.417 172.101 103.418C172.101 103.418 172.101 103.418 172.1 103.419C172.1 103.419 172.1 103.419 172.099 103.42C172.099 103.42 172.098 103.42 172.098 103.42C172.098 103.421 172.097 103.421 172.097 103.421C172.097 103.422 172.096 103.422 172.096 103.422C172.096 103.422 172.095 103.423 172.095 103.423C172.095 103.423 172.094 103.424 172.094 103.424C172.093 103.424 172.093 103.425 172.093 103.425C172.092 103.425 172.092 103.425 172.092 103.426C172.091 103.426 172.091 103.426 172.091 103.427C172.09 103.427 172.09 103.427 172.09 103.427C172.089 103.428 172.089 103.428 172.088 103.428C172.088 103.429 172.088 103.429 172.087 103.429C172.087 103.43 172.087 103.43 172.086 103.43C172.086 103.43 172.086 103.431 172.085 103.431C172.085 103.431 172.084 103.432 172.084 103.432C172.084 103.432 172.083 103.432 172.083 103.433C172.083 103.433 172.082 103.433 172.082 103.434C172.082 103.434 172.081 103.434 172.081 103.435C172.081 103.435 172.08 103.435 172.08 103.435C172.079 103.436 172.079 103.436 172.079 103.436C172.078 103.437 172.078 103.437 172.078 103.437C172.077 103.438 172.077 103.438 172.077 103.438C172.076 103.438 172.076 103.439 172.075 103.439C172.075 103.439 172.075 103.44 172.074 103.44C172.074 103.44 172.074 103.44 172.073 103.441C172.073 103.441 172.073 103.441 172.072 103.442C172.072 103.442 172.071 103.442 172.071 103.443C172.071 103.443 172.07 103.443 172.07 103.443C172.07 103.444 172.069 103.444 172.069 103.444C172.069 103.445 172.068 103.445 172.068 103.445C172.067 103.446 172.067 103.446 172.067 103.446C172.066 103.446 172.066 103.447 172.066 103.447C172.065 103.447 172.065 103.448 172.065 103.448C172.064 103.448 172.064 103.449 172.063 103.449C172.063 103.449 172.063 103.449 172.062 103.45C172.062 103.45 172.062 103.45 172.061 103.451C172.061 103.451 172.06 103.451 172.06 103.452C172.06 103.452 172.059 103.452 172.059 103.452C172.059 103.453 172.058 103.453 172.058 103.453C172.058 103.454 172.057 103.454 172.057 103.454C172.056 103.455 172.056 103.455 172.056 103.455C172.055 103.455 172.055 103.456 172.055 103.456C172.054 103.456 172.054 103.457 172.054 103.457C172.053 103.457 172.053 103.458 172.052 103.458C172.052 103.458 172.052 103.458 172.051 103.459C172.051 103.459 172.051 103.459 172.05 103.46C172.05 103.46 172.049 103.46 172.049 103.461C172.049 103.461 172.048 103.461 172.048 103.461C172.048 103.462 172.047 103.462 172.047 103.462C172.047 103.463 172.046 103.463 172.046 103.463C172.045 103.464 172.045 103.464 172.045 103.464C172.044 103.465 172.044 103.465 172.044 103.465C172.043 103.465 172.043 103.466 172.042 103.466C172.042 103.466 172.042 103.467 172.041 103.467C172.041 103.467 172.041 103.468 172.04 103.468C172.04 103.468 172.04 103.468 172.039 103.469C172.039 103.469 172.038 103.469 172.038 103.47C172.038 103.47 172.037 103.47 172.037 103.471C172.037 103.471 172.036 103.471 172.036 103.471C172.035 103.472 172.035 103.472 172.035 103.472C172.034 103.473 172.034 103.473 172.034 103.473C172.033 103.474 172.033 103.474 172.032 103.474C172.032 103.475 172.032 103.475 172.031 103.475C172.031 103.475 172.031 103.476 172.03 103.476C172.03 103.476 172.029 103.477 172.029 103.477C172.029 103.477 172.028 103.478 172.028 103.478C172.028 103.478 172.027 103.479 172.027 103.479C172.026 103.479 172.026 103.479 172.026 103.48C172.025 103.48 172.025 103.48 172.025 103.481C172.024 103.481 172.024 103.481 172.023 103.482C172.023 103.482 172.023 103.482 172.022 103.482C172.022 103.483 172.022 103.483 172.021 103.483C172.021 103.484 172.021 103.484 172.02 103.484C172.02 103.485 172.019 103.485 172.019 103.485C172.019 103.486 172.018 103.486 172.018 103.486C172.018 103.486 172.017 103.487 172.017 103.487C172.016 103.487 172.016 103.488 172.016 103.488C172.015 103.488 172.015 103.489 172.015 103.489C172.014 103.489 172.014 103.49 172.013 103.49C172.013 103.49 172.013 103.49 172.012 103.491C172.012 103.491 172.011 103.491 172.011 103.492C172.011 103.492 172.01 103.492 172.01 103.493C172.01 103.493 172.009 103.493 172.009 103.494C172.008 103.494 172.008 103.494 172.008 103.494C172.007 103.495 172.007 103.495 172.007 103.495C172.006 103.496 172.006 103.496 172.005 103.496C172.005 103.497 172.005 103.497 172.004 103.497C172.004 103.498 172.004 103.498 172.003 103.498C172.003 103.499 172.002 103.499 172.002 103.499C172.002 103.499 172.001 103.5 172.001 103.5C172.001 103.5 172 103.501 172 103.501C171.999 103.501 171.999 103.502 171.999 103.502C171.998 103.502 171.998 103.503 171.998 103.503C171.997 103.503 171.997 103.503 171.996 103.504C171.996 103.504 171.996 103.504 171.995 103.505C171.995 103.505 171.994 103.505 171.994 103.506C171.994 103.506 171.993 103.506 171.993 103.507C171.993 103.507 171.992 103.507 171.992 103.508C171.991 103.508 171.991 103.508 171.991 103.508C171.99 103.509 171.99 103.509 171.99 103.509C171.989 103.51 171.989 103.51 171.988 103.51C171.988 103.511 171.988 103.511 171.987 103.511C171.987 103.512 171.986 103.512 171.986 103.512C171.986 103.513 171.985 103.513 171.985 103.513C171.985 103.513 171.984 103.514 171.984 103.514C171.983 103.514 171.983 103.515 171.983 103.515C171.982 103.515 171.982 103.516 171.982 103.516C171.981 103.516 171.981 103.517 171.98 103.517C171.98 103.517 171.98 103.518 171.979 103.518C171.979 103.518 171.978 103.518 171.978 103.519C171.978 103.519 171.977 103.519 171.977 103.52C171.977 103.52 171.976 103.52 171.976 103.521C171.975 103.521 171.975 103.521 171.975 103.522C171.974 103.522 171.974 103.522 171.973 103.523C171.973 103.523 171.973 103.523 171.972 103.524C171.972 103.524 171.972 103.524 171.971 103.524C171.971 103.525 171.97 103.525 171.97 103.525C171.97 103.526 171.969 103.526 171.969 103.526C171.968 103.527 171.968 103.527 171.968 103.527C171.967 103.528 171.967 103.528 171.967 103.528C171.966 103.529 171.966 103.529 171.965 103.529C171.965 103.53 171.965 103.53 171.964 103.53C171.964 103.53 171.963 103.531 171.963 103.531C171.963 103.531 171.962 103.532 171.962 103.532C171.962 103.532 171.961 103.533 171.961 103.533C171.96 103.533 171.96 103.534 171.96 103.534C171.959 103.534 171.959 103.535 171.958 103.535C171.958 103.535 171.958 103.536 171.957 103.536C171.957 103.536 171.956 103.536 171.956 103.537C171.956 103.537 171.955 103.537 171.955 103.538C171.955 103.538 171.954 103.538 171.954 103.539C171.953 103.539 171.953 103.539 171.953 103.54C171.952 103.54 171.952 103.54 171.951 103.541C171.951 103.541 171.951 103.541 171.95 103.542C171.95 103.542 171.949 103.542 171.949 103.543C171.949 103.543 171.948 103.543 171.948 103.543C171.948 103.544 171.947 103.544 171.947 103.544C171.946 103.545 171.946 103.545 171.946 103.545C171.945 103.546 171.945 103.546 171.944 103.546C171.944 103.547 171.944 103.547 171.943 103.547C171.943 103.548 171.942 103.548 171.942 103.548C171.942 103.549 171.941 103.549 171.941 103.549C171.941 103.55 171.94 103.55 171.94 103.55C171.939 103.551 171.939 103.551 171.939 103.551C171.938 103.551 171.938 103.552 171.937 103.552C171.937 103.552 171.937 103.553 171.936 103.553C171.936 103.553 171.935 103.554 171.935 103.554C171.935 103.554 171.934 103.555 171.934 103.555C171.933 103.555 171.933 103.556 171.933 103.556C171.932 103.556 171.932 103.557 171.932 103.557C171.931 103.557 171.931 103.558 171.93 103.558C171.93 103.558 171.93 103.559 171.929 103.559C171.929 103.559 171.928 103.56 171.928 103.56C171.928 103.56 171.927 103.561 171.927 103.561C171.926 103.561 171.926 103.561 171.926 103.562C171.925 103.562 171.925 103.562 171.924 103.563C171.924 103.563 171.924 103.563 171.923 103.564C171.923 103.564 171.922 103.564 171.922 103.565C171.922 103.565 171.921 103.565 171.921 103.566C171.92 103.566 171.92 103.566 171.92 103.567C171.919 103.567 171.919 103.567 171.918 103.568C171.918 103.568 171.918 103.568 171.917 103.569C171.917 103.569 171.917 103.569 171.916 103.57C171.916 103.57 171.915 103.57 171.915 103.571C171.915 103.571 171.914 103.571 171.914 103.572C171.913 103.572 171.913 103.572 171.913 103.572C171.912 103.573 171.912 103.573 171.911 103.573C171.911 103.574 171.911 103.574 171.91 103.574C171.91 103.575 171.909 103.575 171.909 103.575C171.909 103.576 171.908 103.576 171.908 103.576C171.907 103.577 171.907 103.577 171.907 103.577C171.906 103.578 171.906 103.578 171.905 103.578C171.905 103.579 171.905 103.579 171.904 103.579C171.904 103.58 171.903 103.58 171.903 103.58C171.903 103.581 171.902 103.581 171.902 103.581C171.901 103.582 171.901 103.582 171.901 103.582C171.9 103.583 171.9 103.583 171.899 103.583C171.899 103.584 171.899 103.584 171.898 103.584C171.898 103.585 171.897 103.585 171.897 103.585C171.897 103.586 171.896 103.586 171.896 103.586C171.895 103.587 171.895 103.587 171.895 103.587C171.894 103.588 171.894 103.588 171.893 103.588C171.893 103.588 171.893 103.589 171.892 103.589C171.892 103.589 171.891 103.59 171.891 103.59C171.891 103.59 171.89 103.591 171.89 103.591C171.889 103.591 171.889 103.592 171.889 103.592C171.888 103.592 171.888 103.593 171.887 103.593C171.887 103.593 171.887 103.594 171.886 103.594C171.886 103.594 171.885 103.595 171.885 103.595C171.885 103.595 171.884 103.596 171.884 103.596C171.883 103.596 171.883 103.597 171.883 103.597C171.882 103.597 171.882 103.598 171.881 103.598C171.881 103.598 171.881 103.599 171.88 103.599C171.88 103.599 171.879 103.6 171.879 103.6C171.879 103.6 171.878 103.601 171.878 103.601C171.877 103.601 171.877 103.602 171.877 103.602C171.876 103.602 171.876 103.603 171.875 103.603C171.875 103.603 171.875 103.604 171.874 103.604C171.874 103.604 171.873 103.605 171.873 103.605C171.873 103.605 171.872 103.606 171.872 103.606C171.871 103.606 171.871 103.607 171.87 103.607C171.87 103.607 171.87 103.608 171.869 103.608C171.869 103.608 171.868 103.609 171.868 103.609C171.868 103.609 171.867 103.61 171.867 103.61C171.866 103.61 171.866 103.611 171.866 103.611C171.865 103.611 171.865 103.612 171.864 103.612C171.864 103.612 171.864 103.613 171.863 103.613C171.863 103.613 171.862 103.614 171.862 103.614C171.862 103.614 171.861 103.615 171.861 103.615C171.86 103.615 171.86 103.616 171.86 103.616C171.859 103.616 171.859 103.617 171.858 103.617C171.858 103.617 171.857 103.618 171.857 103.618C171.857 103.618 171.856 103.619 171.856 103.619C171.855 103.619 171.855 103.62 171.855 103.62C171.854 103.62 171.854 103.621 171.853 103.621C171.853 103.621 171.853 103.622 171.852 103.622C171.852 103.622 171.851 103.623 171.851 103.623C171.851 103.623 171.85 103.624 171.85 103.624C171.849 103.624 171.849 103.625 171.849 103.625C171.848 103.625 171.848 103.626 171.847 103.626C171.847 103.626 171.846 103.627 171.846 103.627C171.846 103.627 171.845 103.628 171.845 103.628C171.844 103.628 171.844 103.629 171.844 103.629C171.843 103.629 171.843 103.63 171.842 103.63C171.842 103.63 171.842 103.631 171.841 103.631C171.841 103.631 171.84 103.632 171.84 103.632C171.839 103.632 171.839 103.633 171.839 103.633C171.838 103.633 171.838 103.634 171.837 103.634C171.837 103.634 171.837 103.635 171.836 103.635C171.836 103.635 171.835 103.636 171.835 103.636C171.835 103.636 171.834 103.637 171.834 103.637C171.833 103.637 171.833 103.638 171.833 103.638C171.832 103.638 171.832 103.639 171.831 103.639C171.831 103.639 171.83 103.64 171.83 103.64C171.83 103.64 171.829 103.641 171.829 103.641C171.828 103.641 171.828 103.642 171.828 103.642C171.827 103.642 171.827 103.643 171.826 103.643C171.826 103.644 171.825 103.644 171.825 103.644C171.825 103.645 171.824 103.645 171.824 103.645C171.823 103.646 171.823 103.646 171.823 103.646C171.822 103.647 171.822 103.647 171.821 103.647C171.821 103.648 171.821 103.648 171.82 103.648C171.82 103.649 171.819 103.649 171.819 103.649C171.818 103.65 171.818 103.65 171.818 103.65C171.817 103.651 171.817 103.651 171.816 103.651C171.816 103.652 171.816 103.652 171.815 103.652C171.815 103.653 171.814 103.653 171.814 103.653C171.813 103.654 171.813 103.654 171.813 103.654C171.812 103.655 171.812 103.655 171.811 103.655C171.811 103.656 171.811 103.656 171.81 103.656C171.81 103.657 171.809 103.657 171.809 103.657C171.808 103.658 171.808 103.658 171.808 103.658C171.807 103.659 171.807 103.659 171.806 103.66C171.806 103.66 171.806 103.66 171.805 103.661C171.805 103.661 171.804 103.661 171.804 103.662C171.803 103.662 171.803 103.662 171.803 103.663C171.802 103.663 171.802 103.663 171.801 103.664C171.801 103.664 171.801 103.664 171.8 103.665C171.8 103.665 171.799 103.665 171.799 103.666C171.798 103.666 171.798 103.666 171.798 103.667C171.797 103.667 171.797 103.667 171.796 103.668C171.796 103.668 171.796 103.668 171.795 103.669C171.795 103.669 171.794 103.669 171.794 103.67C171.793 103.67 171.793 103.67 171.793 103.671C171.792 103.671 171.792 103.672 171.791 103.672C171.791 103.672 171.79 103.673 171.79 103.673C171.79 103.673 171.789 103.674 171.789 103.674C171.788 103.674 171.788 103.675 171.788 103.675C171.787 103.675 171.787 103.676 171.786 103.676C171.786 103.676 171.785 103.677 171.785 103.677C171.785 103.677 171.784 103.678 171.784 103.678C171.783 103.678 171.783 103.679 171.782 103.679C171.782 103.679 171.782 103.68 171.781 103.68C171.781 103.68 171.78 103.681 171.78 103.681C171.78 103.682 171.779 103.682 171.779 103.682C171.778 103.683 171.778 103.683 171.777 103.683C171.777 103.684 171.777 103.684 171.776 103.684C171.776 103.685 171.775 103.685 171.775 103.685C171.774 103.686 171.774 103.686 171.774 103.686C171.773 103.687 171.773 103.687 171.772 103.687C171.772 103.688 171.771 103.688 171.771 103.688C171.771 103.689 171.77 103.689 171.77 103.689C171.769 103.69 171.769 103.69 171.769 103.691C171.768 103.691 171.768 103.691 171.767 103.692C171.767 103.692 171.766 103.692 171.766 103.693C171.766 103.693 171.765 103.693 171.765 103.694C171.764 103.694 171.764 103.694 171.763 103.695C171.763 103.695 171.763 103.695 171.762 103.696C171.762 103.696 171.761 103.696 171.761 103.697C171.76 103.697 171.76 103.697 171.76 103.698C171.759 103.698 171.759 103.699 171.758 103.699C171.758 103.699 171.757 103.7 171.757 103.7C171.757 103.7 171.756 103.701 171.756 103.701C171.755 103.701 171.755 103.702 171.754 103.702C171.754 103.702 171.754 103.703 171.753 103.703C171.753 103.703 171.752 103.704 171.752 103.704C171.751 103.704 171.751 103.705 171.751 103.705C171.75 103.706 171.75 103.706 171.749 103.706C171.749 103.707 171.749 103.707 171.748 103.707C171.748 103.708 171.747 103.708 171.747 103.708C171.746 103.709 171.746 103.709 171.746 103.709C171.745 103.71 171.745 103.71 171.744 103.71C171.744 103.711 171.743 103.711 171.743 103.712C171.743 103.712 171.742 103.712 171.742 103.713C171.741 103.713 171.741 103.713 171.74 103.714C171.74 103.714 171.74 103.714 171.739 103.715C171.739 103.715 171.738 103.715 171.738 103.716C171.737 103.716 171.737 103.716 171.736 103.717C171.736 103.717 171.736 103.717 171.735 103.718C171.735 103.718 171.734 103.719 171.734 103.719C171.733 103.719 171.733 103.72 171.733 103.72C171.732 103.72 171.732 103.721 171.731 103.721C171.731 103.721 171.73 103.722 171.73 103.722C171.73 103.722 171.729 103.723 171.729 103.723C171.728 103.723 171.728 103.724 171.727 103.724C171.727 103.725 171.727 103.725 171.726 103.725C171.726 103.726 171.725 103.726 171.725 103.726C171.724 103.727 171.724 103.727 171.724 103.727C171.723 103.728 171.723 103.728 171.722 103.728C171.722 103.729 171.721 103.729 171.721 103.73C171.721 103.73 171.72 103.73 171.72 103.731C171.719 103.731 171.719 103.731 171.718 103.732C171.718 103.732 171.717 103.732 171.717 103.733C171.717 103.733 171.716 103.733 171.716 103.734C171.715 103.734 171.715 103.734 171.714 103.735C171.714 103.735 171.714 103.736 171.713 103.736C171.713 103.736 171.712 103.737 171.712 103.737C171.711 103.737 171.711 103.738 171.711 103.738C171.71 103.738 171.71 103.739 171.709 103.739C171.709 103.739 171.708 103.74 171.708 103.74C171.708 103.741 171.707 103.741 171.707 103.741C171.706 103.742 171.706 103.742 171.705 103.742C171.705 103.743 171.704 103.743 171.704 103.743C171.704 103.744 171.703 103.744 171.703 103.744C171.702 103.745 171.702 103.745 171.701 103.746C171.701 103.746 171.701 103.746 171.7 103.747C171.7 103.747 171.699 103.747 171.699 103.748C171.698 103.748 171.698 103.748 171.697 103.749C171.697 103.749 171.697 103.749 171.696 103.75C171.696 103.75 171.695 103.751 171.695 103.751C171.694 103.751 171.694 103.752 171.694 103.752C171.693 103.752 171.693 103.753 171.692 103.753C171.692 103.753 171.691 103.754 171.691 103.754C171.69 103.755 171.69 103.755 171.69 103.755C171.689 103.756 171.689 103.756 171.688 103.756C171.688 103.757 171.687 103.757 171.687 103.757C171.687 103.758 171.686 103.758 171.686 103.758C171.685 103.759 171.685 103.759 171.684 103.76C171.684 103.76 171.683 103.76 171.683 103.761C171.683 103.761 171.682 103.761 171.682 103.762C171.681 103.762 171.681 103.762 171.68 103.763C171.68 103.763 171.679 103.764 171.679 103.764C171.679 103.764 171.678 103.765 171.678 103.765C171.677 103.765 171.677 103.766 171.676 103.766C171.676 103.766 171.676 103.767 171.675 103.767C171.675 103.767 171.674 103.768 171.674 103.768C171.673 103.769 171.673 103.769 171.672 103.769C171.672 103.77 171.672 103.77 171.671 103.77C171.671 103.771 171.67 103.771 171.67 103.771C171.669 103.772 171.669 103.772 171.668 103.773C171.668 103.773 171.668 103.773 171.667 103.774C171.667 103.774 171.666 103.774 171.666 103.775C171.665 103.775 171.665 103.775 171.664 103.776C171.664 103.776 171.664 103.777 171.663 103.777C171.663 103.777 171.662 103.778 171.662 103.778C171.661 103.778 171.661 103.779 171.66 103.779C171.66 103.779 171.66 103.78 171.659 103.78C171.659 103.781 171.658 103.781 171.658 103.781C171.657 103.782 171.657 103.782 171.656 103.782C171.656 103.783 171.656 103.783 171.655 103.783C171.655 103.784 171.654 103.784 171.654 103.785C171.653 103.785 171.653 103.785 171.652 103.786C171.652 103.786 171.652 103.786 171.651 103.787C171.651 103.787 171.65 103.787 171.65 103.788C171.649 103.788 171.649 103.789 171.648 103.789C171.648 103.789 171.648 103.79 171.647 103.79C171.647 103.79 171.646 103.791 171.646 103.791C171.645 103.791 171.645 103.792 171.644 103.792C171.644 103.793 171.644 103.793 171.643 103.793C171.643 103.794 171.642 103.794 171.642 103.794C171.641 103.795 171.641 103.795 171.64 103.796C171.64 103.796 171.64 103.796 171.639 103.797C171.639 103.797 171.638 103.797 171.638 103.798C171.637 103.798 171.637 103.798 171.636 103.799C171.636 103.799 171.636 103.8 171.635 103.8C171.635 103.8 171.634 103.801 171.634 103.801C171.633 103.801 171.633 103.802 171.632 103.802C171.632 103.802 171.631 103.803 171.631 103.803C171.631 103.804 171.63 103.804 171.63 103.804C171.629 103.805 171.629 103.805 171.628 103.805C171.628 103.806 171.627 103.806 171.627 103.807C171.627 103.807 171.626 103.807 171.626 103.808C171.625 103.808 171.625 103.808 171.624 103.809C171.624 103.809 171.623 103.809 171.623 103.81C171.622 103.81 171.622 103.811 171.622 103.811C171.621 103.811 171.621 103.812 171.62 103.812C171.62 103.812 171.619 103.813 171.619 103.813C171.618 103.814 171.618 103.814 171.618 103.814C171.617 103.815 171.617 103.815 171.616 103.815C171.616 103.816 171.615 103.816 171.615 103.817C171.614 103.817 171.614 103.817 171.613 103.818C171.613 103.818 171.613 103.818 171.612 103.819C171.612 103.819 171.611 103.819 171.611 103.82C171.61 103.82 171.61 103.821 171.609 103.821C171.609 103.821 171.608 103.822 171.608 103.822C171.608 103.822 171.607 103.823 171.607 103.823L172.901 105.348C172.901 105.348 172.902 105.347 172.902 105.347C172.903 105.347 172.903 105.346 172.904 105.346C172.904 105.345 172.904 105.345 172.905 105.345C172.905 105.344 172.906 105.344 172.906 105.344C172.907 105.343 172.907 105.343 172.908 105.342C172.908 105.342 172.909 105.342 172.909 105.341C172.909 105.341 172.91 105.341 172.91 105.34C172.911 105.34 172.911 105.339 172.912 105.339C172.912 105.339 172.913 105.338 172.913 105.338C172.914 105.338 172.914 105.337 172.914 105.337C172.915 105.337 172.915 105.336 172.916 105.336C172.916 105.335 172.917 105.335 172.917 105.335C172.918 105.334 172.918 105.334 172.918 105.334C172.919 105.333 172.919 105.333 172.92 105.332C172.92 105.332 172.921 105.332 172.921 105.331C172.922 105.331 172.922 105.331 172.923 105.33C172.923 105.33 172.923 105.33 172.924 105.329C172.924 105.329 172.925 105.328 172.925 105.328C172.926 105.328 172.926 105.327 172.927 105.327C172.927 105.327 172.927 105.326 172.928 105.326C172.928 105.325 172.929 105.325 172.929 105.325C172.93 105.324 172.93 105.324 172.931 105.324C172.931 105.323 172.931 105.323 172.932 105.323C172.932 105.322 172.933 105.322 172.933 105.321C172.934 105.321 172.934 105.321 172.935 105.32C172.935 105.32 172.936 105.32 172.936 105.319C172.936 105.319 172.937 105.318 172.937 105.318C172.938 105.318 172.938 105.317 172.939 105.317C172.939 105.317 172.94 105.316 172.94 105.316C172.94 105.316 172.941 105.315 172.941 105.315C172.942 105.314 172.942 105.314 172.943 105.314C172.943 105.313 172.944 105.313 172.944 105.313C172.944 105.312 172.945 105.312 172.945 105.312C172.946 105.311 172.946 105.311 172.947 105.31C172.947 105.31 172.948 105.31 172.948 105.309C172.948 105.309 172.949 105.309 172.949 105.308C172.95 105.308 172.95 105.308 172.951 105.307C172.951 105.307 172.952 105.306 172.952 105.306C172.952 105.306 172.953 105.305 172.953 105.305C172.954 105.305 172.954 105.304 172.955 105.304C172.955 105.304 172.956 105.303 172.956 105.303C172.956 105.302 172.957 105.302 172.957 105.302C172.958 105.301 172.958 105.301 172.959 105.301C172.959 105.3 172.96 105.3 172.96 105.3C172.96 105.299 172.961 105.299 172.961 105.298C172.962 105.298 172.962 105.298 172.963 105.297C172.963 105.297 172.964 105.297 172.964 105.296C172.964 105.296 172.965 105.296 172.965 105.295C172.966 105.295 172.966 105.294 172.967 105.294C172.967 105.294 172.968 105.293 172.968 105.293C172.968 105.293 172.969 105.292 172.969 105.292C172.97 105.292 172.97 105.291 172.971 105.291C172.971 105.29 172.971 105.29 172.972 105.29C172.972 105.289 172.973 105.289 172.973 105.289C172.974 105.288 172.974 105.288 172.975 105.288C172.975 105.287 172.975 105.287 172.976 105.287C172.976 105.286 172.977 105.286 172.977 105.285C172.978 105.285 172.978 105.285 172.979 105.284C172.979 105.284 172.979 105.284 172.98 105.283C172.98 105.283 172.981 105.283 172.981 105.282C172.982 105.282 172.982 105.281 172.982 105.281C172.983 105.281 172.983 105.28 172.984 105.28C172.984 105.28 172.985 105.279 172.985 105.279C172.986 105.279 172.986 105.278 172.986 105.278C172.987 105.278 172.987 105.277 172.988 105.277C172.988 105.276 172.989 105.276 172.989 105.276C172.989 105.275 172.99 105.275 172.99 105.275C172.991 105.274 172.991 105.274 172.992 105.274C172.992 105.273 172.993 105.273 172.993 105.272C172.993 105.272 172.994 105.272 172.994 105.271C172.995 105.271 172.995 105.271 172.996 105.27C172.996 105.27 172.996 105.27 172.997 105.269C172.997 105.269 172.998 105.269 172.998 105.268C172.999 105.268 172.999 105.267 173 105.267C173 105.267 173 105.266 173.001 105.266C173.001 105.266 173.002 105.265 173.002 105.265C173.003 105.265 173.003 105.264 173.003 105.264C173.004 105.264 173.004 105.263 173.005 105.263C173.005 105.262 173.006 105.262 173.006 105.262C173.006 105.261 173.007 105.261 173.007 105.261C173.008 105.26 173.008 105.26 173.009 105.26C173.009 105.259 173.01 105.259 173.01 105.259C173.01 105.258 173.011 105.258 173.011 105.258C173.012 105.257 173.012 105.257 173.013 105.256C173.013 105.256 173.013 105.256 173.014 105.255C173.014 105.255 173.015 105.255 173.015 105.254C173.016 105.254 173.016 105.254 173.016 105.253C173.017 105.253 173.017 105.253 173.018 105.252C173.018 105.252 173.019 105.251 173.019 105.251C173.019 105.251 173.02 105.25 173.02 105.25C173.021 105.25 173.021 105.249 173.022 105.249C173.022 105.249 173.023 105.248 173.023 105.248C173.023 105.248 173.024 105.247 173.024 105.247C173.025 105.247 173.025 105.246 173.026 105.246C173.026 105.245 173.026 105.245 173.027 105.245C173.027 105.244 173.028 105.244 173.028 105.244C173.029 105.243 173.029 105.243 173.029 105.243C173.03 105.242 173.03 105.242 173.031 105.242C173.031 105.241 173.032 105.241 173.032 105.241C173.032 105.24 173.033 105.24 173.033 105.239C173.034 105.239 173.034 105.239 173.035 105.238C173.035 105.238 173.035 105.238 173.036 105.237C173.036 105.237 173.037 105.237 173.037 105.236C173.038 105.236 173.038 105.236 173.038 105.235C173.039 105.235 173.039 105.235 173.04 105.234C173.04 105.234 173.041 105.233 173.041 105.233C173.041 105.233 173.042 105.232 173.042 105.232C173.043 105.232 173.043 105.231 173.044 105.231C173.044 105.231 173.044 105.23 173.045 105.23C173.045 105.23 173.046 105.229 173.046 105.229C173.047 105.229 173.047 105.228 173.047 105.228C173.048 105.228 173.048 105.227 173.049 105.227C173.049 105.226 173.05 105.226 173.05 105.226C173.05 105.225 173.051 105.225 173.051 105.225C173.052 105.224 173.052 105.224 173.053 105.224C173.053 105.223 173.053 105.223 173.054 105.223C173.054 105.222 173.055 105.222 173.055 105.222C173.056 105.221 173.056 105.221 173.056 105.221C173.057 105.22 173.057 105.22 173.058 105.22C173.058 105.219 173.058 105.219 173.059 105.218C173.059 105.218 173.06 105.218 173.06 105.217C173.061 105.217 173.061 105.217 173.061 105.216C173.062 105.216 173.062 105.216 173.063 105.215C173.063 105.215 173.064 105.215 173.064 105.214C173.064 105.214 173.065 105.214 173.065 105.213C173.066 105.213 173.066 105.213 173.067 105.212C173.067 105.212 173.067 105.212 173.068 105.211C173.068 105.211 173.069 105.21 173.069 105.21C173.07 105.21 173.07 105.209 173.07 105.209C173.071 105.209 173.071 105.208 173.072 105.208C173.072 105.208 173.072 105.207 173.073 105.207C173.073 105.207 173.074 105.206 173.074 105.206C173.075 105.206 173.075 105.205 173.075 105.205C173.076 105.205 173.076 105.204 173.077 105.204C173.077 105.204 173.078 105.203 173.078 105.203C173.078 105.203 173.079 105.202 173.079 105.202C173.08 105.201 173.08 105.201 173.08 105.201C173.081 105.2 173.081 105.2 173.082 105.2C173.082 105.199 173.083 105.199 173.083 105.199C173.083 105.198 173.084 105.198 173.084 105.198C173.085 105.197 173.085 105.197 173.086 105.197C173.086 105.196 173.086 105.196 173.087 105.196C173.087 105.195 173.088 105.195 173.088 105.195C173.088 105.194 173.089 105.194 173.089 105.194C173.09 105.193 173.09 105.193 173.091 105.193C173.091 105.192 173.091 105.192 173.092 105.192C173.092 105.191 173.093 105.191 173.093 105.19C173.093 105.19 173.094 105.19 173.094 105.189C173.095 105.189 173.095 105.189 173.096 105.188C173.096 105.188 173.096 105.188 173.097 105.187C173.097 105.187 173.098 105.187 173.098 105.186C173.099 105.186 173.099 105.186 173.099 105.185C173.1 105.185 173.1 105.185 173.101 105.184C173.101 105.184 173.101 105.184 173.102 105.183C173.102 105.183 173.103 105.183 173.103 105.182C173.104 105.182 173.104 105.182 173.104 105.181C173.105 105.181 173.105 105.181 173.106 105.18C173.106 105.18 173.106 105.18 173.107 105.179C173.107 105.179 173.108 105.179 173.108 105.178C173.108 105.178 173.109 105.177 173.109 105.177C173.11 105.177 173.11 105.176 173.111 105.176C173.111 105.176 173.111 105.175 173.112 105.175C173.112 105.175 173.113 105.174 173.113 105.174C173.113 105.174 173.114 105.173 173.114 105.173C173.115 105.173 173.115 105.172 173.116 105.172C173.116 105.172 173.116 105.171 173.117 105.171C173.117 105.171 173.118 105.17 173.118 105.17C173.118 105.17 173.119 105.169 173.119 105.169C173.12 105.169 173.12 105.168 173.121 105.168C173.121 105.168 173.121 105.167 173.122 105.167C173.122 105.167 173.123 105.166 173.123 105.166C173.123 105.166 173.124 105.165 173.124 105.165C173.125 105.165 173.125 105.164 173.125 105.164C173.126 105.164 173.126 105.163 173.127 105.163C173.127 105.163 173.128 105.162 173.128 105.162C173.128 105.162 173.129 105.161 173.129 105.161C173.13 105.161 173.13 105.16 173.13 105.16C173.131 105.16 173.131 105.159 173.132 105.159C173.132 105.159 173.132 105.158 173.133 105.158C173.133 105.158 173.134 105.157 173.134 105.157C173.135 105.156 173.135 105.156 173.135 105.156C173.136 105.155 173.136 105.155 173.137 105.155C173.137 105.154 173.137 105.154 173.138 105.154C173.138 105.153 173.139 105.153 173.139 105.153C173.139 105.152 173.14 105.152 173.14 105.152C173.141 105.151 173.141 105.151 173.141 105.151C173.142 105.15 173.142 105.15 173.143 105.15C173.143 105.149 173.144 105.149 173.144 105.149C173.144 105.148 173.145 105.148 173.145 105.148C173.146 105.147 173.146 105.147 173.146 105.147C173.147 105.146 173.147 105.146 173.148 105.146C173.148 105.145 173.148 105.145 173.149 105.145C173.149 105.144 173.15 105.144 173.15 105.144C173.15 105.143 173.151 105.143 173.151 105.143C173.152 105.142 173.152 105.142 173.153 105.142C173.153 105.141 173.153 105.141 173.154 105.141C173.154 105.14 173.155 105.14 173.155 105.14C173.155 105.139 173.156 105.139 173.156 105.139C173.157 105.138 173.157 105.138 173.157 105.138C173.158 105.137 173.158 105.137 173.159 105.137C173.159 105.136 173.159 105.136 173.16 105.136C173.16 105.135 173.161 105.135 173.161 105.135C173.161 105.134 173.162 105.134 173.162 105.134C173.163 105.133 173.163 105.133 173.163 105.133C173.164 105.132 173.164 105.132 173.165 105.132C173.165 105.131 173.166 105.131 173.166 105.131C173.166 105.13 173.167 105.13 173.167 105.13C173.168 105.129 173.168 105.129 173.168 105.129C173.169 105.128 173.169 105.128 173.17 105.128C173.17 105.127 173.17 105.127 173.171 105.127C173.171 105.126 173.172 105.126 173.172 105.126C173.172 105.125 173.173 105.125 173.173 105.125C173.174 105.124 173.174 105.124 173.174 105.124C173.175 105.123 173.175 105.123 173.176 105.123C173.176 105.123 173.176 105.122 173.177 105.122C173.177 105.122 173.178 105.121 173.178 105.121C173.178 105.121 173.179 105.12 173.179 105.12C173.18 105.12 173.18 105.119 173.18 105.119C173.181 105.119 173.181 105.118 173.182 105.118C173.182 105.118 173.182 105.117 173.183 105.117C173.183 105.117 173.184 105.116 173.184 105.116C173.184 105.116 173.185 105.115 173.185 105.115C173.186 105.115 173.186 105.114 173.186 105.114C173.187 105.114 173.187 105.113 173.188 105.113C173.188 105.113 173.188 105.112 173.189 105.112C173.189 105.112 173.19 105.111 173.19 105.111C173.19 105.111 173.191 105.11 173.191 105.11C173.192 105.11 173.192 105.109 173.192 105.109C173.193 105.109 173.193 105.108 173.194 105.108C173.194 105.108 173.194 105.107 173.195 105.107C173.195 105.107 173.196 105.106 173.196 105.106C173.196 105.106 173.197 105.105 173.197 105.105C173.198 105.105 173.198 105.104 173.198 105.104C173.199 105.104 173.199 105.103 173.2 105.103C173.2 105.103 173.2 105.103 173.201 105.102C173.201 105.102 173.202 105.102 173.202 105.101C173.202 105.101 173.203 105.101 173.203 105.1C173.204 105.1 173.204 105.1 173.204 105.099C173.205 105.099 173.205 105.099 173.206 105.098C173.206 105.098 173.206 105.098 173.207 105.097C173.207 105.097 173.208 105.097 173.208 105.096C173.208 105.096 173.209 105.096 173.209 105.095C173.21 105.095 173.21 105.095 173.21 105.094C173.211 105.094 173.211 105.094 173.212 105.093C173.212 105.093 173.212 105.093 173.213 105.092C173.213 105.092 173.213 105.092 173.214 105.091C173.214 105.091 173.215 105.091 173.215 105.09C173.215 105.09 173.216 105.09 173.216 105.09C173.217 105.089 173.217 105.089 173.217 105.089C173.218 105.088 173.218 105.088 173.219 105.088C173.219 105.087 173.219 105.087 173.22 105.087C173.22 105.086 173.221 105.086 173.221 105.086C173.221 105.085 173.222 105.085 173.222 105.085C173.223 105.084 173.223 105.084 173.223 105.084C173.224 105.083 173.224 105.083 173.225 105.083C173.225 105.082 173.225 105.082 173.226 105.082C173.226 105.081 173.226 105.081 173.227 105.081C173.227 105.08 173.228 105.08 173.228 105.08C173.228 105.08 173.229 105.079 173.229 105.079C173.23 105.079 173.23 105.078 173.23 105.078C173.231 105.078 173.231 105.077 173.232 105.077C173.232 105.077 173.232 105.076 173.233 105.076C173.233 105.076 173.234 105.075 173.234 105.075C173.234 105.075 173.235 105.074 173.235 105.074C173.235 105.074 173.236 105.073 173.236 105.073C173.237 105.073 173.237 105.072 173.237 105.072C173.238 105.072 173.238 105.072 173.239 105.071C173.239 105.071 173.239 105.071 173.24 105.07C173.24 105.07 173.241 105.07 173.241 105.069C173.241 105.069 173.242 105.069 173.242 105.068C173.243 105.068 173.243 105.068 173.243 105.067C173.244 105.067 173.244 105.067 173.244 105.066C173.245 105.066 173.245 105.066 173.246 105.065C173.246 105.065 173.246 105.065 173.247 105.064C173.247 105.064 173.248 105.064 173.248 105.064C173.248 105.063 173.249 105.063 173.249 105.063C173.25 105.062 173.25 105.062 173.25 105.062C173.251 105.061 173.251 105.061 173.251 105.061C173.252 105.06 173.252 105.06 173.253 105.06C173.253 105.059 173.253 105.059 173.254 105.059C173.254 105.058 173.255 105.058 173.255 105.058C173.255 105.057 173.256 105.057 173.256 105.057C173.256 105.057 173.257 105.056 173.257 105.056C173.258 105.056 173.258 105.055 173.258 105.055C173.259 105.055 173.259 105.054 173.26 105.054C173.26 105.054 173.26 105.053 173.261 105.053C173.261 105.053 173.262 105.052 173.262 105.052C173.262 105.052 173.263 105.051 173.263 105.051C173.263 105.051 173.264 105.051 173.264 105.05C173.265 105.05 173.265 105.05 173.265 105.049C173.266 105.049 173.266 105.049 173.267 105.048C173.267 105.048 173.267 105.048 173.268 105.047C173.268 105.047 173.268 105.047 173.269 105.046C173.269 105.046 173.27 105.046 173.27 105.045C173.27 105.045 173.271 105.045 173.271 105.045C173.272 105.044 173.272 105.044 173.272 105.044C173.273 105.043 173.273 105.043 173.273 105.043C173.274 105.042 173.274 105.042 173.275 105.042C173.275 105.041 173.275 105.041 173.276 105.041C173.276 105.04 173.276 105.04 173.277 105.04C173.277 105.04 173.278 105.039 173.278 105.039C173.278 105.039 173.279 105.038 173.279 105.038C173.28 105.038 173.28 105.037 173.28 105.037C173.281 105.037 173.281 105.036 173.281 105.036C173.282 105.036 173.282 105.035 173.283 105.035C173.283 105.035 173.283 105.035 173.284 105.034C173.284 105.034 173.284 105.034 173.285 105.033C173.285 105.033 173.286 105.033 173.286 105.032C173.286 105.032 173.287 105.032 173.287 105.031C173.288 105.031 173.288 105.031 173.288 105.03C173.289 105.03 173.289 105.03 173.289 105.03C173.29 105.029 173.29 105.029 173.291 105.029C173.291 105.028 173.291 105.028 173.292 105.028C173.292 105.027 173.292 105.027 173.293 105.027C173.293 105.026 173.294 105.026 173.294 105.026C173.294 105.025 173.295 105.025 173.295 105.025C173.296 105.025 173.296 105.024 173.296 105.024C173.297 105.024 173.297 105.023 173.297 105.023C173.298 105.023 173.298 105.022 173.299 105.022C173.299 105.022 173.299 105.021 173.3 105.021C173.3 105.021 173.3 105.021 173.301 105.02C173.301 105.02 173.302 105.02 173.302 105.019C173.302 105.019 173.303 105.019 173.303 105.018C173.303 105.018 173.304 105.018 173.304 105.017C173.305 105.017 173.305 105.017 173.305 105.017C173.306 105.016 173.306 105.016 173.306 105.016C173.307 105.015 173.307 105.015 173.308 105.015C173.308 105.014 173.308 105.014 173.309 105.014C173.309 105.013 173.309 105.013 173.31 105.013C173.31 105.013 173.311 105.012 173.311 105.012C173.311 105.012 173.312 105.011 173.312 105.011C173.312 105.011 173.313 105.01 173.313 105.01C173.314 105.01 173.314 105.009 173.314 105.009C173.315 105.009 173.315 105.009 173.315 105.008C173.316 105.008 173.316 105.008 173.317 105.007C173.317 105.007 173.317 105.007 173.318 105.006C173.318 105.006 173.318 105.006 173.319 105.005C173.319 105.005 173.32 105.005 173.32 105.005C173.32 105.004 173.321 105.004 173.321 105.004C173.321 105.003 173.322 105.003 173.322 105.003C173.323 105.002 173.323 105.002 173.323 105.002C173.324 105.001 173.324 105.001 173.324 105.001C173.325 105.001 173.325 105 173.326 105C173.326 105 173.326 104.999 173.327 104.999C173.327 104.999 173.327 104.998 173.328 104.998C173.328 104.998 173.329 104.998 173.329 104.997C173.329 104.997 173.33 104.997 173.33 104.996C173.33 104.996 173.331 104.996 173.331 104.995C173.331 104.995 173.332 104.995 173.332 104.994C173.333 104.994 173.333 104.994 173.333 104.994C173.334 104.993 173.334 104.993 173.334 104.993C173.335 104.992 173.335 104.992 173.336 104.992C173.336 104.991 173.336 104.991 173.337 104.991C173.337 104.991 173.337 104.99 173.338 104.99C173.338 104.99 173.339 104.989 173.339 104.989C173.339 104.989 173.34 104.988 173.34 104.988C173.34 104.988 173.341 104.987 173.341 104.987C173.341 104.987 173.342 104.987 173.342 104.986C173.343 104.986 173.343 104.986 173.343 104.985C173.344 104.985 173.344 104.985 173.344 104.984C173.345 104.984 173.345 104.984 173.346 104.984C173.346 104.983 173.346 104.983 173.347 104.983C173.347 104.982 173.347 104.982 173.348 104.982C173.348 104.981 173.348 104.981 173.349 104.981C173.349 104.981 173.35 104.98 173.35 104.98C173.35 104.98 173.351 104.979 173.351 104.979C173.351 104.979 173.352 104.978 173.352 104.978C173.352 104.978 173.353 104.978 173.353 104.977C173.354 104.977 173.354 104.977 173.354 104.976C173.355 104.976 173.355 104.976 173.355 104.975C173.356 104.975 173.356 104.975 173.357 104.975C173.357 104.974 173.357 104.974 173.358 104.974C173.358 104.973 173.358 104.973 173.359 104.973C173.359 104.972 173.359 104.972 173.36 104.972C173.36 104.972 173.361 104.971 173.361 104.971C173.361 104.971 173.362 104.97 173.362 104.97C173.362 104.97 173.363 104.969 173.363 104.969C173.363 104.969 173.364 104.969 173.364 104.968C173.365 104.968 173.365 104.968 173.365 104.967C173.366 104.967 173.366 104.967 173.366 104.966C173.367 104.966 173.367 104.966 173.367 104.966C173.368 104.965 173.368 104.965 173.369 104.965C173.369 104.964 173.369 104.964 173.37 104.964C173.37 104.964 173.37 104.963 173.371 104.963C173.371 104.963 173.371 104.962 173.372 104.962C173.372 104.962 173.373 104.961 173.373 104.961C173.373 104.961 173.374 104.961 173.374 104.96C173.374 104.96 173.375 104.96 173.375 104.959C173.375 104.959 173.376 104.959 173.376 104.958C173.377 104.958 173.377 104.958 173.377 104.958C173.378 104.957 173.378 104.957 173.378 104.957C173.379 104.956 173.379 104.956 173.379 104.956C173.38 104.956 173.38 104.955 173.38 104.955C173.381 104.955 173.381 104.954 173.382 104.954C173.382 104.954 173.382 104.953 173.383 104.953C173.383 104.953 173.383 104.953 173.384 104.952C173.384 104.952 173.384 104.952 173.385 104.951C173.385 104.951 173.386 104.951 173.386 104.95C173.386 104.95 173.387 104.95 173.387 104.95C173.387 104.949 173.388 104.949 173.388 104.949C173.388 104.948 173.389 104.948 173.389 104.948C173.389 104.948 173.39 104.947 173.39 104.947C173.391 104.947 173.391 104.946 173.391 104.946C173.392 104.946 173.392 104.945 173.392 104.945C173.393 104.945 173.393 104.945 173.393 104.944C173.394 104.944 173.394 104.944 173.394 104.943C173.395 104.943 173.395 104.943 173.396 104.943C173.396 104.942 173.396 104.942 173.397 104.942C173.397 104.941 173.397 104.941 173.398 104.941C173.398 104.941 173.398 104.94 173.399 104.94C173.399 104.94 173.399 104.939 173.4 104.939C173.4 104.939 173.401 104.938 173.401 104.938C173.401 104.938 173.402 104.938 173.402 104.937C173.402 104.937 173.403 104.937 173.403 104.936C173.403 104.936 173.404 104.936 173.404 104.936C173.404 104.935 173.405 104.935 173.405 104.935C173.406 104.934 173.406 104.934 173.406 104.934C173.407 104.934 173.407 104.933 173.407 104.933C173.408 104.933 173.408 104.932 173.408 104.932C173.409 104.932 173.409 104.931 173.409 104.931C173.41 104.931 173.41 104.931 173.41 104.93C173.411 104.93 173.411 104.93 173.412 104.929C173.412 104.929 173.412 104.929 173.413 104.929C173.413 104.928 173.413 104.928 173.414 104.928C173.414 104.927 173.414 104.927 173.415 104.927C173.415 104.927 173.415 104.926 173.416 104.926C173.416 104.926 173.416 104.925 173.417 104.925C173.417 104.925 173.418 104.925 173.418 104.924C173.418 104.924 173.419 104.924 173.419 104.923C173.419 104.923 173.42 104.923 173.42 104.923C173.42 104.922 173.421 104.922 173.421 104.922C173.421 104.921 173.422 104.921 173.422 104.921C173.422 104.921 173.423 104.92 173.423 104.92C173.424 104.92 173.424 104.919 173.424 104.919C173.425 104.919 173.425 104.918 173.425 104.918C173.426 104.918 173.426 104.918 173.426 104.917C173.427 104.917 173.427 104.917 173.427 104.916C173.428 104.916 173.428 104.916 173.428 104.916C173.429 104.915 173.429 104.915 173.429 104.915C173.43 104.914 173.43 104.914 173.431 104.914C173.431 104.914 173.431 104.913 173.432 104.913C173.432 104.913 173.432 104.912 173.433 104.912C173.433 104.912 173.433 104.912 173.434 104.911C173.434 104.911 173.434 104.911 173.435 104.91C173.435 104.91 173.435 104.91 173.436 104.91C173.436 104.909 173.436 104.909 173.437 104.909C173.437 104.908 173.437 104.908 173.438 104.908C173.438 104.908 173.439 104.907 173.439 104.907C173.439 104.907 173.44 104.906 173.44 104.906C173.44 104.906 173.441 104.906 173.441 104.905C173.441 104.905 173.442 104.905 173.442 104.904C173.442 104.904 173.443 104.904 173.443 104.904C173.443 104.903 173.444 104.903 173.444 104.903C173.444 104.903 173.445 104.902 173.445 104.902C173.445 104.902 173.446 104.901 173.446 104.901C173.447 104.901 173.447 104.901 173.447 104.9C173.448 104.9 173.448 104.9 173.448 104.899C173.449 104.899 173.449 104.899 173.449 104.899C173.45 104.898 173.45 104.898 173.45 104.898C173.451 104.897 173.451 104.897 173.451 104.897C173.452 104.897 173.452 104.896 173.452 104.896C173.453 104.896 173.453 104.895 173.453 104.895C173.454 104.895 173.454 104.895 173.454 104.894C173.455 104.894 173.455 104.894 173.455 104.893C173.456 104.893 173.456 104.893 173.456 104.893C173.457 104.892 173.457 104.892 173.458 104.892C173.458 104.891 173.458 104.891 173.459 104.891C173.459 104.891 173.459 104.89 173.46 104.89C173.46 104.89 173.46 104.89 173.461 104.889C173.461 104.889 173.461 104.889 173.462 104.888C173.462 104.888 173.462 104.888 173.463 104.888C173.463 104.887 173.463 104.887 173.464 104.887C173.464 104.886 173.464 104.886 173.465 104.886C173.465 104.886 173.465 104.885 173.466 104.885C173.466 104.885 173.466 104.884 173.467 104.884C173.467 104.884 173.467 104.884 173.468 104.883C173.468 104.883 173.468 104.883 173.469 104.883C173.469 104.882 173.469 104.882 173.47 104.882C173.47 104.881 173.471 104.881 173.471 104.881C173.471 104.881 173.472 104.88 173.472 104.88C173.472 104.88 173.473 104.879 173.473 104.879C173.473 104.879 173.474 104.879 173.474 104.878C173.474 104.878 173.475 104.878 173.475 104.878C173.475 104.877 173.476 104.877 173.476 104.877C173.476 104.876 173.477 104.876 173.477 104.876C173.477 104.876 173.478 104.875 173.478 104.875C173.478 104.875 173.479 104.874 173.479 104.874C173.479 104.874 173.48 104.874 173.48 104.873C173.48 104.873 173.481 104.873 173.481 104.873C173.481 104.872 173.482 104.872 173.482 104.872C173.482 104.871 173.483 104.871 173.483 104.871C173.483 104.871 173.484 104.87 173.484 104.87C173.484 104.87 173.485 104.869 173.485 104.869C173.485 104.869 173.486 104.869 173.486 104.868C173.486 104.868 173.487 104.868 173.487 104.868C173.487 104.867 173.488 104.867 173.488 104.867C173.488 104.866 173.489 104.866 173.489 104.866C173.489 104.866 173.49 104.865 173.49 104.865C173.49 104.865 173.491 104.865 173.491 104.864C173.491 104.864 173.492 104.864 173.492 104.863C173.492 104.863 173.493 104.863 173.493 104.863C173.493 104.862 173.494 104.862 173.494 104.862C173.494 104.861 173.495 104.861 173.495 104.861C173.495 104.861 173.496 104.86 173.496 104.86C173.496 104.86 173.497 104.86 173.497 104.859C173.497 104.859 173.498 104.859 173.498 104.858C173.498 104.858 173.499 104.858 173.499 104.858C173.499 104.857 173.5 104.857 173.5 104.857C173.5 104.857 173.501 104.856 173.501 104.856C173.501 104.856 173.502 104.855 173.502 104.855C173.502 104.855 173.503 104.855 173.503 104.854C173.503 104.854 173.504 104.854 173.504 104.854L172.21 103.329ZM171.607 103.823C170.695 104.57 169.834 105.456 169.02 106.475L170.609 107.702C171.346 106.778 172.111 105.995 172.901 105.348L171.607 103.823ZM169.028 106.466C168.179 107.503 167.592 108.606 167.303 109.775L169.263 110.249C169.471 109.407 169.905 108.562 170.601 107.712L169.028 106.466ZM167.303 109.775C166.974 111.105 167.3 112.346 168.204 113.412L169.751 112.144C169.232 111.532 169.094 110.93 169.263 110.249L167.303 109.775ZM168.204 113.412C169.205 114.59 170.347 115.416 171.643 115.492L171.757 113.512C171.287 113.485 170.614 113.161 169.751 112.144L168.204 113.412ZM171.643 115.492C172.886 115.565 174.083 115.005 175.204 114.087L173.909 112.562C172.988 113.317 172.282 113.543 171.757 113.512L171.643 115.492ZM195.549 101.045L195.615 102.035L195.615 102.035L195.549 101.045ZM188.794 99.4841L188.322 100.359L188.328 100.362L188.794 99.4841ZM177.169 83.3768L176.163 83.4415L176.163 83.4461L177.169 83.3768ZM186.412 72.3883L186.48 73.3778L186.488 73.3773L186.496 73.3767L186.412 72.3883ZM191.362 73.9553L190.746 74.7388L192.05 73.2329L191.362 73.9553ZM188.11 70.9583L187.336 71.5921L187.376 71.639L187.421 71.6807L188.11 70.9583ZM177.433 58.3786L176.786 57.6162L176.012 58.2501L176.659 59.0125L177.433 58.3786ZM182.909 53.8907L183.682 53.2569L183.035 52.4945L182.261 53.1283L182.909 53.8907ZM212.416 88.6563L213.064 89.4187L213.837 88.7849L213.19 88.0225L212.416 88.6563ZM207.358 92.8019L206.585 93.4358L207.232 94.1982L208.005 93.5643L207.358 92.8019ZM203.398 88.136L204.171 87.5021L202.486 88.5558L203.398 88.136ZM204.455 93.7851L205.456 93.9058L205.457 93.8982L204.455 93.7851ZM200.723 88.7386L201.73 88.6952L201.73 88.6889L200.723 88.7386ZM191.551 77.3298L191.94 76.4164L191.94 76.4164L191.551 77.3298ZM185.127 80.4227L184.17 80.1067L184.167 80.1158L185.127 80.4227ZM185.281 84.1742L186.251 83.9033L186.249 83.8983L185.281 84.1742ZM194.407 93.7206L194.147 94.6778L194.153 94.6792L194.407 93.7206ZM201.036 97.7763C199.312 99.1897 197.466 99.9332 195.482 100.056L195.615 102.035C198.068 101.883 200.312 100.956 202.33 99.3011L201.036 97.7763ZM195.482 100.056C193.477 100.18 191.408 99.7136 189.26 98.6063L188.328 100.362C190.751 101.611 193.185 102.185 195.615 102.035L195.482 100.056ZM189.267 98.6097C187.136 97.4919 185.077 95.7839 183.096 93.4503L181.549 94.7181C183.658 97.2029 185.913 99.0948 188.322 100.359L189.267 98.6097ZM183.096 93.4503C179.991 89.792 178.406 86.4147 178.175 83.3075L176.163 83.4461C176.436 87.1134 178.287 90.8744 181.549 94.7181L183.096 93.4503ZM178.175 83.3122C177.964 80.2822 179.203 77.6117 182.078 75.2551L180.784 73.7303C177.503 76.4193 175.9 79.6716 176.163 83.4415L178.175 83.3122ZM182.078 75.2551C183.522 74.0715 184.986 73.4719 186.48 73.3778L186.345 71.3989C184.353 71.5243 182.496 72.3276 180.784 73.7303L182.078 75.2551ZM186.496 73.3767C187.96 73.2612 189.365 73.6883 190.746 74.7388L191.977 73.1718C190.25 71.8576 188.355 71.2401 186.328 71.4L186.496 73.3767ZM192.05 73.2329L188.798 70.2359L187.421 71.6807L190.673 74.6777L192.05 73.2329ZM188.883 70.3244L178.206 57.7447L176.659 59.0125L187.336 71.5921L188.883 70.3244ZM178.08 59.141L183.556 54.6531L182.261 53.1283L176.786 57.6162L178.08 59.141ZM182.135 54.5246L211.643 89.2902L213.19 88.0225L183.682 53.2569L182.135 54.5246ZM211.769 87.8939L206.711 92.0395L208.005 93.5643L213.064 89.4187L211.769 87.8939ZM208.132 92.168L204.171 87.5021L202.624 88.7699L206.585 93.4358L208.132 92.168ZM202.486 88.5558C203.332 90.3249 203.64 92.0242 203.453 93.6719L205.457 93.8982C205.691 91.8396 205.294 89.7727 204.31 87.7162L202.486 88.5558ZM203.454 93.6643C203.264 95.2198 202.49 96.5849 201.036 97.7763L202.33 99.3011C204.125 97.8302 205.198 96.0263 205.456 93.9058L203.454 93.6643ZM199.832 93.6695C201.259 92.5004 201.829 90.767 201.73 88.6952L199.715 88.7819C199.794 90.4426 199.339 91.4882 198.538 92.1447L199.832 93.6695ZM201.73 88.6889C201.61 86.48 200.278 84.0277 198.023 81.3713L196.477 82.6391C198.648 85.1976 199.631 87.2342 199.716 88.7882L201.73 88.6889ZM198.023 81.3713C195.959 78.9389 193.935 77.2435 191.94 76.4164L191.161 78.2432C192.728 78.8926 194.503 80.3142 196.477 82.6391L198.023 81.3713ZM191.94 76.4164C190.915 75.9915 189.887 75.8189 188.875 75.9541C187.86 76.0897 186.932 76.5254 186.098 77.2095L187.392 78.7343C187.98 78.252 188.565 77.9975 189.152 77.9191C189.742 77.8402 190.405 77.9297 191.161 78.2432L191.94 76.4164ZM186.098 77.2095C185.204 77.9421 184.57 78.9253 184.17 80.1067L186.084 80.7387C186.387 79.844 186.832 79.1933 187.392 78.7343L186.098 77.2095ZM184.167 80.1158C183.748 81.3946 183.841 82.8613 184.314 84.45L186.249 83.8983C185.844 82.5358 185.834 81.5015 186.087 80.7296L184.167 80.1158ZM184.312 84.445C184.794 86.0949 185.902 87.887 187.535 89.8119L189.082 88.5441C187.532 86.7179 186.622 85.1742 186.251 83.9033L184.312 84.445ZM187.535 89.8119C189.724 92.3903 191.922 94.087 194.147 94.6777L194.667 92.7634C193.032 92.3292 191.165 90.9975 189.082 88.5441L187.535 89.8119ZM194.153 94.6792C196.314 95.2399 198.263 94.9561 199.832 93.6695L198.538 92.1447C197.571 92.9372 196.334 93.1957 194.661 92.7619L194.153 94.6792ZM217.55 79.8725L217.709 78.8939L217.709 78.8939L217.55 79.8725ZM202.792 62.2993L203.8 62.3409L203.8 62.3409L202.792 62.2993ZM218.667 49.4825L218.473 50.4549L218.481 50.4564L218.667 49.4825ZM233.27 66.8727L232.262 66.8648L232.262 66.8654L233.27 66.8727ZM209.934 61.7207L210.939 61.6404L210.938 61.6342L209.934 61.7207ZM219.504 72.9966L219.243 73.9536L219.243 73.9536L219.504 72.9966ZM227.471 75.8009C224.242 78.4472 221.005 79.4213 217.709 78.8939L217.391 80.8511C221.38 81.4895 225.188 80.2575 228.765 77.3257L227.471 75.8009ZM217.709 78.8939C214.378 78.3607 211.178 76.3823 208.124 72.7834L206.577 74.0512C209.838 77.8934 213.438 80.2185 217.391 80.8511L217.709 78.8939ZM208.124 72.7834C205.046 69.1577 203.667 65.6843 203.8 62.3409L201.784 62.2576C201.627 66.2362 203.287 70.1749 206.577 74.0512L208.124 72.7834ZM203.8 62.3409C203.932 59.0131 205.531 56.0338 208.761 53.3866L207.467 51.8618C203.891 54.7927 201.943 58.2634 201.784 62.2576L203.8 62.3409ZM208.761 53.3866C212.001 50.7317 215.218 49.8183 218.473 50.4549L218.861 48.5101C214.883 47.7321 211.065 48.9131 207.467 51.8618L208.761 53.3866ZM218.481 50.4564C221.81 51.0812 224.961 53.0656 227.923 56.5561L229.47 55.2884C226.298 51.5513 222.763 49.2426 218.853 48.5086L218.481 50.4564ZM227.923 56.5561C230.881 60.0405 232.279 63.471 232.262 66.8648L234.278 66.8807C234.298 62.9015 232.647 59.0316 229.47 55.2884L227.923 56.5561ZM232.262 66.8654C232.247 70.1738 230.712 73.1452 227.471 75.8009L228.765 77.3257C232.362 74.3779 234.261 70.8889 234.278 66.8801L232.262 66.8654ZM224.976 72.6752C226.711 71.2529 227.436 69.3938 227.077 67.2174C226.734 65.1343 225.412 62.8369 223.298 60.3467L221.751 61.6145C223.779 64.0037 224.829 65.968 225.086 67.529C225.329 68.9966 224.885 70.1639 223.681 71.1504L224.976 72.6752ZM223.298 60.3467C221.172 57.8418 219.101 56.141 217.072 55.4269C214.952 54.6809 212.956 55.0423 211.218 56.4665L212.512 57.9913C213.714 57.0067 214.964 56.7891 216.397 57.2936C217.922 57.8302 219.71 59.2096 221.751 61.6145L223.298 60.3467ZM211.218 56.4665C209.52 57.8586 208.732 59.6691 208.929 61.8072L210.938 61.6342C210.803 60.1666 211.303 58.9826 212.512 57.9913L211.218 56.4665ZM208.929 61.801C209.109 63.9069 210.48 66.3196 212.749 68.9928L214.296 67.7251C212.087 65.1225 211.065 63.1096 210.938 61.6404L208.929 61.801ZM212.749 68.9928C215.006 71.652 217.168 73.4012 219.243 73.9536L219.765 72.0397C218.316 71.6539 216.491 70.3113 214.296 67.7251L212.749 68.9928ZM219.243 73.9536C221.337 74.5111 223.281 74.0637 224.976 72.6752L223.681 71.1504C222.467 72.1453 221.195 72.4205 219.765 72.0397L219.243 73.9536Z" fill="white" mask="url(#path-2-outside-1_0_1)"/>
</g>
<defs>
<filter id="filter0_d_0_1" x="0.720947" y="0.418915" width="283.348" height="251.204" filterUnits="userSpaceOnUse" color-interpolation-filters="sRGB">
<feFlood flood-opacity="0" result="BackgroundImageFix"/>
<feColorMatrix in="SourceAlpha" type="matrix" values="0 0 0 0 0 0 0 0 0 0 0 0 0 0 0 0 0 0 127 0" result="hardAlpha"/>
<feOffset dy="4"/>
<feGaussianBlur stdDeviation="2"/>
<feComposite in2="hardAlpha" operator="out"/>
<feColorMatrix type="matrix" values="0 0 0 0 0.906667 0 0 0 0 0.716972 0 0 0 0 0.0936888 0 0 0 0.47 0"/>
<feBlend mode="normal" in2="BackgroundImageFix" result="effect1_dropShadow_0_1"/>
<feBlend mode="normal" in="SourceGraphic" in2="effect1_dropShadow_0_1" result="shape"/>
</filter>
<filter id="filter1_d_0_1" x="47.0363" y="48.2768" width="191.242" height="172.06" filterUnits="userSpaceOnUse" color-interpolation-filters="sRGB">
<feFlood flood-opacity="0" result="BackgroundImageFix"/>
<feColorMatrix in="SourceAlpha" type="matrix" values="0 0 0 0 0 0 0 0 0 0 0 0 0 0 0 0 0 0 127 0" result="hardAlpha"/>
<feOffset dy="6"/>
<feGaussianBlur stdDeviation="2"/>
<feComposite in2="hardAlpha" operator="out"/>
<feColorMatrix type="matrix" values="0 0 0 0 0.683333 0 0 0 0 0.58425 0 0 0 0 0.0888334 0 0 0 0.56 0"/>
<feBlend mode="normal" in2="BackgroundImageFix" result="effect1_dropShadow_0_1"/>
<feBlend mode="normal" in="SourceGraphic" in2="effect1_dropShadow_0_1" result="shape"/>
</filter>
</defs>
</svg>
