<svg width="285" height="252" viewBox="0 0 285 252" fill="none" xmlns="http://www.w3.org/2000/svg">
<g filter="url(#filter0_d_0_1)">
<rect width="285.859" height="95.7353" rx="11" transform="matrix(0.782276 -0.622932 0.63442 0.772988 0.216675 174.055)" fill="#E35D5D" fill-opacity="0.59" shape-rendering="crispEdges"/>
</g>
<g filter="url(#filter1_d_0_1)">
<mask id="path-2-outside-1_0_1" maskUnits="userSpaceOnUse" x="38.3507" y="30.3277" width="208.231" height="186.151" fill="black">
<rect fill="white" x="38.3507" y="30.3277" width="208.231" height="186.151"/>
<path d="M70.4836 203.832L56.4083 160.256L56.8703 159.873L98.2488 180.823L91.9658 186.03L86.2175 182.924L74.7142 192.457L76.9513 198.472L70.4836 203.832ZM68.3968 175.331L72.5871 186.662L80.718 179.924L69.9214 174.068L66.9478 172.169L68.3968 175.331ZM107.132 180.162C107.973 180.037 108.903 179.785 109.923 179.407C110.958 179.017 112.007 178.381 113.07 177.501C115.041 175.867 116.083 174.134 116.196 172.3C116.322 170.482 115.44 168.472 113.552 166.271L110.504 162.72C110.953 163.673 111.272 164.72 111.461 165.862C111.65 167.003 111.552 168.163 111.165 169.34C110.781 170.489 109.966 171.581 108.718 172.614C106.978 174.057 105.068 174.978 102.987 175.378C100.908 175.75 98.7234 175.43 96.4331 174.42C94.1428 173.409 91.8188 171.53 89.4613 168.783C87.0648 165.99 85.5257 163.383 84.844 160.961C84.1647 158.511 84.1663 156.303 84.8489 154.334C85.5339 152.338 86.7234 150.638 88.4173 149.235C90.3114 147.665 92.1628 146.936 93.9713 147.047C95.7798 147.159 97.253 147.678 98.391 148.605L95.6774 144.153L100.205 140.401L118.726 161.984C121.709 165.459 123.173 168.947 123.119 172.445C123.093 175.947 121.348 179.133 117.883 182.005C116.02 183.549 114.201 184.653 112.427 185.319C110.666 185.999 109.263 186.422 108.218 186.586L107.132 180.162ZM106.044 167.195C107.384 166.085 107.897 164.595 107.583 162.725C107.272 160.827 106.133 158.732 104.167 156.441C102.304 154.27 100.475 152.799 98.6798 152.028C96.8715 151.241 95.2589 151.434 93.8422 152.608C93.0568 153.259 92.5041 154.12 92.1841 155.19C91.8665 156.232 91.9325 157.476 92.3823 158.921C92.832 160.367 93.8319 161.992 95.3819 163.799C97.4919 166.257 99.4653 167.712 101.302 168.164C103.154 168.603 104.735 168.28 106.044 167.195ZM135.251 150.938C131.863 153.746 128.347 154.868 124.701 154.305C121.056 153.742 117.644 151.609 114.466 147.905C111.262 144.172 109.723 140.474 109.848 136.812C109.973 133.15 111.73 129.916 115.117 127.108C118.521 124.288 122.033 123.222 125.653 123.909C129.276 124.569 132.631 126.697 135.718 130.294C138.804 133.891 140.349 137.533 140.35 141.22C140.354 144.878 138.655 148.118 135.251 150.938ZM131.436 146.308C134.362 143.884 133.741 140.243 129.573 135.386C125.379 130.499 121.819 129.268 118.893 131.692C117.446 132.892 116.81 134.393 116.986 136.195C117.149 137.981 118.357 140.188 120.611 142.813C122.851 145.424 124.853 146.959 126.618 147.418C128.383 147.878 129.989 147.508 131.436 146.308ZM158.464 132.091C155.861 134.248 153.525 135.041 151.455 134.472C149.4 133.889 147.214 132.247 144.895 129.545L135.869 119.027L132.866 121.516L128.763 116.735L131.997 114.055L128.218 109.006L131.417 102.693L137.356 109.614L143.039 104.905L147.141 109.686L141.459 114.395L150.368 124.776C151.501 126.097 152.474 126.862 153.286 127.071C154.101 127.253 154.84 127.07 155.502 126.521C156.179 125.96 156.746 125.192 157.201 124.217C157.656 123.243 157.942 122.395 158.061 121.673L163.116 125.353C162.926 126.083 162.556 126.895 162.007 127.792C161.461 128.66 160.854 129.487 160.186 130.275C159.546 131.065 158.972 131.67 158.464 132.091ZM173.424 119.616C172.007 120.79 170.562 121.455 169.089 121.611C167.631 121.755 166.228 121.502 164.88 120.853C163.548 120.191 162.348 119.237 161.28 117.993C160.681 117.295 160.2 116.381 159.838 115.253C159.491 114.112 159.454 112.779 159.727 111.255C160 109.73 160.767 108.03 162.029 106.153C163.29 104.276 165.238 102.247 167.871 100.064L166.973 99.0172C166.009 97.8941 164.93 97.1904 163.738 96.9061C162.561 96.6091 161.148 97.1433 159.5 98.5088C158.299 99.5042 157.297 100.685 156.494 102.052C155.693 103.391 155.277 104.58 155.246 105.619L149.647 102.779C150.037 101.391 150.78 99.8008 151.877 98.0086C152.977 96.1885 154.474 94.4936 156.368 92.9239C158.647 91.0352 160.711 89.9091 162.56 89.5457C164.409 89.1822 166.128 89.4198 167.717 90.2584C169.293 91.0818 170.804 92.3358 172.25 94.0205L185.027 108.91L180.084 113.006L176.894 110.118C177.507 114.025 176.35 117.191 173.424 119.616ZM172.122 113.216C172.815 112.641 173.319 111.756 173.636 110.558C173.955 109.333 173.974 108.097 173.693 106.849L170.919 103.616C170.739 103.713 170.557 103.838 170.372 103.992C170.202 104.132 170.002 104.298 169.771 104.489C168.924 105.191 168.116 106.03 167.346 107.006C166.578 107.954 166.073 108.931 165.83 109.937C165.587 110.944 165.823 111.864 166.54 112.699C167.478 113.792 168.388 114.362 169.272 114.409C170.155 114.456 171.105 114.058 172.122 113.216ZM199.167 98.2824C197.304 99.8265 195.264 100.673 193.047 100.822C190.83 100.972 188.575 100.464 186.284 99.2979C184.008 98.1195 181.841 96.3313 179.783 93.9333C176.579 90.1996 174.841 86.6399 174.571 83.2541C174.316 79.8555 175.72 76.8864 178.785 74.3469C180.356 73.0452 182.012 72.3347 183.754 72.2155C185.499 72.0683 187.152 72.5816 188.712 73.7555L185.444 70.7762L174.699 58.2548L180.15 53.7372L209.847 88.3418L204.811 92.5148L200.825 87.8705C201.751 89.7783 202.114 91.6594 201.913 93.5137C201.7 95.3529 200.784 96.9424 199.167 98.2824ZM196.639 92.6644C197.748 91.7456 198.252 90.3533 198.153 88.4876C198.041 86.6067 196.872 84.3686 194.644 81.7733C192.612 79.4056 190.704 77.8575 188.919 77.1289C187.135 76.4003 185.534 76.6231 184.117 77.7971C183.394 78.3969 182.859 79.2168 182.513 80.2567C182.182 81.2839 182.24 82.5341 182.688 84.0073C183.122 85.4653 184.14 87.1277 185.742 88.9946C187.891 91.4988 189.932 93.002 191.865 93.5039C193.785 93.9907 195.376 93.7109 196.639 92.6644ZM225.482 76.1635C222.095 78.971 218.578 80.0932 214.933 79.5301C211.287 78.967 207.876 76.8338 204.697 73.1305C201.493 69.3969 199.954 65.6992 200.079 62.0374C200.204 58.3757 201.961 55.1411 205.349 52.3335C208.752 49.5132 212.264 48.4469 215.884 49.1345C219.507 49.7942 222.862 51.9225 225.949 55.5196C229.036 59.1166 230.58 62.7585 230.581 66.445C230.585 70.1037 228.886 73.3432 225.482 76.1635ZM221.667 71.5337C224.593 69.109 223.972 65.4682 219.804 60.6114C215.61 55.7243 212.05 54.4931 209.125 56.9178C207.677 58.1174 207.041 59.6181 207.217 61.42C207.38 63.2068 208.589 65.413 210.842 68.0387C213.082 70.6492 215.085 72.1842 216.849 72.6437C218.614 73.1033 220.22 72.7332 221.667 71.5337Z"/>
</mask>
<path d="M70.4836 203.832L56.4083 160.256L56.8703 159.873L98.2488 180.823L91.9658 186.03L86.2175 182.924L74.7142 192.457L76.9513 198.472L70.4836 203.832ZM68.3968 175.331L72.5871 186.662L80.718 179.924L69.9214 174.068L66.9478 172.169L68.3968 175.331ZM107.132 180.162C107.973 180.037 108.903 179.785 109.923 179.407C110.958 179.017 112.007 178.381 113.07 177.501C115.041 175.867 116.083 174.134 116.196 172.3C116.322 170.482 115.44 168.472 113.552 166.271L110.504 162.72C110.953 163.673 111.272 164.72 111.461 165.862C111.65 167.003 111.552 168.163 111.165 169.34C110.781 170.489 109.966 171.581 108.718 172.614C106.978 174.057 105.068 174.978 102.987 175.378C100.908 175.75 98.7234 175.43 96.4331 174.42C94.1428 173.409 91.8188 171.53 89.4613 168.783C87.0648 165.99 85.5257 163.383 84.844 160.961C84.1647 158.511 84.1663 156.303 84.8489 154.334C85.5339 152.338 86.7234 150.638 88.4173 149.235C90.3114 147.665 92.1628 146.936 93.9713 147.047C95.7798 147.159 97.253 147.678 98.391 148.605L95.6774 144.153L100.205 140.401L118.726 161.984C121.709 165.459 123.173 168.947 123.119 172.445C123.093 175.947 121.348 179.133 117.883 182.005C116.02 183.549 114.201 184.653 112.427 185.319C110.666 185.999 109.263 186.422 108.218 186.586L107.132 180.162ZM106.044 167.195C107.384 166.085 107.897 164.595 107.583 162.725C107.272 160.827 106.133 158.732 104.167 156.441C102.304 154.27 100.475 152.799 98.6798 152.028C96.8715 151.241 95.2589 151.434 93.8422 152.608C93.0568 153.259 92.5041 154.12 92.1841 155.19C91.8665 156.232 91.9325 157.476 92.3823 158.921C92.832 160.367 93.8319 161.992 95.3819 163.799C97.4919 166.257 99.4653 167.712 101.302 168.164C103.154 168.603 104.735 168.28 106.044 167.195ZM135.251 150.938C131.863 153.746 128.347 154.868 124.701 154.305C121.056 153.742 117.644 151.609 114.466 147.905C111.262 144.172 109.723 140.474 109.848 136.812C109.973 133.15 111.73 129.916 115.117 127.108C118.521 124.288 122.033 123.222 125.653 123.909C129.276 124.569 132.631 126.697 135.718 130.294C138.804 133.891 140.349 137.533 140.35 141.22C140.354 144.878 138.655 148.118 135.251 150.938ZM131.436 146.308C134.362 143.884 133.741 140.243 129.573 135.386C125.379 130.499 121.819 129.268 118.893 131.692C117.446 132.892 116.81 134.393 116.986 136.195C117.149 137.981 118.357 140.188 120.611 142.813C122.851 145.424 124.853 146.959 126.618 147.418C128.383 147.878 129.989 147.508 131.436 146.308ZM158.464 132.091C155.861 134.248 153.525 135.041 151.455 134.472C149.4 133.889 147.214 132.247 144.895 129.545L135.869 119.027L132.866 121.516L128.763 116.735L131.997 114.055L128.218 109.006L131.417 102.693L137.356 109.614L143.039 104.905L147.141 109.686L141.459 114.395L150.368 124.776C151.501 126.097 152.474 126.862 153.286 127.071C154.101 127.253 154.84 127.07 155.502 126.521C156.179 125.96 156.746 125.192 157.201 124.217C157.656 123.243 157.942 122.395 158.061 121.673L163.116 125.353C162.926 126.083 162.556 126.895 162.007 127.792C161.461 128.66 160.854 129.487 160.186 130.275C159.546 131.065 158.972 131.67 158.464 132.091ZM173.424 119.616C172.007 120.79 170.562 121.455 169.089 121.611C167.631 121.755 166.228 121.502 164.88 120.853C163.548 120.191 162.348 119.237 161.28 117.993C160.681 117.295 160.2 116.381 159.838 115.253C159.491 114.112 159.454 112.779 159.727 111.255C160 109.73 160.767 108.03 162.029 106.153C163.29 104.276 165.238 102.247 167.871 100.064L166.973 99.0172C166.009 97.8941 164.93 97.1904 163.738 96.9061C162.561 96.6091 161.148 97.1433 159.5 98.5088C158.299 99.5042 157.297 100.685 156.494 102.052C155.693 103.391 155.277 104.58 155.246 105.619L149.647 102.779C150.037 101.391 150.78 99.8008 151.877 98.0086C152.977 96.1885 154.474 94.4936 156.368 92.9239C158.647 91.0352 160.711 89.9091 162.56 89.5457C164.409 89.1822 166.128 89.4198 167.717 90.2584C169.293 91.0818 170.804 92.3358 172.25 94.0205L185.027 108.91L180.084 113.006L176.894 110.118C177.507 114.025 176.35 117.191 173.424 119.616ZM172.122 113.216C172.815 112.641 173.319 111.756 173.636 110.558C173.955 109.333 173.974 108.097 173.693 106.849L170.919 103.616C170.739 103.713 170.557 103.838 170.372 103.992C170.202 104.132 170.002 104.298 169.771 104.489C168.924 105.191 168.116 106.03 167.346 107.006C166.578 107.954 166.073 108.931 165.83 109.937C165.587 110.944 165.823 111.864 166.54 112.699C167.478 113.792 168.388 114.362 169.272 114.409C170.155 114.456 171.105 114.058 172.122 113.216ZM199.167 98.2824C197.304 99.8265 195.264 100.673 193.047 100.822C190.83 100.972 188.575 100.464 186.284 99.2979C184.008 98.1195 181.841 96.3313 179.783 93.9333C176.579 90.1996 174.841 86.6399 174.571 83.2541C174.316 79.8555 175.72 76.8864 178.785 74.3469C180.356 73.0452 182.012 72.3347 183.754 72.2155C185.499 72.0683 187.152 72.5816 188.712 73.7555L185.444 70.7762L174.699 58.2548L180.15 53.7372L209.847 88.3418L204.811 92.5148L200.825 87.8705C201.751 89.7783 202.114 91.6594 201.913 93.5137C201.7 95.3529 200.784 96.9424 199.167 98.2824ZM196.639 92.6644C197.748 91.7456 198.252 90.3533 198.153 88.4876C198.041 86.6067 196.872 84.3686 194.644 81.7733C192.612 79.4056 190.704 77.8575 188.919 77.1289C187.135 76.4003 185.534 76.6231 184.117 77.7971C183.394 78.3969 182.859 79.2168 182.513 80.2567C182.182 81.2839 182.24 82.5341 182.688 84.0073C183.122 85.4653 184.14 87.1277 185.742 88.9946C187.891 91.4988 189.932 93.002 191.865 93.5039C193.785 93.9907 195.376 93.7109 196.639 92.6644ZM225.482 76.1635C222.095 78.971 218.578 80.0932 214.933 79.5301C211.287 78.967 207.876 76.8338 204.697 73.1305C201.493 69.3969 199.954 65.6992 200.079 62.0374C200.204 58.3757 201.961 55.1411 205.349 52.3335C208.752 49.5132 212.264 48.4469 215.884 49.1345C219.507 49.7942 222.862 51.9225 225.949 55.5196C229.036 59.1166 230.58 62.7585 230.581 66.445C230.585 70.1037 228.886 73.3432 225.482 76.1635ZM221.667 71.5337C224.593 69.109 223.972 65.4682 219.804 60.6114C215.61 55.7243 212.05 54.4931 209.125 56.9178C207.677 58.1174 207.041 59.6181 207.217 61.42C207.38 63.2068 208.589 65.413 210.842 68.0387C213.082 70.6492 215.085 72.1842 216.849 72.6437C218.614 73.1033 220.22 72.7332 221.667 71.5337Z" fill="#FB4141"/>
<path d="M70.4836 203.832L69.5225 204.13L69.9805 205.548L71.1348 204.591L70.4836 203.832ZM56.4083 160.256L55.7571 159.497L55.2435 159.923L55.4472 160.553L56.4083 160.256ZM56.8703 159.873L57.3299 158.992L56.732 158.689L56.2191 159.114L56.8703 159.873ZM98.2488 180.823L98.9 181.582L100.056 180.624L98.7084 179.942L98.2488 180.823ZM91.9658 186.03L91.4821 186.898L92.089 187.226L92.617 186.789L91.9658 186.03ZM86.2175 182.924L86.7012 182.056L86.0944 181.728L85.5663 182.165L86.2175 182.924ZM74.7142 192.457L74.0629 191.698L73.525 192.144L73.7672 192.795L74.7142 192.457ZM76.9513 198.472L77.6026 199.231L78.1405 198.785L77.8983 198.134L76.9513 198.472ZM68.3968 175.331L69.3445 174.995L69.3316 174.96L69.3161 174.926L68.3968 175.331ZM72.5871 186.662L71.6394 186.999L72.1341 188.336L73.2383 187.421L72.5871 186.662ZM80.718 179.924L81.3692 180.683L82.4899 179.754L81.2032 179.056L80.718 179.924ZM69.9214 174.068L69.3738 174.899L69.4043 174.918L69.4362 174.935L69.9214 174.068ZM66.9478 172.169L67.4954 171.338L64.6212 169.502L66.0286 172.574L66.9478 172.169ZM71.4446 203.535L57.3694 159.958L55.4472 160.553L69.5225 204.13L71.4446 203.535ZM57.0596 161.015L57.5215 160.632L56.2191 159.114L55.7571 159.497L57.0596 161.015ZM56.4107 160.754L97.7891 181.704L98.7084 179.942L57.3299 158.992L56.4107 160.754ZM97.5975 180.064L91.3146 185.271L92.617 186.789L98.9 181.582L97.5975 180.064ZM92.4495 185.161L86.7012 182.056L85.7338 183.793L91.4821 186.898L92.4495 185.161ZM85.5663 182.165L74.0629 191.698L75.3654 193.216L86.8688 183.683L85.5663 182.165ZM73.7672 192.795L76.0043 198.81L77.8983 198.134L75.6612 192.119L73.7672 192.795ZM76.3001 197.713L69.8323 203.073L71.1348 204.591L77.6026 199.231L76.3001 197.713ZM67.4492 175.667L71.6394 186.999L73.5347 186.326L69.3445 174.995L67.4492 175.667ZM73.2383 187.421L81.3692 180.683L80.0667 179.165L71.9358 185.903L73.2383 187.421ZM81.2032 179.056L70.4065 173.2L69.4362 174.935L80.2328 180.792L81.2032 179.056ZM70.469 173.237L67.4954 171.338L66.4002 173L69.3738 174.899L70.469 173.237ZM66.0286 172.574L67.4776 175.736L69.3161 174.926L67.8671 171.764L66.0286 172.574ZM107.132 180.162L106.978 179.182L105.97 179.332L106.137 180.322L107.132 180.162ZM109.923 179.407L110.281 180.335L110.287 180.333L109.923 179.407ZM116.196 172.3L115.19 172.23L115.189 172.237L116.196 172.3ZM110.504 162.72L111.274 162.082L109.589 163.134L110.504 162.72ZM111.461 165.862L110.466 166.018L110.466 166.018L111.461 165.862ZM111.165 169.34L112.123 169.652L112.125 169.647L111.165 169.34ZM102.987 175.378L103.17 176.353L103.183 176.351L102.987 175.378ZM96.4331 174.42L96.0224 175.324L96.0224 175.324L96.4331 174.42ZM84.844 160.961L83.8711 161.219L83.8721 161.223L84.844 160.961ZM84.8489 154.334L85.8035 154.657L85.8046 154.654L84.8489 154.334ZM98.391 148.605L97.749 149.368L99.2556 148.097L98.391 148.605ZM95.6774 144.153L95.0261 143.394L94.3714 143.937L94.8128 144.661L95.6774 144.153ZM100.205 140.401L100.975 139.763L100.324 139.004L99.5536 139.642L100.205 140.401ZM123.119 172.445L122.111 172.428L122.111 172.435L123.119 172.445ZM112.427 185.319L112.065 184.392L112.056 184.396L112.427 185.319ZM108.218 186.586L107.223 186.746L107.388 187.721L108.38 187.565L108.218 186.586ZM107.583 162.725L106.588 162.88L106.588 162.883L107.583 162.725ZM98.6798 152.028L98.2739 152.934L98.2781 152.936L98.6798 152.028ZM92.1841 155.19L93.1502 155.477L93.1517 155.472L92.1841 155.19ZM101.302 168.164L101.06 169.126L101.069 169.128L101.302 168.164ZM107.286 181.142C108.213 181.004 109.213 180.731 110.281 180.335L109.565 178.479C108.594 178.839 107.733 179.069 106.978 179.182L107.286 181.142ZM110.287 180.333C111.449 179.895 112.594 179.194 113.721 178.26L112.419 176.742C111.421 177.569 110.467 178.139 109.56 178.481L110.287 180.333ZM113.721 178.26C115.82 176.52 117.067 174.557 117.202 172.363L115.189 172.237C115.099 173.711 114.262 175.215 112.419 176.742L113.721 178.26ZM117.202 172.37C117.354 170.181 116.286 167.922 114.322 165.633L112.782 166.91C114.595 169.023 115.29 170.783 115.19 172.23L117.202 172.37ZM114.322 165.633L111.274 162.082L109.734 163.358L112.782 166.91L114.322 165.633ZM109.589 163.134C109.996 163.997 110.29 164.957 110.466 166.018L112.456 165.705C112.254 164.483 111.91 163.348 111.419 162.306L109.589 163.134ZM110.466 166.018C110.627 166.994 110.546 167.995 110.205 169.033L112.125 169.647C112.557 168.331 112.673 167.013 112.456 165.705L110.466 166.018ZM110.207 169.028C109.897 169.955 109.217 170.902 108.067 171.856L109.37 173.373C110.714 172.259 111.665 171.023 112.123 169.652L110.207 169.028ZM108.067 171.856C106.448 173.198 104.691 174.039 102.79 174.404L103.183 176.351C105.444 175.916 107.509 174.915 109.37 173.373L108.067 171.856ZM102.803 174.402C100.96 174.732 98.9833 174.459 96.8438 173.515L96.0224 175.324C98.4636 176.401 100.856 176.767 103.17 176.353L102.803 174.402ZM96.8438 173.515C94.7404 172.587 92.5321 170.826 90.2313 168.145L88.6914 169.421C91.1056 172.234 93.5451 174.231 96.0224 175.324L96.8438 173.515ZM90.2313 168.145C87.8896 165.416 86.4451 162.935 85.8158 160.699L83.8721 161.223C84.6062 163.831 86.24 166.564 88.6914 169.421L90.2313 168.145ZM85.8169 160.703C85.1788 158.402 85.1989 156.4 85.8035 154.657L83.8943 154.012C83.1338 156.205 83.1505 158.621 83.8711 161.219L85.8169 160.703ZM85.8046 154.654C86.4287 152.835 87.5099 151.285 89.0686 149.994L87.7661 148.476C85.9368 149.992 84.6391 151.842 83.8933 154.015L85.8046 154.654ZM89.0686 149.994C90.839 148.526 92.4444 147.946 93.9111 148.037L94.0315 146.058C91.8812 145.925 89.7839 146.804 87.7661 148.476L89.0686 149.994ZM93.9111 148.037C95.5557 148.138 96.8103 148.603 97.749 149.368L99.033 147.842C97.6958 146.753 96.0038 146.179 94.0315 146.058L93.9111 148.037ZM99.2556 148.097L96.542 143.645L94.8128 144.661L97.5264 149.113L99.2556 148.097ZM96.3286 144.912L100.856 141.16L99.5536 139.642L95.0261 143.394L96.3286 144.912ZM99.4348 141.039L117.956 162.622L119.496 161.346L100.975 139.763L99.4348 141.039ZM117.956 162.622C120.829 165.97 122.16 169.232 122.111 172.428L124.127 172.463C124.186 168.661 122.588 164.949 119.496 161.346L117.956 162.622ZM122.111 172.435C122.088 175.572 120.539 178.506 117.232 181.246L118.535 182.763C122.158 179.761 124.099 176.322 124.127 172.455L122.111 172.435ZM117.232 181.246C115.432 182.738 113.709 183.776 112.065 184.392L112.789 186.245C114.693 185.531 116.608 184.36 118.535 182.763L117.232 181.246ZM112.056 184.396C110.318 185.067 108.994 185.459 108.056 185.607L108.38 187.565C109.531 187.384 111.013 186.931 112.798 186.242L112.056 184.396ZM109.213 186.426L108.127 180.002L106.137 180.322L107.223 186.746L109.213 186.426ZM106.695 167.954C108.336 166.594 108.943 164.74 108.578 162.567L106.588 162.883C106.851 164.45 106.431 165.576 105.393 166.436L106.695 167.954ZM108.579 162.57C108.227 160.421 106.961 158.162 104.937 155.803L103.397 157.079C105.306 159.303 106.318 161.233 106.588 162.88L108.579 162.57ZM104.937 155.803C103.018 153.566 101.07 151.974 99.0815 151.119L98.2781 152.936C99.8801 153.624 101.591 154.974 103.397 157.079L104.937 155.803ZM99.0857 151.121C98.0507 150.671 97.0114 150.476 95.9891 150.598C94.9623 150.722 94.0269 151.157 93.1909 151.849L94.4934 153.367C95.0742 152.886 95.6535 152.637 96.2393 152.567C96.8294 152.496 97.5006 152.597 98.2739 152.934L99.0857 151.121ZM93.1909 151.849C92.2393 152.638 91.5862 153.672 91.2165 154.908L93.1517 155.472C93.4221 154.568 93.8743 153.88 94.4934 153.367L93.1909 151.849ZM91.218 154.903C90.8251 156.192 90.9318 157.646 91.418 159.209L93.3465 158.634C92.9333 157.306 92.9078 156.273 93.1502 155.477L91.218 154.903ZM91.418 159.209C91.9239 160.835 93.018 162.579 94.6119 164.437L96.1518 163.16C94.6458 161.405 93.7402 159.899 93.3465 158.634L91.418 159.209ZM94.6119 164.437C96.7701 166.951 98.9149 168.598 101.06 169.126L101.544 167.202C100.016 166.826 98.2137 165.563 96.1518 163.16L94.6119 164.437ZM101.069 169.128C103.193 169.631 105.112 169.266 106.695 167.954L105.393 166.436C104.358 167.294 103.116 167.575 101.536 167.2L101.069 169.128ZM124.701 154.305L124.855 153.325L124.855 153.325L124.701 154.305ZM109.848 136.812L110.856 136.848L110.856 136.848L109.848 136.812ZM125.653 123.909L125.465 124.883L125.472 124.884L125.653 123.909ZM140.35 141.22L139.342 141.217L139.342 141.218L140.35 141.22ZM116.986 136.195L117.991 136.109L117.99 136.103L116.986 136.195ZM126.618 147.418L126.362 148.377L126.362 148.377L126.618 147.418ZM134.6 150.179C131.386 152.843 128.154 153.835 124.855 153.325L124.548 155.284C128.54 155.901 132.341 154.648 135.903 151.697L134.6 150.179ZM124.855 153.325C121.521 152.81 118.31 150.849 115.236 147.267L113.696 148.543C116.978 152.368 120.592 154.673 124.548 155.284L124.855 153.325ZM115.236 147.267C112.139 143.658 110.742 140.192 110.856 136.848L108.84 136.776C108.704 140.755 110.385 144.685 113.696 148.543L115.236 147.267ZM110.856 136.848C110.97 133.52 112.553 130.532 115.769 127.867L114.466 126.349C110.906 129.3 108.977 132.781 108.84 136.776L110.856 136.848ZM115.769 127.867C118.993 125.195 122.206 124.264 125.465 124.883L125.842 122.936C121.859 122.179 118.048 123.381 114.466 126.349L115.769 127.867ZM125.472 124.884C128.804 125.491 131.966 127.458 134.948 130.932L136.488 129.656C133.295 125.936 129.748 123.647 125.834 122.934L125.472 124.884ZM134.948 130.932C137.924 134.401 139.34 137.823 139.342 141.217L141.359 141.222C141.357 137.243 139.685 133.382 136.488 129.656L134.948 130.932ZM139.342 141.218C139.345 144.526 137.826 147.506 134.6 150.179L135.903 151.697C139.483 148.73 141.363 145.23 141.359 141.222L139.342 141.218ZM132.088 147.067C133.815 145.636 134.53 143.773 134.159 141.598C133.804 139.517 132.47 137.227 130.343 134.748L128.803 136.024C130.844 138.402 131.904 140.361 132.17 141.92C132.42 143.387 131.983 144.556 130.785 145.549L132.088 147.067ZM130.343 134.748C128.203 132.255 126.123 130.565 124.09 129.862C121.966 129.128 119.972 129.5 118.242 130.934L119.545 132.451C120.741 131.46 121.989 131.236 123.426 131.733C124.953 132.261 126.749 133.63 128.803 136.024L130.343 134.748ZM118.242 130.934C116.551 132.335 115.774 134.15 115.982 136.287L117.99 136.103C117.847 134.636 118.341 133.449 119.545 132.451L118.242 130.934ZM115.982 136.28C116.174 138.385 117.557 140.791 119.841 143.451L121.381 142.175C119.158 139.585 118.125 137.578 117.991 136.109L115.982 136.28ZM119.841 143.451C122.112 146.098 124.284 147.836 126.362 148.377L126.874 146.46C125.422 146.082 123.59 144.75 121.381 142.175L119.841 143.451ZM126.362 148.377C128.459 148.923 130.401 148.465 132.088 147.067L130.785 145.549C129.577 146.551 128.306 146.833 126.874 146.46L126.362 148.377ZM151.455 134.472L151.178 135.424L151.186 135.426L151.455 134.472ZM135.869 119.027L136.639 118.389L135.988 117.63L135.218 118.268L135.869 119.027ZM132.866 121.516L132.096 122.154L132.747 122.913L133.517 122.275L132.866 121.516ZM128.763 116.735L128.112 115.976L127.342 116.614L127.993 117.373L128.763 116.735ZM131.997 114.055L132.648 114.814L133.369 114.217L132.809 113.469L131.997 114.055ZM128.218 109.006L127.315 108.562L127.04 109.104L127.406 109.592L128.218 109.006ZM131.417 102.693L132.187 102.055L131.197 100.901L130.514 102.249L131.417 102.693ZM137.356 109.614L136.586 110.252L137.237 111.011L138.007 110.373L137.356 109.614ZM143.039 104.905L143.809 104.267L143.157 103.508L142.387 104.146L143.039 104.905ZM147.141 109.686L147.793 110.445L148.563 109.807L147.911 109.048L147.141 109.686ZM141.459 114.395L140.808 113.636L140.038 114.274L140.689 115.033L141.459 114.395ZM153.286 127.071L153.033 128.03L153.049 128.035L153.066 128.038L153.286 127.071ZM157.201 124.217L156.284 123.801L156.284 123.801L157.201 124.217ZM158.061 121.673L158.66 120.877L157.329 119.908L157.066 121.512L158.061 121.673ZM163.116 125.353L164.093 125.603L164.262 124.955L163.715 124.557L163.116 125.353ZM162.007 127.792L162.865 128.315L162.872 128.305L162.007 127.792ZM160.186 130.275L159.411 129.638L159.403 129.647L159.396 129.656L160.186 130.275ZM157.813 131.333C155.311 133.406 153.318 133.956 151.724 133.517L151.186 135.426C153.732 136.127 156.412 135.09 159.115 132.85L157.813 131.333ZM151.732 133.519C149.96 133.017 147.933 131.55 145.665 128.907L144.125 130.183C146.494 132.944 148.84 134.761 151.178 135.424L151.732 133.519ZM145.665 128.907L136.639 118.389L135.099 119.665L144.125 130.183L145.665 128.907ZM135.218 118.268L132.215 120.757L133.517 122.275L136.52 119.786L135.218 118.268ZM133.636 120.878L129.533 116.097L127.993 117.373L132.096 122.154L133.636 120.878ZM129.415 117.494L132.648 114.814L131.346 113.296L128.112 115.976L129.415 117.494ZM132.809 113.469L129.029 108.42L127.406 109.592L131.186 114.641L132.809 113.469ZM129.121 109.45L132.32 103.137L130.514 102.249L127.315 108.562L129.121 109.45ZM130.647 103.331L136.586 110.252L138.126 108.976L132.187 102.055L130.647 103.331ZM138.007 110.373L143.69 105.664L142.387 104.146L136.705 108.855L138.007 110.373ZM142.269 105.543L146.371 110.324L147.911 109.048L143.809 104.267L142.269 105.543ZM146.49 108.927L140.808 113.636L142.11 115.154L147.793 110.445L146.49 108.927ZM140.689 115.033L149.598 125.414L151.138 124.138L142.229 113.757L140.689 115.033ZM149.598 125.414C150.746 126.752 151.894 127.736 153.033 128.03L153.54 126.112C153.054 125.987 152.256 125.441 151.138 124.138L149.598 125.414ZM153.066 128.038C154.202 128.292 155.261 128.019 156.153 127.28L154.851 125.762C154.419 126.12 154 126.215 153.507 126.105L153.066 128.038ZM156.153 127.28C156.967 126.606 157.615 125.71 158.117 124.633L156.284 123.801C155.877 124.673 155.392 125.313 154.851 125.762L156.153 127.28ZM158.117 124.633C158.594 123.612 158.919 122.674 159.057 121.834L157.066 121.512C156.966 122.115 156.717 122.874 156.284 123.801L158.117 124.633ZM157.463 122.469L162.518 126.149L163.715 124.557L158.66 120.877L157.463 122.469ZM162.14 125.104C161.98 125.712 161.659 126.435 161.143 127.278L162.872 128.305C163.452 127.356 163.871 126.453 164.093 125.603L162.14 125.104ZM161.149 127.268C160.628 128.097 160.049 128.887 159.411 129.638L160.961 130.911C161.659 130.088 162.294 129.223 162.865 128.315L161.149 127.268ZM159.396 129.656C158.778 130.419 158.251 130.97 157.813 131.333L159.115 132.85C159.694 132.371 160.314 131.71 160.975 130.894L159.396 129.656ZM169.089 121.611L169.192 122.598L169.2 122.597L169.089 121.611ZM164.88 120.853L164.428 121.737L164.439 121.743L164.88 120.853ZM159.838 115.253L158.872 115.534L158.874 115.542L158.876 115.549L159.838 115.253ZM159.727 111.255L160.72 111.429L160.72 111.429L159.727 111.255ZM162.029 106.153L162.87 106.701L162.87 106.701L162.029 106.153ZM167.871 100.064L168.522 100.823L169.292 100.185L168.641 99.4264L167.871 100.064ZM163.738 96.9061L163.49 97.8665L163.503 97.8696L163.738 96.9061ZM156.494 102.052L157.364 102.557L157.367 102.55L156.494 102.052ZM155.246 105.619L154.786 106.499L156.207 107.22L156.254 105.651L155.246 105.619ZM149.647 102.779L148.675 102.512L148.456 103.289L149.187 103.66L149.647 102.779ZM151.877 98.0086L152.742 98.5217L152.745 98.5167L151.877 98.0086ZM162.56 89.5457L162.76 90.5179L162.76 90.5179L162.56 89.5457ZM167.717 90.2584L167.242 91.1317L167.246 91.1336L167.717 90.2584ZM185.027 108.91L185.679 109.668L186.448 109.03L185.797 108.272L185.027 108.91ZM180.084 113.006L179.402 113.734L180.057 114.327L180.735 113.765L180.084 113.006ZM176.894 110.118L177.576 109.389L175.459 107.473L175.897 110.266L176.894 110.118ZM173.636 110.558L174.612 110.81L174.613 110.807L173.636 110.558ZM173.693 106.849L174.678 106.638L174.624 106.398L174.463 106.211L173.693 106.849ZM170.919 103.616L171.689 102.978L171.155 102.356L170.431 102.747L170.919 103.616ZM167.346 107.006L168.135 107.625L168.143 107.615L167.346 107.006ZM165.83 109.937L164.848 109.706L164.848 109.706L165.83 109.937ZM172.773 118.857C171.471 119.936 170.207 120.495 168.978 120.625L169.2 122.597C170.917 122.415 172.544 121.644 174.075 120.375L172.773 118.857ZM168.986 120.625C167.719 120.749 166.505 120.532 165.322 119.962L164.439 121.743C165.952 122.471 167.543 122.76 169.192 122.598L168.986 120.625ZM165.333 119.968C164.135 119.373 163.04 118.508 162.05 117.355L160.51 118.631C161.656 119.967 162.961 121.009 164.428 121.737L165.333 119.968ZM162.05 117.355C161.559 116.782 161.133 115.996 160.8 114.957L158.876 115.549C159.267 116.767 159.803 117.807 160.51 118.631L162.05 117.355ZM160.804 114.972C160.514 114.016 160.467 112.846 160.72 111.429L158.734 111.08C158.442 112.712 158.469 114.208 158.872 115.534L160.804 114.972ZM160.72 111.429C160.961 110.085 161.653 108.512 162.87 106.701L161.187 105.604C159.881 107.547 159.039 109.376 158.734 111.08L160.72 111.429ZM162.87 106.701C164.06 104.932 165.93 102.972 168.522 100.823L167.22 99.3056C164.546 101.521 162.521 103.62 161.187 105.604L162.87 106.701ZM168.641 99.4264L167.743 98.3792L166.203 99.6553L167.101 100.703L168.641 99.4264ZM167.743 98.3792C166.671 97.1302 165.416 96.2867 163.973 95.9426L163.503 97.8696C164.445 98.0941 165.347 98.658 166.203 99.6553L167.743 98.3792ZM163.986 95.9458C162.313 95.5237 160.558 96.3337 158.849 97.7499L160.152 99.2677C161.738 97.9529 162.808 97.6944 163.49 97.8664L163.986 95.9458ZM158.849 97.7499C157.557 98.8206 156.48 100.091 155.62 101.554L157.367 102.55C158.114 101.28 159.041 100.188 160.152 99.2677L158.849 97.7499ZM155.624 101.548C154.777 102.964 154.276 104.319 154.238 105.587L156.254 105.651C156.278 104.841 156.609 103.818 157.363 102.557L155.624 101.548ZM155.706 104.738L150.107 101.898L149.187 103.66L154.786 106.499L155.706 104.738ZM150.619 103.045C150.976 101.774 151.673 100.268 152.742 98.5217L151.013 97.4955C149.888 99.3332 149.097 101.008 148.675 102.512L150.619 103.045ZM152.745 98.5167C153.779 96.8046 155.198 95.1919 157.019 93.6828L155.717 92.165C153.749 93.7953 152.175 95.5724 151.01 97.5005L152.745 98.5167ZM157.019 93.6828C159.237 91.845 161.147 90.835 162.76 90.5179L162.359 88.5734C160.275 88.9832 158.057 90.2254 155.717 92.165L157.019 93.6828ZM162.76 90.5179C164.391 90.1973 165.87 90.4077 167.242 91.1317L168.192 89.3851C166.385 88.4319 164.426 88.1671 162.359 88.5734L162.76 90.5179ZM167.246 91.1336C168.683 91.8844 170.097 93.0471 171.48 94.6586L173.02 93.3825C171.511 91.6246 169.904 90.2792 168.188 89.3831L167.246 91.1336ZM171.48 94.6586L184.257 109.548L185.797 108.272L173.02 93.3825L171.48 94.6586ZM184.376 108.151L179.433 112.247L180.735 113.765L185.679 109.668L184.376 108.151ZM180.766 112.278L177.576 109.389L176.212 110.846L179.402 113.734L180.766 112.278ZM175.897 110.266C176.46 113.852 175.415 116.667 172.773 118.857L174.075 120.375C177.285 117.715 178.554 114.198 177.891 109.97L175.897 110.266ZM172.773 113.975C173.676 113.226 174.263 112.131 174.612 110.81L172.66 110.306C172.376 111.38 171.953 112.057 171.47 112.457L172.773 113.975ZM174.613 110.807C174.971 109.43 174.992 108.036 174.678 106.638L172.709 107.06C172.955 108.158 172.938 109.237 172.659 110.31L174.613 110.807ZM174.463 106.211L171.689 102.978L170.149 104.254L172.923 107.487L174.463 106.211ZM170.431 102.747C170.184 102.88 169.947 103.045 169.721 103.233L171.023 104.75C171.166 104.632 171.294 104.546 171.407 104.485L170.431 102.747ZM169.721 103.233C169.72 103.233 169.72 103.233 169.72 103.234C169.719 103.234 169.719 103.234 169.719 103.234C169.718 103.235 169.718 103.235 169.718 103.235C169.717 103.235 169.717 103.236 169.717 103.236C169.716 103.236 169.716 103.237 169.716 103.237C169.715 103.237 169.715 103.237 169.715 103.238C169.714 103.238 169.714 103.238 169.714 103.238C169.713 103.239 169.713 103.239 169.713 103.239C169.712 103.24 169.712 103.24 169.712 103.24C169.711 103.24 169.711 103.241 169.711 103.241C169.71 103.241 169.71 103.242 169.71 103.242C169.709 103.242 169.709 103.242 169.709 103.243C169.708 103.243 169.708 103.243 169.708 103.243C169.707 103.244 169.707 103.244 169.707 103.244C169.706 103.245 169.706 103.245 169.706 103.245C169.705 103.245 169.705 103.246 169.705 103.246C169.704 103.246 169.704 103.247 169.704 103.247C169.703 103.247 169.703 103.247 169.703 103.248C169.702 103.248 169.702 103.248 169.702 103.248C169.701 103.249 169.701 103.249 169.701 103.249C169.7 103.25 169.7 103.25 169.7 103.25C169.699 103.25 169.699 103.251 169.699 103.251C169.698 103.251 169.698 103.252 169.698 103.252C169.697 103.252 169.697 103.252 169.697 103.253C169.696 103.253 169.696 103.253 169.696 103.253C169.695 103.254 169.695 103.254 169.695 103.254C169.694 103.255 169.694 103.255 169.694 103.255C169.693 103.255 169.693 103.256 169.692 103.256C169.692 103.256 169.692 103.257 169.691 103.257C169.691 103.257 169.691 103.257 169.69 103.258C169.69 103.258 169.69 103.258 169.689 103.259C169.689 103.259 169.689 103.259 169.688 103.259C169.688 103.26 169.688 103.26 169.687 103.26C169.687 103.26 169.687 103.261 169.686 103.261C169.686 103.261 169.686 103.262 169.685 103.262C169.685 103.262 169.685 103.262 169.684 103.263C169.684 103.263 169.684 103.263 169.683 103.264C169.683 103.264 169.683 103.264 169.682 103.264C169.682 103.265 169.682 103.265 169.681 103.265C169.681 103.266 169.681 103.266 169.68 103.266C169.68 103.266 169.68 103.267 169.679 103.267C169.679 103.267 169.679 103.268 169.678 103.268C169.678 103.268 169.678 103.268 169.677 103.269C169.677 103.269 169.677 103.269 169.676 103.269C169.676 103.27 169.676 103.27 169.675 103.27C169.675 103.271 169.675 103.271 169.674 103.271C169.674 103.271 169.673 103.272 169.673 103.272C169.673 103.272 169.672 103.273 169.672 103.273C169.672 103.273 169.671 103.273 169.671 103.274C169.671 103.274 169.67 103.274 169.67 103.275C169.67 103.275 169.669 103.275 169.669 103.275C169.669 103.276 169.668 103.276 169.668 103.276C169.668 103.277 169.667 103.277 169.667 103.277C169.667 103.277 169.666 103.278 169.666 103.278C169.666 103.278 169.665 103.279 169.665 103.279C169.665 103.279 169.664 103.279 169.664 103.28C169.664 103.28 169.663 103.28 169.663 103.281C169.662 103.281 169.662 103.281 169.662 103.281C169.661 103.282 169.661 103.282 169.661 103.282C169.66 103.283 169.66 103.283 169.66 103.283C169.659 103.283 169.659 103.284 169.659 103.284C169.658 103.284 169.658 103.285 169.658 103.285C169.657 103.285 169.657 103.285 169.657 103.286C169.656 103.286 169.656 103.286 169.656 103.287C169.655 103.287 169.655 103.287 169.655 103.287C169.654 103.288 169.654 103.288 169.654 103.288C169.653 103.289 169.653 103.289 169.652 103.289C169.652 103.289 169.652 103.29 169.651 103.29C169.651 103.29 169.651 103.291 169.65 103.291C169.65 103.291 169.65 103.291 169.649 103.292C169.649 103.292 169.649 103.292 169.648 103.293C169.648 103.293 169.648 103.293 169.647 103.293C169.647 103.294 169.647 103.294 169.646 103.294C169.646 103.295 169.646 103.295 169.645 103.295C169.645 103.295 169.644 103.296 169.644 103.296C169.644 103.296 169.643 103.297 169.643 103.297C169.643 103.297 169.642 103.297 169.642 103.298C169.642 103.298 169.641 103.298 169.641 103.299C169.641 103.299 169.64 103.299 169.64 103.3C169.64 103.3 169.639 103.3 169.639 103.3C169.639 103.301 169.638 103.301 169.638 103.301C169.638 103.302 169.637 103.302 169.637 103.302C169.636 103.302 169.636 103.303 169.636 103.303C169.635 103.303 169.635 103.304 169.635 103.304C169.634 103.304 169.634 103.304 169.634 103.305C169.633 103.305 169.633 103.305 169.633 103.306C169.632 103.306 169.632 103.306 169.632 103.306C169.631 103.307 169.631 103.307 169.63 103.307C169.63 103.308 169.63 103.308 169.629 103.308C169.629 103.309 169.629 103.309 169.628 103.309C169.628 103.309 169.628 103.31 169.627 103.31C169.627 103.31 169.627 103.311 169.626 103.311C169.626 103.311 169.626 103.311 169.625 103.312C169.625 103.312 169.625 103.312 169.624 103.313C169.624 103.313 169.623 103.313 169.623 103.313C169.623 103.314 169.622 103.314 169.622 103.314C169.622 103.315 169.621 103.315 169.621 103.315C169.621 103.316 169.62 103.316 169.62 103.316C169.62 103.316 169.619 103.317 169.619 103.317C169.618 103.317 169.618 103.318 169.618 103.318C169.617 103.318 169.617 103.318 169.617 103.319C169.616 103.319 169.616 103.319 169.616 103.32C169.615 103.32 169.615 103.32 169.615 103.321C169.614 103.321 169.614 103.321 169.614 103.321C169.613 103.322 169.613 103.322 169.612 103.322C169.612 103.323 169.612 103.323 169.611 103.323C169.611 103.323 169.611 103.324 169.61 103.324C169.61 103.324 169.61 103.325 169.609 103.325C169.609 103.325 169.609 103.326 169.608 103.326C169.608 103.326 169.607 103.326 169.607 103.327C169.607 103.327 169.606 103.327 169.606 103.328C169.606 103.328 169.605 103.328 169.605 103.329C169.605 103.329 169.604 103.329 169.604 103.329C169.604 103.33 169.603 103.33 169.603 103.33C169.602 103.331 169.602 103.331 169.602 103.331C169.601 103.331 169.601 103.332 169.601 103.332C169.6 103.332 169.6 103.333 169.6 103.333C169.599 103.333 169.599 103.334 169.599 103.334C169.598 103.334 169.598 103.334 169.597 103.335C169.597 103.335 169.597 103.335 169.596 103.336C169.596 103.336 169.596 103.336 169.595 103.337C169.595 103.337 169.595 103.337 169.594 103.337C169.594 103.338 169.594 103.338 169.593 103.338C169.593 103.339 169.592 103.339 169.592 103.339C169.592 103.34 169.591 103.34 169.591 103.34C169.591 103.34 169.59 103.341 169.59 103.341C169.59 103.341 169.589 103.342 169.589 103.342C169.588 103.342 169.588 103.342 169.588 103.343C169.587 103.343 169.587 103.343 169.587 103.344C169.586 103.344 169.586 103.344 169.586 103.345C169.585 103.345 169.585 103.345 169.584 103.345C169.584 103.346 169.584 103.346 169.583 103.346C169.583 103.347 169.583 103.347 169.582 103.347C169.582 103.348 169.582 103.348 169.581 103.348C169.581 103.348 169.581 103.349 169.58 103.349C169.58 103.349 169.579 103.35 169.579 103.35C169.579 103.35 169.578 103.351 169.578 103.351C169.578 103.351 169.577 103.351 169.577 103.352C169.577 103.352 169.576 103.352 169.576 103.353C169.575 103.353 169.575 103.353 169.575 103.354C169.574 103.354 169.574 103.354 169.574 103.355C169.573 103.355 169.573 103.355 169.573 103.355C169.572 103.356 169.572 103.356 169.571 103.356C169.571 103.357 169.571 103.357 169.57 103.357C169.57 103.358 169.57 103.358 169.569 103.358C169.569 103.358 169.569 103.359 169.568 103.359C169.568 103.359 169.567 103.36 169.567 103.36C169.567 103.36 169.566 103.361 169.566 103.361C169.566 103.361 169.565 103.361 169.565 103.362C169.564 103.362 169.564 103.362 169.564 103.363C169.563 103.363 169.563 103.363 169.563 103.364C169.562 103.364 169.562 103.364 169.562 103.364C169.561 103.365 169.561 103.365 169.56 103.365C169.56 103.366 169.56 103.366 169.559 103.366C169.559 103.367 169.559 103.367 169.558 103.367C169.558 103.368 169.558 103.368 169.557 103.368C169.557 103.368 169.556 103.369 169.556 103.369C169.556 103.369 169.555 103.37 169.555 103.37C169.555 103.37 169.554 103.371 169.554 103.371C169.553 103.371 169.553 103.371 169.553 103.372C169.552 103.372 169.552 103.372 169.552 103.373C169.551 103.373 169.551 103.373 169.551 103.374C169.55 103.374 169.55 103.374 169.549 103.375C169.549 103.375 169.549 103.375 169.548 103.375C169.548 103.376 169.548 103.376 169.547 103.376C169.547 103.377 169.546 103.377 169.546 103.377C169.546 103.378 169.545 103.378 169.545 103.378C169.545 103.379 169.544 103.379 169.544 103.379C169.543 103.379 169.543 103.38 169.543 103.38C169.542 103.38 169.542 103.381 169.542 103.381C169.541 103.381 169.541 103.382 169.541 103.382C169.54 103.382 169.54 103.383 169.539 103.383C169.539 103.383 169.539 103.383 169.538 103.384C169.538 103.384 169.538 103.384 169.537 103.385C169.537 103.385 169.536 103.385 169.536 103.386C169.536 103.386 169.535 103.386 169.535 103.387C169.535 103.387 169.534 103.387 169.534 103.387C169.533 103.388 169.533 103.388 169.533 103.388C169.532 103.389 169.532 103.389 169.532 103.389C169.531 103.39 169.531 103.39 169.53 103.39C169.53 103.391 169.53 103.391 169.529 103.391C169.529 103.391 169.529 103.392 169.528 103.392C169.528 103.392 169.527 103.393 169.527 103.393C169.527 103.393 169.526 103.394 169.526 103.394C169.526 103.394 169.525 103.395 169.525 103.395C169.525 103.395 169.524 103.396 169.524 103.396C169.523 103.396 169.523 103.396 169.523 103.397C169.522 103.397 169.522 103.397 169.522 103.398C169.521 103.398 169.521 103.398 169.52 103.399C169.52 103.399 169.52 103.399 169.519 103.4C169.519 103.4 169.519 103.4 169.518 103.4C169.518 103.401 169.517 103.401 169.517 103.401C169.517 103.402 169.516 103.402 169.516 103.402C169.515 103.403 169.515 103.403 169.515 103.403C169.514 103.404 169.514 103.404 169.514 103.404C169.513 103.405 169.513 103.405 169.512 103.405C169.512 103.405 169.512 103.406 169.511 103.406C169.511 103.406 169.511 103.407 169.51 103.407C169.51 103.407 169.509 103.408 169.509 103.408C169.509 103.408 169.508 103.409 169.508 103.409C169.508 103.409 169.507 103.41 169.507 103.41C169.506 103.41 169.506 103.41 169.506 103.411C169.505 103.411 169.505 103.411 169.505 103.412C169.504 103.412 169.504 103.412 169.503 103.413C169.503 103.413 169.503 103.413 169.502 103.414C169.502 103.414 169.502 103.414 169.501 103.415C169.501 103.415 169.5 103.415 169.5 103.415C169.5 103.416 169.499 103.416 169.499 103.416C169.498 103.417 169.498 103.417 169.498 103.417C169.497 103.418 169.497 103.418 169.497 103.418C169.496 103.419 169.496 103.419 169.495 103.419C169.495 103.42 169.495 103.42 169.494 103.42C169.494 103.421 169.494 103.421 169.493 103.421C169.493 103.421 169.492 103.422 169.492 103.422C169.492 103.422 169.491 103.423 169.491 103.423C169.49 103.423 169.49 103.424 169.49 103.424C169.489 103.424 169.489 103.425 169.489 103.425C169.488 103.425 169.488 103.426 169.487 103.426C169.487 103.426 169.487 103.427 169.486 103.427C169.486 103.427 169.486 103.427 169.485 103.428C169.485 103.428 169.484 103.428 169.484 103.429C169.484 103.429 169.483 103.429 169.483 103.43C169.482 103.43 169.482 103.43 169.482 103.431C169.481 103.431 169.481 103.431 169.481 103.432C169.48 103.432 169.48 103.432 169.479 103.433C169.479 103.433 169.479 103.433 169.478 103.434C169.478 103.434 169.477 103.434 169.477 103.434C169.477 103.435 169.476 103.435 169.476 103.435C169.476 103.436 169.475 103.436 169.475 103.436C169.474 103.437 169.474 103.437 169.474 103.437C169.473 103.438 169.473 103.438 169.472 103.438C169.472 103.439 169.472 103.439 169.471 103.439C169.471 103.44 169.471 103.44 169.47 103.44C169.47 103.441 169.469 103.441 169.469 103.441C169.469 103.442 169.468 103.442 169.468 103.442C169.467 103.442 169.467 103.443 169.467 103.443C169.466 103.443 169.466 103.444 169.466 103.444C169.465 103.444 169.465 103.445 169.464 103.445C169.464 103.445 169.464 103.446 169.463 103.446C169.463 103.446 169.462 103.447 169.462 103.447C169.462 103.447 169.461 103.448 169.461 103.448C169.461 103.448 169.46 103.449 169.46 103.449C169.459 103.449 169.459 103.45 169.459 103.45C169.458 103.45 169.458 103.45 169.457 103.451C169.457 103.451 169.457 103.451 169.456 103.452C169.456 103.452 169.455 103.452 169.455 103.453C169.455 103.453 169.454 103.453 169.454 103.454C169.454 103.454 169.453 103.454 169.453 103.455C169.452 103.455 169.452 103.455 169.452 103.456C169.451 103.456 169.451 103.456 169.45 103.457C169.45 103.457 169.45 103.457 169.449 103.458C169.449 103.458 169.448 103.458 169.448 103.459C169.448 103.459 169.447 103.459 169.447 103.46C169.446 103.46 169.446 103.46 169.446 103.46C169.445 103.461 169.445 103.461 169.445 103.461C169.444 103.462 169.444 103.462 169.443 103.462C169.443 103.463 169.443 103.463 169.442 103.463C169.442 103.464 169.441 103.464 169.441 103.464C169.441 103.465 169.44 103.465 169.44 103.465C169.439 103.466 169.439 103.466 169.439 103.466C169.438 103.467 169.438 103.467 169.437 103.467C169.437 103.468 169.437 103.468 169.436 103.468C169.436 103.469 169.436 103.469 169.435 103.469C169.435 103.47 169.434 103.47 169.434 103.47C169.434 103.471 169.433 103.471 169.433 103.471C169.432 103.472 169.432 103.472 169.432 103.472C169.431 103.473 169.431 103.473 169.43 103.473C169.43 103.473 169.43 103.474 169.429 103.474C169.429 103.474 169.428 103.475 169.428 103.475C169.428 103.475 169.427 103.476 169.427 103.476C169.426 103.476 169.426 103.477 169.426 103.477C169.425 103.477 169.425 103.478 169.425 103.478C169.424 103.478 169.424 103.479 169.423 103.479C169.423 103.479 169.423 103.48 169.422 103.48C169.422 103.48 169.421 103.481 169.421 103.481C169.421 103.481 169.42 103.482 169.42 103.482C169.419 103.482 169.419 103.483 169.419 103.483C169.418 103.483 169.418 103.484 169.417 103.484C169.417 103.484 169.417 103.485 169.416 103.485C169.416 103.485 169.415 103.486 169.415 103.486C169.415 103.486 169.414 103.487 169.414 103.487C169.413 103.487 169.413 103.488 169.413 103.488C169.412 103.488 169.412 103.489 169.411 103.489C169.411 103.489 169.411 103.49 169.41 103.49C169.41 103.49 169.409 103.491 169.409 103.491C169.409 103.491 169.408 103.492 169.408 103.492C169.407 103.492 169.407 103.493 169.407 103.493C169.406 103.493 169.406 103.494 169.405 103.494C169.405 103.494 169.405 103.494 169.404 103.495C169.404 103.495 169.403 103.495 169.403 103.496C169.403 103.496 169.402 103.496 169.402 103.497C169.401 103.497 169.401 103.497 169.401 103.498C169.4 103.498 169.4 103.498 169.399 103.499C169.399 103.499 169.399 103.499 169.398 103.5C169.398 103.5 169.397 103.5 169.397 103.501C169.397 103.501 169.396 103.501 169.396 103.502C169.395 103.502 169.395 103.502 169.395 103.503C169.394 103.503 169.394 103.503 169.393 103.504C169.393 103.504 169.393 103.504 169.392 103.505C169.392 103.505 169.391 103.505 169.391 103.506C169.391 103.506 169.39 103.506 169.39 103.507C169.389 103.507 169.389 103.507 169.389 103.508C169.388 103.508 169.388 103.508 169.387 103.509C169.387 103.509 169.387 103.509 169.386 103.51C169.386 103.51 169.385 103.51 169.385 103.511C169.385 103.511 169.384 103.511 169.384 103.512C169.383 103.512 169.383 103.512 169.383 103.513C169.382 103.513 169.382 103.513 169.381 103.514C169.381 103.514 169.381 103.514 169.38 103.515C169.38 103.515 169.379 103.515 169.379 103.516C169.379 103.516 169.378 103.516 169.378 103.517C169.377 103.517 169.377 103.517 169.377 103.518C169.376 103.518 169.376 103.518 169.375 103.519C169.375 103.519 169.375 103.519 169.374 103.52C169.374 103.52 169.373 103.52 169.373 103.521C169.373 103.521 169.372 103.521 169.372 103.522C169.371 103.522 169.371 103.522 169.371 103.523C169.37 103.523 169.37 103.523 169.369 103.524C169.369 103.524 169.368 103.524 169.368 103.525C169.368 103.525 169.367 103.526 169.367 103.526C169.366 103.526 169.366 103.527 169.366 103.527C169.365 103.527 169.365 103.528 169.364 103.528C169.364 103.528 169.364 103.529 169.363 103.529C169.363 103.529 169.362 103.53 169.362 103.53C169.362 103.53 169.361 103.531 169.361 103.531C169.36 103.531 169.36 103.532 169.36 103.532C169.359 103.532 169.359 103.533 169.358 103.533C169.358 103.533 169.357 103.534 169.357 103.534C169.357 103.534 169.356 103.535 169.356 103.535C169.355 103.535 169.355 103.536 169.355 103.536C169.354 103.536 169.354 103.537 169.353 103.537C169.353 103.537 169.353 103.538 169.352 103.538C169.352 103.538 169.351 103.539 169.351 103.539C169.351 103.539 169.35 103.54 169.35 103.54C169.349 103.54 169.349 103.541 169.349 103.541C169.348 103.541 169.348 103.542 169.347 103.542C169.347 103.542 169.346 103.543 169.346 103.543C169.346 103.543 169.345 103.544 169.345 103.544C169.344 103.544 169.344 103.545 169.344 103.545C169.343 103.545 169.343 103.546 169.342 103.546C169.342 103.546 169.342 103.547 169.341 103.547C169.341 103.548 169.34 103.548 169.34 103.548C169.339 103.549 169.339 103.549 169.339 103.549C169.338 103.55 169.338 103.55 169.337 103.55C169.337 103.551 169.337 103.551 169.336 103.551C169.336 103.552 169.335 103.552 169.335 103.552C169.335 103.553 169.334 103.553 169.334 103.553C169.333 103.554 169.333 103.554 169.332 103.554C169.332 103.555 169.332 103.555 169.331 103.555C169.331 103.556 169.33 103.556 169.33 103.556C169.33 103.557 169.329 103.557 169.329 103.557C169.328 103.558 169.328 103.558 169.328 103.558C169.327 103.559 169.327 103.559 169.326 103.559C169.326 103.56 169.325 103.56 169.325 103.56C169.325 103.561 169.324 103.561 169.324 103.562C169.323 103.562 169.323 103.562 169.323 103.563C169.322 103.563 169.322 103.563 169.321 103.564C169.321 103.564 169.32 103.564 169.32 103.565C169.32 103.565 169.319 103.565 169.319 103.566C169.318 103.566 169.318 103.566 169.318 103.567C169.317 103.567 169.317 103.567 169.316 103.568C169.316 103.568 169.315 103.568 169.315 103.569C169.315 103.569 169.314 103.569 169.314 103.57C169.313 103.57 169.313 103.57 169.313 103.571C169.312 103.571 169.312 103.572 169.311 103.572C169.311 103.572 169.31 103.573 169.31 103.573C169.31 103.573 169.309 103.574 169.309 103.574C169.308 103.574 169.308 103.575 169.308 103.575C169.307 103.575 169.307 103.576 169.306 103.576C169.306 103.576 169.305 103.577 169.305 103.577C169.305 103.577 169.304 103.578 169.304 103.578C169.303 103.578 169.303 103.579 169.303 103.579C169.302 103.579 169.302 103.58 169.301 103.58C169.301 103.581 169.3 103.581 169.3 103.581C169.3 103.582 169.299 103.582 169.299 103.582C169.298 103.583 169.298 103.583 169.298 103.583C169.297 103.584 169.297 103.584 169.296 103.584C169.296 103.585 169.295 103.585 169.295 103.585C169.295 103.586 169.294 103.586 169.294 103.586C169.293 103.587 169.293 103.587 169.293 103.587C169.292 103.588 169.292 103.588 169.291 103.589C169.291 103.589 169.29 103.589 169.29 103.59C169.29 103.59 169.289 103.59 169.289 103.591C169.288 103.591 169.288 103.591 169.287 103.592C169.287 103.592 169.287 103.592 169.286 103.593C169.286 103.593 169.285 103.593 169.285 103.594C169.285 103.594 169.284 103.594 169.284 103.595C169.283 103.595 169.283 103.595 169.282 103.596C169.282 103.596 169.282 103.597 169.281 103.597C169.281 103.597 169.28 103.598 169.28 103.598C169.279 103.598 169.279 103.599 169.279 103.599C169.278 103.599 169.278 103.6 169.277 103.6C169.277 103.6 169.276 103.601 169.276 103.601C169.276 103.601 169.275 103.602 169.275 103.602C169.274 103.602 169.274 103.603 169.274 103.603C169.273 103.604 169.273 103.604 169.272 103.604C169.272 103.605 169.271 103.605 169.271 103.605C169.271 103.606 169.27 103.606 169.27 103.606C169.269 103.607 169.269 103.607 169.268 103.607C169.268 103.608 169.268 103.608 169.267 103.608C169.267 103.609 169.266 103.609 169.266 103.61C169.265 103.61 169.265 103.61 169.265 103.611C169.264 103.611 169.264 103.611 169.263 103.612C169.263 103.612 169.262 103.612 169.262 103.613C169.262 103.613 169.261 103.613 169.261 103.614C169.26 103.614 169.26 103.614 169.259 103.615C169.259 103.615 169.259 103.616 169.258 103.616C169.258 103.616 169.257 103.617 169.257 103.617C169.257 103.617 169.256 103.618 169.256 103.618C169.255 103.618 169.255 103.619 169.254 103.619C169.254 103.619 169.254 103.62 169.253 103.62C169.253 103.62 169.252 103.621 169.252 103.621C169.251 103.622 169.251 103.622 169.251 103.622C169.25 103.623 169.25 103.623 169.249 103.623C169.249 103.624 169.248 103.624 169.248 103.624C169.248 103.625 169.247 103.625 169.247 103.625C169.246 103.626 169.246 103.626 169.245 103.627C169.245 103.627 169.245 103.627 169.244 103.628C169.244 103.628 169.243 103.628 169.243 103.629C169.242 103.629 169.242 103.629 169.242 103.63C169.241 103.63 169.241 103.63 169.24 103.631C169.24 103.631 169.239 103.631 169.239 103.632C169.239 103.632 169.238 103.633 169.238 103.633C169.237 103.633 169.237 103.634 169.236 103.634C169.236 103.634 169.235 103.635 169.235 103.635C169.235 103.635 169.234 103.636 169.234 103.636C169.233 103.636 169.233 103.637 169.232 103.637C169.232 103.638 169.232 103.638 169.231 103.638C169.231 103.639 169.23 103.639 169.23 103.639C169.229 103.64 169.229 103.64 169.229 103.64C169.228 103.641 169.228 103.641 169.227 103.641C169.227 103.642 169.226 103.642 169.226 103.643C169.226 103.643 169.225 103.643 169.225 103.644C169.224 103.644 169.224 103.644 169.223 103.645C169.223 103.645 169.223 103.645 169.222 103.646C169.222 103.646 169.221 103.647 169.221 103.647C169.22 103.647 169.22 103.648 169.22 103.648C169.219 103.648 169.219 103.649 169.218 103.649C169.218 103.649 169.217 103.65 169.217 103.65C169.216 103.65 169.216 103.651 169.216 103.651C169.215 103.652 169.215 103.652 169.214 103.652C169.214 103.653 169.213 103.653 169.213 103.653C169.213 103.654 169.212 103.654 169.212 103.654C169.211 103.655 169.211 103.655 169.21 103.656C169.21 103.656 169.21 103.656 169.209 103.657C169.209 103.657 169.208 103.657 169.208 103.658C169.207 103.658 169.207 103.658 169.206 103.659C169.206 103.659 169.206 103.659 169.205 103.66C169.205 103.66 169.204 103.661 169.204 103.661C169.203 103.661 169.203 103.662 169.203 103.662C169.202 103.662 169.202 103.663 169.201 103.663C169.201 103.663 169.2 103.664 169.2 103.664C169.199 103.665 169.199 103.665 169.199 103.665C169.198 103.666 169.198 103.666 169.197 103.666C169.197 103.667 169.196 103.667 169.196 103.667C169.196 103.668 169.195 103.668 169.195 103.669C169.194 103.669 169.194 103.669 169.193 103.67C169.193 103.67 169.192 103.67 169.192 103.671C169.192 103.671 169.191 103.671 169.191 103.672C169.19 103.672 169.19 103.673 169.189 103.673C169.189 103.673 169.189 103.674 169.188 103.674C169.188 103.674 169.187 103.675 169.187 103.675C169.186 103.675 169.186 103.676 169.185 103.676C169.185 103.677 169.185 103.677 169.184 103.677C169.184 103.678 169.183 103.678 169.183 103.678C169.182 103.679 169.182 103.679 169.181 103.679C169.181 103.68 169.181 103.68 169.18 103.681C169.18 103.681 169.179 103.681 169.179 103.682C169.178 103.682 169.178 103.682 169.178 103.683C169.177 103.683 169.177 103.683 169.176 103.684C169.176 103.684 169.175 103.685 169.175 103.685C169.174 103.685 169.174 103.686 169.174 103.686C169.173 103.686 169.173 103.687 169.172 103.687C169.172 103.687 169.171 103.688 169.171 103.688C169.17 103.689 169.17 103.689 169.17 103.689C169.169 103.69 169.169 103.69 169.168 103.69C169.168 103.691 169.167 103.691 169.167 103.692C169.166 103.692 169.166 103.692 169.166 103.693C169.165 103.693 169.165 103.693 169.164 103.694C169.164 103.694 169.163 103.694 169.163 103.695C169.162 103.695 169.162 103.696 169.162 103.696C169.161 103.696 169.161 103.697 169.16 103.697C169.16 103.697 169.159 103.698 169.159 103.698C169.158 103.699 169.158 103.699 169.158 103.699C169.157 103.7 169.157 103.7 169.156 103.7C169.156 103.701 169.155 103.701 169.155 103.701C169.154 103.702 169.154 103.702 169.154 103.703C169.153 103.703 169.153 103.703 169.152 103.704C169.152 103.704 169.151 103.704 169.151 103.705C169.15 103.705 169.15 103.706 169.15 103.706C169.149 103.706 169.149 103.707 169.148 103.707C169.148 103.707 169.147 103.708 169.147 103.708C169.146 103.708 169.146 103.709 169.146 103.709C169.145 103.71 169.145 103.71 169.144 103.71C169.144 103.711 169.143 103.711 169.143 103.711C169.142 103.712 169.142 103.712 169.142 103.713C169.141 103.713 169.141 103.713 169.14 103.714C169.14 103.714 169.139 103.714 169.139 103.715C169.138 103.715 169.138 103.716 169.138 103.716C169.137 103.716 169.137 103.717 169.136 103.717C169.136 103.717 169.135 103.718 169.135 103.718C169.134 103.718 169.134 103.719 169.133 103.719C169.133 103.72 169.133 103.72 169.132 103.72C169.132 103.721 169.131 103.721 169.131 103.721C169.13 103.722 169.13 103.722 169.129 103.723C169.129 103.723 169.129 103.723 169.128 103.724C169.128 103.724 169.127 103.724 169.127 103.725C169.126 103.725 169.126 103.726 169.125 103.726C169.125 103.726 169.124 103.727 169.124 103.727C169.124 103.727 169.123 103.728 169.123 103.728C169.122 103.729 169.122 103.729 169.121 103.729C169.121 103.73 169.12 103.73 169.12 103.73L170.422 105.248C170.423 105.248 170.423 105.247 170.424 105.247C170.424 105.247 170.425 105.246 170.425 105.246C170.426 105.246 170.426 105.245 170.427 105.245C170.427 105.244 170.427 105.244 170.428 105.244C170.428 105.243 170.429 105.243 170.429 105.243C170.43 105.242 170.43 105.242 170.431 105.241C170.431 105.241 170.431 105.241 170.432 105.24C170.432 105.24 170.433 105.24 170.433 105.239C170.434 105.239 170.434 105.238 170.435 105.238C170.435 105.238 170.436 105.237 170.436 105.237C170.436 105.237 170.437 105.236 170.437 105.236C170.438 105.235 170.438 105.235 170.439 105.235C170.439 105.234 170.44 105.234 170.44 105.234C170.44 105.233 170.441 105.233 170.441 105.233C170.442 105.232 170.442 105.232 170.443 105.231C170.443 105.231 170.444 105.231 170.444 105.23C170.444 105.23 170.445 105.23 170.445 105.229C170.446 105.229 170.446 105.228 170.447 105.228C170.447 105.228 170.448 105.227 170.448 105.227C170.449 105.227 170.449 105.226 170.449 105.226C170.45 105.225 170.45 105.225 170.451 105.225C170.451 105.224 170.452 105.224 170.452 105.224C170.453 105.223 170.453 105.223 170.453 105.223C170.454 105.222 170.454 105.222 170.455 105.221C170.455 105.221 170.456 105.221 170.456 105.22C170.457 105.22 170.457 105.22 170.457 105.219C170.458 105.219 170.458 105.218 170.459 105.218C170.459 105.218 170.46 105.217 170.46 105.217C170.461 105.217 170.461 105.216 170.461 105.216C170.462 105.216 170.462 105.215 170.463 105.215C170.463 105.214 170.464 105.214 170.464 105.214C170.465 105.213 170.465 105.213 170.465 105.213C170.466 105.212 170.466 105.212 170.467 105.211C170.467 105.211 170.468 105.211 170.468 105.21C170.469 105.21 170.469 105.21 170.469 105.209C170.47 105.209 170.47 105.209 170.471 105.208C170.471 105.208 170.472 105.207 170.472 105.207C170.473 105.207 170.473 105.206 170.473 105.206C170.474 105.206 170.474 105.205 170.475 105.205C170.475 105.204 170.476 105.204 170.476 105.204C170.476 105.203 170.477 105.203 170.477 105.203C170.478 105.202 170.478 105.202 170.479 105.202C170.479 105.201 170.48 105.201 170.48 105.2C170.48 105.2 170.481 105.2 170.481 105.199C170.482 105.199 170.482 105.199 170.483 105.198C170.483 105.198 170.484 105.198 170.484 105.197C170.484 105.197 170.485 105.196 170.485 105.196C170.486 105.196 170.486 105.195 170.487 105.195C170.487 105.195 170.487 105.194 170.488 105.194C170.488 105.194 170.489 105.193 170.489 105.193C170.49 105.192 170.49 105.192 170.491 105.192C170.491 105.191 170.491 105.191 170.492 105.191C170.492 105.19 170.493 105.19 170.493 105.19C170.494 105.189 170.494 105.189 170.495 105.188C170.495 105.188 170.495 105.188 170.496 105.187C170.496 105.187 170.497 105.187 170.497 105.186C170.498 105.186 170.498 105.186 170.498 105.185C170.499 105.185 170.499 105.184 170.5 105.184C170.5 105.184 170.501 105.183 170.501 105.183C170.502 105.183 170.502 105.182 170.502 105.182C170.503 105.182 170.503 105.181 170.504 105.181C170.504 105.18 170.505 105.18 170.505 105.18C170.505 105.179 170.506 105.179 170.506 105.179C170.507 105.178 170.507 105.178 170.508 105.178C170.508 105.177 170.509 105.177 170.509 105.176C170.509 105.176 170.51 105.176 170.51 105.175C170.511 105.175 170.511 105.175 170.512 105.174C170.512 105.174 170.512 105.174 170.513 105.173C170.513 105.173 170.514 105.173 170.514 105.172C170.515 105.172 170.515 105.171 170.515 105.171C170.516 105.171 170.516 105.17 170.517 105.17C170.517 105.17 170.518 105.169 170.518 105.169C170.519 105.169 170.519 105.168 170.519 105.168C170.52 105.167 170.52 105.167 170.521 105.167C170.521 105.166 170.522 105.166 170.522 105.166C170.522 105.165 170.523 105.165 170.523 105.165C170.524 105.164 170.524 105.164 170.525 105.164C170.525 105.163 170.525 105.163 170.526 105.162C170.526 105.162 170.527 105.162 170.527 105.161C170.528 105.161 170.528 105.161 170.528 105.16C170.529 105.16 170.529 105.16 170.53 105.159C170.53 105.159 170.531 105.159 170.531 105.158C170.532 105.158 170.532 105.157 170.532 105.157C170.533 105.157 170.533 105.156 170.534 105.156C170.534 105.156 170.535 105.155 170.535 105.155C170.535 105.155 170.536 105.154 170.536 105.154C170.537 105.154 170.537 105.153 170.538 105.153C170.538 105.152 170.538 105.152 170.539 105.152C170.539 105.151 170.54 105.151 170.54 105.151C170.541 105.15 170.541 105.15 170.541 105.15C170.542 105.149 170.542 105.149 170.543 105.149C170.543 105.148 170.544 105.148 170.544 105.147C170.544 105.147 170.545 105.147 170.545 105.146C170.546 105.146 170.546 105.146 170.547 105.145C170.547 105.145 170.547 105.145 170.548 105.144C170.548 105.144 170.549 105.144 170.549 105.143C170.55 105.143 170.55 105.142 170.55 105.142C170.551 105.142 170.551 105.141 170.552 105.141C170.552 105.141 170.553 105.14 170.553 105.14C170.553 105.14 170.554 105.139 170.554 105.139C170.555 105.139 170.555 105.138 170.556 105.138C170.556 105.138 170.556 105.137 170.557 105.137C170.557 105.136 170.558 105.136 170.558 105.136C170.559 105.135 170.559 105.135 170.559 105.135C170.56 105.134 170.56 105.134 170.561 105.134C170.561 105.133 170.562 105.133 170.562 105.133C170.562 105.132 170.563 105.132 170.563 105.131C170.564 105.131 170.564 105.131 170.565 105.13C170.565 105.13 170.565 105.13 170.566 105.129C170.566 105.129 170.567 105.129 170.567 105.128C170.568 105.128 170.568 105.128 170.568 105.127C170.569 105.127 170.569 105.127 170.57 105.126C170.57 105.126 170.57 105.126 170.571 105.125C170.571 105.125 170.572 105.124 170.572 105.124C170.573 105.124 170.573 105.123 170.573 105.123C170.574 105.123 170.574 105.122 170.575 105.122C170.575 105.122 170.576 105.121 170.576 105.121C170.576 105.121 170.577 105.12 170.577 105.12C170.578 105.12 170.578 105.119 170.579 105.119C170.579 105.118 170.579 105.118 170.58 105.118C170.58 105.117 170.581 105.117 170.581 105.117C170.581 105.116 170.582 105.116 170.582 105.116C170.583 105.115 170.583 105.115 170.584 105.115C170.584 105.114 170.584 105.114 170.585 105.114C170.585 105.113 170.586 105.113 170.586 105.113C170.587 105.112 170.587 105.112 170.587 105.111C170.588 105.111 170.588 105.111 170.589 105.11C170.589 105.11 170.59 105.11 170.59 105.109C170.59 105.109 170.591 105.109 170.591 105.108C170.592 105.108 170.592 105.108 170.592 105.107C170.593 105.107 170.593 105.107 170.594 105.106C170.594 105.106 170.595 105.106 170.595 105.105C170.595 105.105 170.596 105.105 170.596 105.104C170.597 105.104 170.597 105.103 170.598 105.103C170.598 105.103 170.598 105.102 170.599 105.102C170.599 105.102 170.6 105.101 170.6 105.101C170.6 105.101 170.601 105.1 170.601 105.1C170.602 105.1 170.602 105.099 170.603 105.099C170.603 105.099 170.603 105.098 170.604 105.098C170.604 105.098 170.605 105.097 170.605 105.097C170.605 105.097 170.606 105.096 170.606 105.096C170.607 105.095 170.607 105.095 170.608 105.095C170.608 105.094 170.608 105.094 170.609 105.094C170.609 105.093 170.61 105.093 170.61 105.093C170.61 105.092 170.611 105.092 170.611 105.092C170.612 105.091 170.612 105.091 170.613 105.091C170.613 105.09 170.613 105.09 170.614 105.09C170.614 105.089 170.615 105.089 170.615 105.089C170.615 105.088 170.616 105.088 170.616 105.088C170.617 105.087 170.617 105.087 170.618 105.086C170.618 105.086 170.618 105.086 170.619 105.085C170.619 105.085 170.62 105.085 170.62 105.084C170.62 105.084 170.621 105.084 170.621 105.083C170.622 105.083 170.622 105.083 170.623 105.082C170.623 105.082 170.623 105.082 170.624 105.081C170.624 105.081 170.625 105.081 170.625 105.08C170.625 105.08 170.626 105.08 170.626 105.079C170.627 105.079 170.627 105.079 170.628 105.078C170.628 105.078 170.628 105.078 170.629 105.077C170.629 105.077 170.63 105.077 170.63 105.076C170.63 105.076 170.631 105.075 170.631 105.075C170.632 105.075 170.632 105.074 170.632 105.074C170.633 105.074 170.633 105.073 170.634 105.073C170.634 105.073 170.635 105.072 170.635 105.072C170.635 105.072 170.636 105.071 170.636 105.071C170.637 105.071 170.637 105.07 170.637 105.07C170.638 105.07 170.638 105.069 170.639 105.069C170.639 105.069 170.639 105.068 170.64 105.068C170.64 105.068 170.641 105.067 170.641 105.067C170.642 105.067 170.642 105.066 170.642 105.066C170.643 105.066 170.643 105.065 170.644 105.065C170.644 105.065 170.644 105.064 170.645 105.064C170.645 105.064 170.646 105.063 170.646 105.063C170.646 105.063 170.647 105.062 170.647 105.062C170.648 105.062 170.648 105.061 170.649 105.061C170.649 105.06 170.649 105.06 170.65 105.06C170.65 105.059 170.651 105.059 170.651 105.059C170.651 105.058 170.652 105.058 170.652 105.058C170.653 105.057 170.653 105.057 170.653 105.057C170.654 105.056 170.654 105.056 170.655 105.056C170.655 105.055 170.655 105.055 170.656 105.055C170.656 105.054 170.657 105.054 170.657 105.054C170.658 105.053 170.658 105.053 170.658 105.053C170.659 105.052 170.659 105.052 170.66 105.052C170.66 105.051 170.66 105.051 170.661 105.051C170.661 105.05 170.662 105.05 170.662 105.05C170.662 105.049 170.663 105.049 170.663 105.049C170.664 105.048 170.664 105.048 170.664 105.048C170.665 105.047 170.665 105.047 170.666 105.047C170.666 105.046 170.666 105.046 170.667 105.046C170.667 105.045 170.668 105.045 170.668 105.045C170.669 105.044 170.669 105.044 170.669 105.044C170.67 105.043 170.67 105.043 170.671 105.043C170.671 105.042 170.671 105.042 170.672 105.042C170.672 105.041 170.673 105.041 170.673 105.041C170.673 105.04 170.674 105.04 170.674 105.04C170.675 105.039 170.675 105.039 170.675 105.039C170.676 105.038 170.676 105.038 170.677 105.038C170.677 105.037 170.677 105.037 170.678 105.037C170.678 105.036 170.679 105.036 170.679 105.036C170.679 105.035 170.68 105.035 170.68 105.035C170.681 105.034 170.681 105.034 170.681 105.034C170.682 105.033 170.682 105.033 170.683 105.033C170.683 105.032 170.684 105.032 170.684 105.032C170.684 105.031 170.685 105.031 170.685 105.031C170.686 105.03 170.686 105.03 170.686 105.03C170.687 105.029 170.687 105.029 170.688 105.029C170.688 105.028 170.688 105.028 170.689 105.028C170.689 105.027 170.69 105.027 170.69 105.027C170.69 105.026 170.691 105.026 170.691 105.026C170.692 105.025 170.692 105.025 170.692 105.025C170.693 105.024 170.693 105.024 170.694 105.024C170.694 105.023 170.694 105.023 170.695 105.023C170.695 105.022 170.696 105.022 170.696 105.022C170.696 105.021 170.697 105.021 170.697 105.021C170.698 105.02 170.698 105.02 170.698 105.02C170.699 105.019 170.699 105.019 170.7 105.019C170.7 105.018 170.7 105.018 170.701 105.018C170.701 105.017 170.702 105.017 170.702 105.017C170.702 105.016 170.703 105.016 170.703 105.016C170.704 105.015 170.704 105.015 170.704 105.015C170.705 105.014 170.705 105.014 170.706 105.014C170.706 105.013 170.706 105.013 170.707 105.013C170.707 105.012 170.708 105.012 170.708 105.012C170.708 105.011 170.709 105.011 170.709 105.011C170.71 105.01 170.71 105.01 170.71 105.01C170.711 105.009 170.711 105.009 170.712 105.009C170.712 105.008 170.712 105.008 170.713 105.008C170.713 105.007 170.714 105.007 170.714 105.007C170.714 105.006 170.715 105.006 170.715 105.006C170.716 105.005 170.716 105.005 170.716 105.005C170.717 105.004 170.717 105.004 170.717 105.004C170.718 105.003 170.718 105.003 170.719 105.003C170.719 105.002 170.719 105.002 170.72 105.002C170.72 105.001 170.721 105.001 170.721 105.001C170.721 105 170.722 105 170.722 105C170.723 104.999 170.723 104.999 170.723 104.999C170.724 104.998 170.724 104.998 170.725 104.998C170.725 104.997 170.725 104.997 170.726 104.997C170.726 104.996 170.727 104.996 170.727 104.996C170.727 104.995 170.728 104.995 170.728 104.995C170.729 104.994 170.729 104.994 170.729 104.994C170.73 104.994 170.73 104.993 170.731 104.993C170.731 104.993 170.731 104.992 170.732 104.992C170.732 104.992 170.733 104.991 170.733 104.991C170.733 104.991 170.734 104.99 170.734 104.99C170.734 104.99 170.735 104.989 170.735 104.989C170.736 104.989 170.736 104.988 170.736 104.988C170.737 104.988 170.737 104.987 170.738 104.987C170.738 104.987 170.738 104.986 170.739 104.986C170.739 104.986 170.74 104.985 170.74 104.985C170.74 104.985 170.741 104.984 170.741 104.984C170.742 104.984 170.742 104.983 170.742 104.983C170.743 104.983 170.743 104.982 170.744 104.982C170.744 104.982 170.744 104.981 170.745 104.981C170.745 104.981 170.745 104.98 170.746 104.98C170.746 104.98 170.747 104.98 170.747 104.979C170.747 104.979 170.748 104.979 170.748 104.978C170.749 104.978 170.749 104.978 170.749 104.977C170.75 104.977 170.75 104.977 170.751 104.976C170.751 104.976 170.751 104.976 170.752 104.975C170.752 104.975 170.752 104.975 170.753 104.974C170.753 104.974 170.754 104.974 170.754 104.973C170.754 104.973 170.755 104.973 170.755 104.972C170.756 104.972 170.756 104.972 170.756 104.971C170.757 104.971 170.757 104.971 170.758 104.97C170.758 104.97 170.758 104.97 170.759 104.97C170.759 104.969 170.759 104.969 170.76 104.969C170.76 104.968 170.761 104.968 170.761 104.968C170.761 104.967 170.762 104.967 170.762 104.967C170.763 104.966 170.763 104.966 170.763 104.966C170.764 104.965 170.764 104.965 170.765 104.965C170.765 104.964 170.765 104.964 170.766 104.964C170.766 104.963 170.766 104.963 170.767 104.963C170.767 104.962 170.768 104.962 170.768 104.962C170.768 104.961 170.769 104.961 170.769 104.961C170.77 104.961 170.77 104.96 170.77 104.96C170.771 104.96 170.771 104.959 170.771 104.959C170.772 104.959 170.772 104.958 170.773 104.958C170.773 104.958 170.773 104.957 170.774 104.957C170.774 104.957 170.775 104.956 170.775 104.956C170.775 104.956 170.776 104.955 170.776 104.955C170.776 104.955 170.777 104.954 170.777 104.954C170.778 104.954 170.778 104.954 170.778 104.953C170.779 104.953 170.779 104.953 170.78 104.952C170.78 104.952 170.78 104.952 170.781 104.951C170.781 104.951 170.781 104.951 170.782 104.95C170.782 104.95 170.783 104.95 170.783 104.949C170.783 104.949 170.784 104.949 170.784 104.948C170.785 104.948 170.785 104.948 170.785 104.947C170.786 104.947 170.786 104.947 170.786 104.947C170.787 104.946 170.787 104.946 170.788 104.946C170.788 104.945 170.788 104.945 170.789 104.945C170.789 104.944 170.79 104.944 170.79 104.944C170.79 104.943 170.791 104.943 170.791 104.943C170.791 104.942 170.792 104.942 170.792 104.942C170.793 104.941 170.793 104.941 170.793 104.941C170.794 104.94 170.794 104.94 170.794 104.94C170.795 104.94 170.795 104.939 170.796 104.939C170.796 104.939 170.796 104.938 170.797 104.938C170.797 104.938 170.798 104.937 170.798 104.937C170.798 104.937 170.799 104.936 170.799 104.936C170.799 104.936 170.8 104.935 170.8 104.935C170.801 104.935 170.801 104.935 170.801 104.934C170.802 104.934 170.802 104.934 170.802 104.933C170.803 104.933 170.803 104.933 170.804 104.932C170.804 104.932 170.804 104.932 170.805 104.931C170.805 104.931 170.806 104.931 170.806 104.93C170.806 104.93 170.807 104.93 170.807 104.929C170.807 104.929 170.808 104.929 170.808 104.929C170.809 104.928 170.809 104.928 170.809 104.928C170.81 104.927 170.81 104.927 170.81 104.927C170.811 104.926 170.811 104.926 170.812 104.926C170.812 104.925 170.812 104.925 170.813 104.925C170.813 104.924 170.813 104.924 170.814 104.924C170.814 104.924 170.815 104.923 170.815 104.923C170.815 104.923 170.816 104.922 170.816 104.922C170.816 104.922 170.817 104.921 170.817 104.921C170.818 104.921 170.818 104.92 170.818 104.92C170.819 104.92 170.819 104.919 170.819 104.919C170.82 104.919 170.82 104.919 170.821 104.918C170.821 104.918 170.821 104.918 170.822 104.917C170.822 104.917 170.822 104.917 170.823 104.916C170.823 104.916 170.824 104.916 170.824 104.915C170.824 104.915 170.825 104.915 170.825 104.914C170.825 104.914 170.826 104.914 170.826 104.914C170.827 104.913 170.827 104.913 170.827 104.913C170.828 104.912 170.828 104.912 170.828 104.912C170.829 104.911 170.829 104.911 170.83 104.911C170.83 104.91 170.83 104.91 170.831 104.91C170.831 104.91 170.831 104.909 170.832 104.909C170.832 104.909 170.833 104.908 170.833 104.908C170.833 104.908 170.834 104.907 170.834 104.907C170.834 104.907 170.835 104.906 170.835 104.906C170.836 104.906 170.836 104.906 170.836 104.905C170.837 104.905 170.837 104.905 170.837 104.904C170.838 104.904 170.838 104.904 170.839 104.903C170.839 104.903 170.839 104.903 170.84 104.902C170.84 104.902 170.84 104.902 170.841 104.902C170.841 104.901 170.842 104.901 170.842 104.901C170.842 104.9 170.843 104.9 170.843 104.9C170.843 104.899 170.844 104.899 170.844 104.899C170.844 104.898 170.845 104.898 170.845 104.898C170.846 104.898 170.846 104.897 170.846 104.897C170.847 104.897 170.847 104.896 170.847 104.896C170.848 104.896 170.848 104.895 170.849 104.895C170.849 104.895 170.849 104.894 170.85 104.894C170.85 104.894 170.85 104.894 170.851 104.893C170.851 104.893 170.852 104.893 170.852 104.892C170.852 104.892 170.853 104.892 170.853 104.891C170.853 104.891 170.854 104.891 170.854 104.89C170.854 104.89 170.855 104.89 170.855 104.89C170.856 104.889 170.856 104.889 170.856 104.889C170.857 104.888 170.857 104.888 170.857 104.888C170.858 104.887 170.858 104.887 170.859 104.887C170.859 104.886 170.859 104.886 170.86 104.886C170.86 104.886 170.86 104.885 170.861 104.885C170.861 104.885 170.861 104.884 170.862 104.884C170.862 104.884 170.863 104.883 170.863 104.883C170.863 104.883 170.864 104.883 170.864 104.882C170.864 104.882 170.865 104.882 170.865 104.881C170.865 104.881 170.866 104.881 170.866 104.88C170.867 104.88 170.867 104.88 170.867 104.88C170.868 104.879 170.868 104.879 170.868 104.879C170.869 104.878 170.869 104.878 170.87 104.878C170.87 104.877 170.87 104.877 170.871 104.877C170.871 104.876 170.871 104.876 170.872 104.876C170.872 104.876 170.872 104.875 170.873 104.875C170.873 104.875 170.874 104.874 170.874 104.874C170.874 104.874 170.875 104.873 170.875 104.873C170.875 104.873 170.876 104.873 170.876 104.872C170.876 104.872 170.877 104.872 170.877 104.871C170.878 104.871 170.878 104.871 170.878 104.87C170.879 104.87 170.879 104.87 170.879 104.87C170.88 104.869 170.88 104.869 170.88 104.869C170.881 104.868 170.881 104.868 170.882 104.868C170.882 104.867 170.882 104.867 170.883 104.867C170.883 104.867 170.883 104.866 170.884 104.866C170.884 104.866 170.884 104.865 170.885 104.865C170.885 104.865 170.886 104.864 170.886 104.864C170.886 104.864 170.887 104.864 170.887 104.863C170.887 104.863 170.888 104.863 170.888 104.862C170.888 104.862 170.889 104.862 170.889 104.861C170.89 104.861 170.89 104.861 170.89 104.861C170.891 104.86 170.891 104.86 170.891 104.86C170.892 104.859 170.892 104.859 170.892 104.859C170.893 104.858 170.893 104.858 170.893 104.858C170.894 104.858 170.894 104.857 170.895 104.857C170.895 104.857 170.895 104.856 170.896 104.856C170.896 104.856 170.896 104.855 170.897 104.855C170.897 104.855 170.897 104.855 170.898 104.854C170.898 104.854 170.899 104.854 170.899 104.853C170.899 104.853 170.9 104.853 170.9 104.852C170.9 104.852 170.901 104.852 170.901 104.852C170.901 104.851 170.902 104.851 170.902 104.851C170.902 104.85 170.903 104.85 170.903 104.85C170.904 104.85 170.904 104.849 170.904 104.849C170.905 104.849 170.905 104.848 170.905 104.848C170.906 104.848 170.906 104.847 170.906 104.847C170.907 104.847 170.907 104.847 170.907 104.846C170.908 104.846 170.908 104.846 170.909 104.845C170.909 104.845 170.909 104.845 170.91 104.844C170.91 104.844 170.91 104.844 170.911 104.844C170.911 104.843 170.911 104.843 170.912 104.843C170.912 104.842 170.912 104.842 170.913 104.842C170.913 104.842 170.914 104.841 170.914 104.841C170.914 104.841 170.915 104.84 170.915 104.84C170.915 104.84 170.916 104.839 170.916 104.839C170.916 104.839 170.917 104.839 170.917 104.838C170.917 104.838 170.918 104.838 170.918 104.837C170.918 104.837 170.919 104.837 170.919 104.837C170.92 104.836 170.92 104.836 170.92 104.836C170.921 104.835 170.921 104.835 170.921 104.835C170.922 104.834 170.922 104.834 170.922 104.834C170.923 104.834 170.923 104.833 170.923 104.833C170.924 104.833 170.924 104.832 170.925 104.832C170.925 104.832 170.925 104.832 170.926 104.831C170.926 104.831 170.926 104.831 170.927 104.83C170.927 104.83 170.927 104.83 170.928 104.829C170.928 104.829 170.928 104.829 170.929 104.829C170.929 104.828 170.929 104.828 170.93 104.828C170.93 104.827 170.931 104.827 170.931 104.827C170.931 104.827 170.932 104.826 170.932 104.826C170.932 104.826 170.933 104.825 170.933 104.825C170.933 104.825 170.934 104.825 170.934 104.824C170.934 104.824 170.935 104.824 170.935 104.823C170.935 104.823 170.936 104.823 170.936 104.822C170.936 104.822 170.937 104.822 170.937 104.822C170.938 104.821 170.938 104.821 170.938 104.821C170.939 104.82 170.939 104.82 170.939 104.82C170.94 104.82 170.94 104.819 170.94 104.819C170.941 104.819 170.941 104.818 170.941 104.818C170.942 104.818 170.942 104.818 170.942 104.817C170.943 104.817 170.943 104.817 170.943 104.816C170.944 104.816 170.944 104.816 170.945 104.816C170.945 104.815 170.945 104.815 170.946 104.815C170.946 104.814 170.946 104.814 170.947 104.814C170.947 104.814 170.947 104.813 170.948 104.813C170.948 104.813 170.948 104.812 170.949 104.812C170.949 104.812 170.949 104.811 170.95 104.811C170.95 104.811 170.95 104.811 170.951 104.81C170.951 104.81 170.951 104.81 170.952 104.809C170.952 104.809 170.953 104.809 170.953 104.809C170.953 104.808 170.954 104.808 170.954 104.808C170.954 104.807 170.955 104.807 170.955 104.807C170.955 104.807 170.956 104.806 170.956 104.806C170.956 104.806 170.957 104.805 170.957 104.805C170.957 104.805 170.958 104.805 170.958 104.804C170.958 104.804 170.959 104.804 170.959 104.803C170.959 104.803 170.96 104.803 170.96 104.803C170.96 104.802 170.961 104.802 170.961 104.802C170.962 104.801 170.962 104.801 170.962 104.801C170.963 104.801 170.963 104.8 170.963 104.8C170.964 104.8 170.964 104.799 170.964 104.799C170.965 104.799 170.965 104.799 170.965 104.798C170.966 104.798 170.966 104.798 170.966 104.797C170.967 104.797 170.967 104.797 170.967 104.797C170.968 104.796 170.968 104.796 170.968 104.796C170.969 104.795 170.969 104.795 170.969 104.795C170.97 104.795 170.97 104.794 170.97 104.794C170.971 104.794 170.971 104.793 170.972 104.793C170.972 104.793 170.972 104.793 170.973 104.792C170.973 104.792 170.973 104.792 170.974 104.791C170.974 104.791 170.974 104.791 170.975 104.791C170.975 104.79 170.975 104.79 170.976 104.79C170.976 104.789 170.976 104.789 170.977 104.789C170.977 104.789 170.977 104.788 170.978 104.788C170.978 104.788 170.978 104.788 170.979 104.787C170.979 104.787 170.979 104.787 170.98 104.786C170.98 104.786 170.98 104.786 170.981 104.786C170.981 104.785 170.981 104.785 170.982 104.785C170.982 104.784 170.982 104.784 170.983 104.784C170.983 104.784 170.983 104.783 170.984 104.783C170.984 104.783 170.984 104.782 170.985 104.782C170.985 104.782 170.985 104.782 170.986 104.781C170.986 104.781 170.987 104.781 170.987 104.78C170.987 104.78 170.988 104.78 170.988 104.78C170.988 104.779 170.989 104.779 170.989 104.779C170.989 104.778 170.99 104.778 170.99 104.778C170.99 104.778 170.991 104.777 170.991 104.777C170.991 104.777 170.992 104.777 170.992 104.776C170.992 104.776 170.993 104.776 170.993 104.775C170.993 104.775 170.994 104.775 170.994 104.775C170.994 104.774 170.995 104.774 170.995 104.774C170.995 104.773 170.996 104.773 170.996 104.773C170.996 104.773 170.997 104.772 170.997 104.772C170.997 104.772 170.998 104.771 170.998 104.771C170.998 104.771 170.999 104.771 170.999 104.77C170.999 104.77 171 104.77 171 104.77C171 104.769 171.001 104.769 171.001 104.769C171.001 104.768 171.002 104.768 171.002 104.768C171.002 104.768 171.003 104.767 171.003 104.767C171.003 104.767 171.004 104.766 171.004 104.766C171.004 104.766 171.005 104.766 171.005 104.765C171.005 104.765 171.006 104.765 171.006 104.765C171.006 104.764 171.007 104.764 171.007 104.764C171.007 104.763 171.008 104.763 171.008 104.763C171.008 104.763 171.009 104.762 171.009 104.762C171.009 104.762 171.01 104.761 171.01 104.761C171.01 104.761 171.011 104.761 171.011 104.76C171.011 104.76 171.012 104.76 171.012 104.76C171.012 104.759 171.013 104.759 171.013 104.759C171.013 104.758 171.014 104.758 171.014 104.758C171.014 104.758 171.015 104.757 171.015 104.757C171.015 104.757 171.016 104.757 171.016 104.756C171.016 104.756 171.017 104.756 171.017 104.755C171.017 104.755 171.018 104.755 171.018 104.755C171.018 104.754 171.019 104.754 171.019 104.754C171.019 104.753 171.02 104.753 171.02 104.753C171.02 104.753 171.021 104.752 171.021 104.752C171.021 104.752 171.022 104.752 171.022 104.751C171.022 104.751 171.023 104.751 171.023 104.75L169.721 103.233ZM169.12 103.73C168.212 104.482 167.356 105.373 166.548 106.397L168.143 107.615C168.876 106.687 169.636 105.9 170.422 105.248L169.12 103.73ZM166.556 106.387C165.712 107.429 165.131 108.535 164.848 109.706L166.811 110.169C167.014 109.326 167.444 108.478 168.135 107.625L166.556 106.387ZM164.848 109.706C164.527 111.037 164.86 112.277 165.77 113.337L167.31 112.061C166.787 111.452 166.646 110.851 166.811 110.169L164.848 109.706ZM165.77 113.337C166.777 114.51 167.924 115.33 169.22 115.399L169.323 113.419C168.853 113.394 168.178 113.073 167.31 112.061L165.77 113.337ZM169.22 115.399C170.463 115.465 171.657 114.899 172.773 113.975L171.47 112.457C170.553 113.217 169.848 113.447 169.323 113.419L169.22 115.399ZM193.047 100.822L193.119 101.812L193.119 101.812L193.047 100.822ZM186.284 99.2979L185.816 100.175L185.822 100.178L186.284 99.2979ZM174.571 83.2541L173.565 83.3242L173.565 83.3289L174.571 83.2541ZM183.754 72.2155L183.827 73.2046L183.835 73.204L183.843 73.2033L183.754 72.2155ZM188.712 73.7555L188.101 74.5423L189.397 73.0293L188.712 73.7555ZM185.444 70.7762L184.674 71.4143L184.714 71.4609L184.76 71.5023L185.444 70.7762ZM174.699 58.2548L174.047 57.4959L173.277 58.134L173.929 58.8929L174.699 58.2548ZM180.15 53.7372L180.92 53.0991L180.269 52.3403L179.499 52.9784L180.15 53.7372ZM209.847 88.3418L210.498 89.1006L211.268 88.4626L210.617 87.7037L209.847 88.3418ZM204.811 92.5148L204.041 93.1529L204.692 93.9117L205.462 93.2737L204.811 92.5148ZM200.825 87.8705L201.595 87.2324L199.915 88.2953L200.825 87.8705ZM201.913 93.5137L202.915 93.629L202.916 93.6214L201.913 93.5137ZM198.153 88.4876L199.16 88.4388L199.16 88.4325L198.153 88.4876ZM188.919 77.1289L189.304 76.2134L189.304 76.2134L188.919 77.1289ZM182.513 80.2567L181.554 79.9459L181.551 79.9551L182.513 80.2567ZM182.688 84.0073L183.655 83.7311L183.654 83.7262L182.688 84.0073ZM191.865 93.5039L191.61 94.4625L191.616 94.4639L191.865 93.5039ZM198.516 97.5235C196.799 98.9463 194.958 99.6998 192.975 99.8333L193.119 101.812C195.57 101.647 197.809 100.707 199.819 99.0413L198.516 97.5235ZM192.975 99.8333C190.97 99.9683 188.899 99.5131 186.745 98.4176L185.822 100.178C188.252 101.414 190.689 101.975 193.119 101.812L192.975 99.8333ZM186.752 98.4209C184.615 97.3148 182.546 95.618 180.553 93.2952L179.013 94.5714C181.135 97.0446 183.4 98.9243 185.816 100.175L186.752 98.4209ZM180.553 93.2952C177.428 89.6538 175.824 86.2852 175.576 83.1793L173.565 83.3289C173.858 86.9946 175.729 90.7455 179.013 94.5714L180.553 93.2952ZM175.576 83.184C175.349 80.1552 176.573 77.478 179.436 75.1058L178.134 73.588C174.867 76.2949 173.282 79.5558 173.565 83.3242L175.576 83.184ZM179.436 75.1058C180.874 73.9144 182.334 73.3068 183.827 73.2046L183.681 71.2264C181.69 71.3627 179.837 72.176 178.134 73.588L179.436 75.1058ZM183.843 73.2033C185.307 73.0799 186.714 73.4994 188.101 74.5423L189.324 72.9687C187.589 71.6639 185.691 71.0567 183.665 71.2276L183.843 73.2033ZM189.397 73.0293L186.129 70.0501L184.76 71.5023L188.028 74.4816L189.397 73.0293ZM186.214 70.1381L175.469 57.6167L173.929 58.8929L184.674 71.4143L186.214 70.1381ZM175.35 59.0137L180.801 54.4961L179.499 52.9784L174.047 57.4959L175.35 59.0137ZM179.38 54.3753L209.077 88.9798L210.617 87.7037L180.92 53.0991L179.38 54.3753ZM209.195 87.5829L204.16 91.7559L205.462 93.2737L210.498 89.1006L209.195 87.5829ZM205.581 91.8767L201.595 87.2324L200.055 88.5086L204.041 93.1529L205.581 91.8767ZM199.915 88.2953C200.772 90.0598 201.089 91.7573 200.91 93.4061L202.916 93.6214C203.139 91.5615 202.731 89.4969 201.735 87.4457L199.915 88.2953ZM200.911 93.3984C200.731 94.9549 199.963 96.3242 198.516 97.5235L199.819 99.0413C201.605 97.5606 202.669 95.7509 202.915 93.629L200.911 93.3984ZM197.29 93.4233C198.71 92.2465 199.27 90.51 199.16 88.4388L197.146 88.5364C197.234 90.1966 196.785 91.2447 195.988 91.9056L197.29 93.4233ZM199.16 88.4325C199.028 86.2243 197.683 83.7792 195.414 81.1352L193.874 82.4113C196.06 84.958 197.054 86.9892 197.147 88.5428L199.16 88.4325ZM195.414 81.1352C193.336 78.714 191.303 77.0296 189.304 76.2134L188.535 78.0444C190.105 78.6853 191.888 80.0972 193.874 82.4113L195.414 81.1352ZM189.304 76.2134C188.277 75.7941 187.247 75.6271 186.236 75.7678C185.223 75.9089 184.297 76.3496 183.466 77.0382L184.769 78.556C185.354 78.0705 185.938 77.8129 186.525 77.7312C187.114 77.6492 187.777 77.7351 188.535 78.0444L189.304 76.2134ZM183.466 77.0382C182.576 77.7758 181.948 78.7624 181.554 79.9459L183.471 80.5675C183.769 79.6712 184.211 79.0181 184.769 78.556L183.466 77.0382ZM181.551 79.9551C181.139 81.2361 181.24 82.7023 181.721 84.2884L183.654 83.7262C183.241 82.3659 183.225 81.3317 183.474 80.5584L181.551 79.9551ZM181.72 84.2834C182.211 85.9307 183.328 87.7167 184.972 89.6326L186.512 88.3565C184.952 86.5387 184.033 85 183.655 83.7311L181.72 84.2834ZM184.972 89.6326C187.175 92.1992 189.382 93.8839 191.61 94.4625L192.12 92.5454C190.482 92.1201 188.608 90.7985 186.512 88.3565L184.972 89.6326ZM191.616 94.4639C193.781 95.0128 195.727 94.7185 197.29 93.4233L195.988 91.9056C195.025 92.7033 193.789 92.9686 192.114 92.5439L191.616 94.4639ZM214.933 79.5301L215.086 78.5507L215.086 78.5507L214.933 79.5301ZM200.079 62.0374L201.087 62.0736L201.087 62.0736L200.079 62.0374ZM215.884 49.1345L215.696 50.108L215.703 50.1094L215.884 49.1345ZM230.581 66.445L229.573 66.4426L229.573 66.4432L230.581 66.445ZM207.217 61.42L208.222 61.3343L208.221 61.3281L207.217 61.42ZM216.849 72.6437L216.594 73.6021L216.594 73.6021L216.849 72.6437ZM224.831 75.4046C221.617 78.0685 218.385 79.0602 215.086 78.5507L214.779 80.5096C218.771 81.1263 222.572 79.8735 226.134 76.9223L224.831 75.4046ZM215.086 78.5507C211.752 78.0356 208.542 76.0746 205.467 72.4925L203.928 73.7686C207.209 77.593 210.823 79.8985 214.779 80.5096L215.086 78.5507ZM205.467 72.4925C202.37 68.8835 200.973 65.4177 201.087 62.0736L199.071 62.0013C198.935 65.9807 200.616 69.9102 203.928 73.7686L205.467 72.4925ZM201.087 62.0736C201.201 58.7451 202.784 55.7571 206 53.0924L204.697 51.5747C201.137 54.525 199.208 58.0063 199.071 62.0013L201.087 62.0736ZM206 53.0924C209.225 50.42 212.437 49.4891 215.696 50.108L216.073 48.161C212.09 47.4047 208.279 48.6064 204.697 51.5747L206 53.0924ZM215.703 50.1094C219.035 50.7161 222.197 52.6833 225.179 56.1577L226.719 54.8815C223.526 51.1617 219.979 48.8723 216.065 48.1596L215.703 50.1094ZM225.179 56.1577C228.155 59.6259 229.572 63.0487 229.573 66.4426L231.59 66.4475C231.588 62.4682 229.916 58.6074 226.719 54.8815L225.179 56.1577ZM229.573 66.4432C229.577 69.7516 228.057 72.7313 224.831 75.4046L226.134 76.9223C229.714 73.955 231.594 70.4557 231.59 66.4469L229.573 66.4432ZM222.319 72.2925C224.046 70.8608 224.762 68.9978 224.391 66.8234C224.036 64.7422 222.701 62.4521 220.574 59.9734L219.034 61.2495C221.075 63.6276 222.135 65.5863 222.402 67.1458C222.652 68.6121 222.214 69.7818 221.016 70.7748L222.319 72.2925ZM220.574 59.9734C218.435 57.48 216.354 55.7905 214.321 55.0875C212.197 54.353 210.203 54.7253 208.473 56.1589L209.776 57.6767C210.972 56.6856 212.22 56.4611 213.657 56.9579C215.184 57.4861 216.98 58.8558 219.034 61.2495L220.574 59.9734ZM208.473 56.1589C206.782 57.5603 206.005 59.375 206.213 61.512L208.221 61.3281C208.078 59.8613 208.572 58.6745 209.776 57.6767L208.473 56.1589ZM206.213 61.5058C206.405 63.6107 207.788 66.0159 210.072 68.6767L211.612 67.4006C209.389 64.8101 208.356 62.8028 208.222 61.3343L206.213 61.5058ZM210.072 68.6767C212.343 71.3236 214.516 73.061 216.594 73.6021L217.105 71.6854C215.654 71.3075 213.821 69.9748 211.612 67.4006L210.072 68.6767ZM216.594 73.6021C218.69 74.1482 220.632 73.6902 222.319 72.2925L221.016 70.7748C219.808 71.7763 218.537 72.0584 217.105 71.6854L216.594 73.6021Z" fill="white" mask="url(#path-2-outside-1_0_1)"/>
</g>
<defs>
<filter id="filter0_d_0_1" x="0.720947" y="0.418915" width="283.348" height="251.204" filterUnits="userSpaceOnUse" color-interpolation-filters="sRGB">
<feFlood flood-opacity="0" result="BackgroundImageFix"/>
<feColorMatrix in="SourceAlpha" type="matrix" values="0 0 0 0 0 0 0 0 0 0 0 0 0 0 0 0 0 0 127 0" result="hardAlpha"/>
<feOffset dy="4"/>
<feGaussianBlur stdDeviation="2"/>
<feComposite in2="hardAlpha" operator="out"/>
<feColorMatrix type="matrix" values="0 0 0 0 0.815 0 0 0 0 0.15485 0 0 0 0 0.15485 0 0 0 0.47 0"/>
<feBlend mode="normal" in2="BackgroundImageFix" result="effect1_dropShadow_0_1"/>
<feBlend mode="normal" in="SourceGraphic" in2="effect1_dropShadow_0_1" result="shape"/>
</filter>
<filter id="filter1_d_0_1" x="51.2435" y="47.9405" width="184.346" height="167.607" filterUnits="userSpaceOnUse" color-interpolation-filters="sRGB">
<feFlood flood-opacity="0" result="BackgroundImageFix"/>
<feColorMatrix in="SourceAlpha" type="matrix" values="0 0 0 0 0 0 0 0 0 0 0 0 0 0 0 0 0 0 127 0" result="hardAlpha"/>
<feOffset dy="6"/>
<feGaussianBlur stdDeviation="2"/>
<feComposite in2="hardAlpha" operator="out"/>
<feColorMatrix type="matrix" values="0 0 0 0 0.984314 0 0 0 0 0.254902 0 0 0 0 0.254902 0 0 0 0.46 0"/>
<feBlend mode="normal" in2="BackgroundImageFix" result="effect1_dropShadow_0_1"/>
<feBlend mode="normal" in="SourceGraphic" in2="effect1_dropShadow_0_1" result="shape"/>
</filter>
</defs>
</svg>
